<?xml version="1.0" encoding="utf-8"?>
<!-- Generator: Adobe Illustrator 24.0.1, SVG Export Plug-In . SVG Version: 6.00 Build 0)  -->
<svg version="1.1" id="Layer_1" xmlns="http://www.w3.org/2000/svg" xmlns:xlink="http://www.w3.org/1999/xlink" x="0px" y="0px"
	 viewBox="0 0 215 465" style="enable-background:new 0 0 215 465;" xml:space="preserve">
<path d="M203.52,444.17c-0.56-0.12-1.14-0.24-1.71-0.29c-4.74-0.46-9.39-1.34-13.85-3c-3.54-1.31-7.1-2.52-10.16-4.91
	c-1.99-1.55-4.33-2.66-6.59-3.81c-0.65-0.33-0.94-0.66-1.09-1.29c-0.49-2.15-0.96-4.31-1.51-6.44c-2.47-9.45-5.11-18.85-7.39-28.35
	c-1.7-7.11-2.92-14.34-4.39-21.51c-1-4.92-2.66-9.6-5.15-13.98c-0.95-1.67-1.45-3.35-0.89-5.32c0.93-3.29-0.31-6.04-2.46-8.48
	c-0.74-0.84-1.56-1.63-2.22-2.53c-0.37-0.5-0.66-1.17-0.73-1.79c-0.4-3.76-0.56-7.56-1.13-11.3c-2.55-16.67-3.87-33.56-8.82-49.8
	c-0.26-0.87-0.17-1.55,0.61-2.19c1.62-1.32,1.92-3.03,1.14-4.94c-0.18-0.45-0.36-0.91-0.67-1.68c1.6,1.76,3.21,2.41,5.22,1.59
	c0.14-0.06,0.39,0.05,0.54,0.15c1.7,1.15,3.29,0.82,4.79-0.37c1.86,0.88,2.82,0.66,4.1-0.99c0.41-0.52,0.81-1.07,1.09-1.66
	c0.42-0.89,0.9-1.49,1.99-1.77c0.72-0.19,1.36-1.04,1.83-1.74c0.44-0.65,0.62-1.5,0.91-2.27c2.95-0.29,5.88-0.54,8.81-0.86
	c1.61-0.18,2.5-1.2,2.46-2.59c-0.12-4.45-0.21-8.9-0.34-13.35c-0.02-0.76,0.1-1.28,0.86-1.73c0.42-0.25,0.72-1.02,0.74-1.57
	c0.09-2.45,0.06-4.91,0.07-7.36c0.01-1.18-0.1-2.26-1.69-2.11c-0.45-4.57-0.83-9.02-0.34-13.53c0.39-3.54-1.19-5-4.69-4.9
	c-4.85,0.12-9.7,0.21-14.69,0.31c-0.01-0.02-0.02-0.05-0.03-0.07c-2.15-8.16-4.27-16.32-6.44-24.47c-0.21-0.76-0.04-1.11,0.6-1.49
	c1.65-0.96,3.25-1.99,4.9-3.01c-0.17-0.38-0.3-0.64-0.41-0.9c-1.27-3.01-2.5-6.05-3.84-9.03c-0.25-0.55-0.89-1.16-1.46-1.3
	c-1.19-0.28-1.94-0.9-2.61-1.9c-2.44-3.71-5-7.35-7.46-11.05c-3.31-4.99-6.71-9.93-9.79-15.06c-1.58-2.64-3.64-3.5-6.47-3.3
	c-1.93,0.13-3.86,0.18-6.12,0.28c0.46-0.29,0.66-0.41,0.85-0.54c4.41-2.97,8.89-5.84,13.2-8.95c4.56-3.3,8.08-7.52,10.22-12.81
	c1.75-4.35,2.76-8.89,3.46-13.5c0.12-0.85,0.45-1.3,1.17-1.71c3.35-1.95,6.33-4.33,8.06-7.93c2.07-4.33-0.01-9.43-4.31-10.71
	c-0.06-0.02-0.09-0.13-0.1-0.15c0.3-1.25,0.55-2.47,0.89-3.67c1.68-5.87,3.39-11.73,5.1-17.6c0.08-0.25,0.26-0.53,0.47-0.69
	c3.61-2.6,4.95-6.34,5.27-10.56c0.09-1.2,0.01-2.4,0.01-3.88c0.26,0.38,0.32,0.49,0.39,0.58c0.33,0.42,0.68,1.18,1,1.17
	c0.5-0.03,1.17-0.46,1.42-0.91c0.62-1.11,1.2-2.3,1.51-3.53c0.62-2.42,0.3-4.77-1.5-6.64c-0.77-0.8-1.84-1.3-2.83-1.97
	c1.51-1.83,2.36-3.95,2.2-6.39c-0.03-0.39-0.31-1-0.59-1.07c-0.37-0.1-0.86,0.21-1.28,0.4c-0.95,0.44-1.85,1.16-2.84,1.32
	c-2.35,0.38-4.13,0-5.58-2.58c-4.41-7.88-11.32-13.17-19.32-17.11c-6.64-3.27-13.54-5.51-21.07-5.26c-0.55,0.02-1.11,0.01-1.68,0.01
	c0.69-0.82,1.41-1.51,1.91-2.33c0.57-0.93,0.27-1.34-0.83-1.42c-4.05-0.29-7.92,0.08-10.59,3.01c-2.37-0.77-4.46-1.51-6.6-2.1
	c-0.64-0.18-1.54-0.11-2.06,0.24c-0.3,0.2-0.05,1.2-0.05,1.9c-0.22-0.01-0.58-0.03-0.94-0.05c-3.48-0.19-6.96-0.61-10.44-0.53
	c-10,0.23-19.35,2.96-27.96,8.05c-6.62,3.91-11.39,9.63-15.28,16.15c-1.43,2.38-2.95,4.75-2.65,7.71c-0.2,0.05-0.32,0.12-0.43,0.11
	c-2.32-0.07-3.11-0.97-3.49-3.67c-0.12-0.84-0.64-1.63-0.97-2.45c-0.79,0.55-1.73,0.97-2.32,1.68c-1.62,1.97-2.3,4.4-2.85,6.85
	c-0.71,3.21,0.19,5.22,3.08,6.84c-0.09,0.14-0.16,0.28-0.25,0.41c-4.43,6.32-1.44,14.49,5.97,16.32c0.29,0.07,0.66,0.26,0.77,0.5
	c0.72,1.64,2.15,2.38,3.71,2.9c0.76,0.25,1.09,0.7,1.32,1.45c0.49,1.62,0.99,3.26,1.67,4.82c2.32,5.33,4.72,10.63,7.11,16
	c-1.3,0.34-1.92,1.34-2.37,2.5c-2.3,5.97-0.86,15.41,8.48,18.11c0.9,0.26,1.26,0.68,1.42,1.58c1.34,7.76,4.89,14.34,10.65,19.73
	c3.86,3.61,8.23,6.46,12.9,8.89c2.08,1.08,4.2,2.09,6.35,3.16c-0.77,0.92-0.92,2.14-2.3,2.54c-2.19,0.63-4.32,1.47-6.43,2.33
	c-3.19,1.29-6.36,2.64-9.51,4.02c-1.1,0.47-2.28,0.94-3.15,1.71c-0.74,0.67-1.33,1.71-1.58,2.68c-0.77,2.97-1.09,6.07-2.04,8.97
	c-2.54,7.77-5.31,15.48-8.03,23.2c-0.37,1.06-0.17,1.6,0.93,1.95c1.11,0.36,2.13,0.95,3.22,1.35c1.16,0.42,1.46,1.22,1.25,2.34
	c-0.09,0.49-0.11,0.99-0.23,1.48c-1.5,6.09-2.93,12.2-4.53,18.27c-1.99,7.59-4.35,15.1-6.11,22.75c-1.27,5.53-1.7,11.26-2.74,16.86
	c-0.38,2.02-1.19,4.09-2.3,5.82c-0.92,1.43-1.94,2.76-2.43,4.42c-1,3.35-1.93,6.72-3.12,10c-0.96,2.65-1.56,5.34-1.53,8.13
	c0.01,1.29,0.26,2.69,0.84,3.82c1.16,2.24,2.95,4.02,5.08,5.39c1.54,0.98,3.16,1.23,4.84,0.27c0.21-0.12,0.56-0.19,0.78-0.11
	c1.82,0.71,4.01,0.9,4.74,3.23c0.04,0.11,0.13,0.22,0.22,0.29c0.71,0.58,1.5,1.67,2.13,1.59c1.19-0.15,1.13-1.56,1.29-2.55
	c0.45-2.78-0.63-5.18-2.07-7.4c-1.59-2.45-2.68-4.97-2.74-7.98c-0.04-1.75-0.64-3.49-0.98-5.24c0.07-0.05,0.15-0.1,0.23-0.15
	c2.19,2.38,4.38,4.75,6.47,7.02c-0.19,0.94-0.65,2.02-0.59,3.08c0.25,4.56,0.57,9.12,1.01,13.66c1.04,10.69,2.24,21.35,3.23,32.04
	c0.83,9.08,1.26,18.19,0.7,27.31c-0.25,4.03,0.19,7.78,2.72,11.11c1.19,1.55,1.65,3.43,1.78,5.38c0.11,1.57,0.12,3.17,0.39,4.72
	c1.02,5.94,2.17,11.86,3.2,17.8c1.11,6.39,2.18,12.79,3.18,19.2c0.58,3.66,0.91,7.35,1.48,11c0.24,1.54,0.8,3.02,1.29,4.81
	c-2.17,0.75-4.23,1.61-6.37,2.16c-4.54,1.17-9.09,2.34-13.69,3.21c-3.79,0.71-7.68,0.87-11.49,1.5c-2.62,0.43-5.2,1.24-7.23,3.12
	c-2.7,2.51-2.24,5.99,0.99,7.76c0.4,0.22,0.82,0.4,1.25,0.56c3.75,1.46,7.67,1.82,11.64,1.8c4.74-0.03,9.48-0.16,14.22-0.24
	c5.06-0.1,10.14-0.05,15.2-0.35c3.36-0.19,6.67-0.96,9.45-3.14c0.26-0.2,0.68-0.23,1.03-0.3c2.24-0.44,4.52-0.72,6.71-1.35
	c2.11-0.6,3.65-2.02,3.44-4.43c-0.23-2.76-0.67-5.51-1.15-8.24c-0.15-0.84-0.1-1.28,0.69-1.69c1.64-0.87,2.2-2.33,1.78-4.09
	c-0.16-0.68-0.25-1.39-0.29-2.08c-0.22-3.62-0.3-7.24-0.62-10.85c-1.12-12.51-2.29-25.02-3.48-37.53c-0.26-2.78-0.55-5.54-2.09-8.01
	c-0.71-1.15-0.54-2.5,0.01-3.74c0.45-0.98,0.93-1.95,1.37-2.93c0.55-1.23,0.56-2.45-0.21-3.58c-2.58-3.78-2.8-7.96-2.24-12.33
	c0.33-2.51,0.64-5.05,0.65-7.58c0.06-12.39,2.07-24.62,2.89-36.94c0.05-0.88,0.33-1.74,0.58-2.98c0.5,0.71,0.78,1.06,1.01,1.44
	c6.01,9.83,12.03,19.65,18.02,29.49c0.82,1.34,1.71,2.69,2.24,4.16c2.36,6.52,4.56,13.11,6.91,19.63c1.83,5.08,4.08,10,4.99,15.39
	c0.39,2.33,1.49,4.43,3.3,6.03c2.42,2.14,3.88,4.83,4.82,7.87c2.29,7.39,4.55,14.78,6.9,22.14c2.89,9.03,6.27,17.88,10.61,26.34
	c0.59,1.16,0.63,2.72,2.11,3.35c0.1,0.05,0.09,0.38,0.12,0.57c0.33,2.38,0.69,4.76,0.97,7.15c0.16,1.41,1.01,1.88,2.28,2.19
	c2.04,0.51,4.07,1.15,6.03,1.91c1.93,0.75,1.89,0.85,3.05-0.9c0.31,0.44,0.54,0.87,0.85,1.23c0.83,0.97,1.53,2.19,2.57,2.8
	c1.91,1.13,4,2,6.08,2.77c1.22,0.46,2.58,0.54,3.87,0.79h10.99c1.83-0.24,3.67-0.47,5.5-0.72c4.88-0.68,9.53-2.03,13.74-4.68
	c0.64-0.41,1.32-0.74,1.98-1.1v-2.25C208.17,445.92,206.09,444.74,203.52,444.17z M138.4,271.76c-0.46-1-0.83-2.11-0.92-3.2
	c-0.14-1.82-0.04-3.66-0.04-5.5c0.14-0.03,0.28-0.07,0.42-0.1c0.73,1.25,2.02,2.07,2.13,3.83c0.13,2.08,0.65,4.14,1.01,6.24
	C140.04,273.29,138.95,272.93,138.4,271.76z M142.78,271.15c-1.13-2.86-1.17-5.85-1.2-8.83c0.16-0.09,0.33-0.18,0.5-0.27
	c0.74,0.89,1.84,1.67,2.17,2.7c0.85,2.62,1.36,5.35,2.03,8.12C144.4,273.39,143.51,273,142.78,271.15z M149.66,272.06
	c-0.16,0.18-0.94,0.19-1.02,0.06c-1.75-3.24-2.92-6.62-2.51-10.61c1.41,0.69,2.28,1.64,2.64,2.93c0.69,2.46,1.01,3.1,2.92,4.87
	C151.03,270.22,150.39,271.18,149.66,272.06z M154.61,267.04c-0.61,0.95-1.22,1.1-2,0.26c-0.73-0.81-1.4-1.76-1.8-2.77
	c-0.45-1.09-0.55-2.32-0.81-3.49c0.14-0.07,0.28-0.13,0.42-0.2c0.47,0.71,0.94,1.41,1.39,2.12c0.49,0.78,0.91,1.59,1.44,2.33
	c0.51,0.71,1.16,1.08,2.09,0.38C155.1,266.13,154.89,266.6,154.61,267.04z M166.1,262.4c-1.01,0.14-1.95,0.23-2.87,0.4
	c-2.24,0.4-4.48,0.81-6.71,1.29c-1.24,0.26-2.12,0.12-2.71-1.21c-0.44-1.01-1.1-1.96-1.83-2.8c-1.44-1.66-2.48-1.5-3.33,0.27
	c-0.88-0.31-1.78-0.93-2.59-0.84c-0.72,0.08-1.34,0.96-1.98,1.47c-0.61-0.28-1.44-0.86-2.34-1c-1.24-0.18-1.61,0.93-2,1.95
	c-0.2-0.18-0.37-0.34-0.54-0.49c-1.2-1.05-2.43-0.83-3.13,0.61c-0.24,0.51-0.37,1.09-0.49,1.66c-0.12,0.56-0.16,1.14-0.23,1.71
	l-0.33,0.03c-0.25-2.07-0.49-4.15-0.78-6.59c4.25-0.17,8.35-0.42,12.45-0.47c3.57-0.05,7.14,0.15,10.71,0.2
	c1.54,0.02,3.08-0.04,4.61-0.1c1.66-0.05,1.9-0.38,1.71-2.08c-0.18-1.68-0.34-3.37-0.51-5.12c0.81-0.18,1.53-0.35,2.32-0.53
	C165.72,254.64,165.9,258.44,166.1,262.4z M133.6,240.83c-0.13-1.39-0.81-2.78-1.44-4.07c-0.63-1.29-0.68-2.29,0.18-3.56
	c0.62-0.93,0.82-2.21,0.96-3.37c0.12-1.05-0.1-2.14-0.19-3.61c6.15,0.08,12.12,0.23,18.08,0.19c3.22-0.03,6.44-0.4,9.88-0.63
	c0,1.34,0.02,2.9-0.01,4.46c-0.01,0.35-0.14,0.8-0.37,1.03c-1.27,1.28-1.43,2.92-1.35,4.53c0.16,3.36,0.51,6.71,0.76,10.06
	c0.06,0.79,0.07,1.58,0.01,2.37c-0.09,1.28,0.18,2.32,1.6,2.82c0,1.2-0.01,2.4,0.01,3.6c0.02,1.51-0.46,2.02-2,2.03
	c-6.02,0.06-12.05,0.08-18.07,0.19c-1.53,0.03-3.06,0.26-4.58,0.48c-2.04,0.3-2.98-0.17-3.22-2.23c-0.25-2.09-0.12-4.22-0.14-6.33
	C133.69,246.13,133.84,243.46,133.6,240.83z M161.54,234.81c-0.05-1.23,0.41-1.78,1.62-1.8c0.62,0,1.23-0.09,2.09-0.16v16.05
	c-3.14,0.65-3.29,0.56-3.39-2.63C161.73,242.45,161.68,238.63,161.54,234.81z M151.99,219.91c3.1-0.12,6.22-0.02,9.32,0.1
	c0.84,0.03,1.7,0.4,2.48,0.75c1.02,0.46,1.54,1.29,1.52,2.49c-0.04,2.61-0.01,5.22-0.01,7.98c-0.94-0.12-1.7-0.22-2.47-0.32
	c-0.35-2.13-0.69-4.21-1.02-6.19c-6.48-1.31-12.95-0.95-19.4-0.9c-2.6,0.02-5.2,0.44-7.79,0.75c-2.71,0.31-2.87,0.24-3.61-2.41
	c-0.14-0.52-0.26-1.04-0.43-1.68C137.88,221.67,144.91,220.18,151.99,219.91z M130.4,218.07c-0.54-4.21-1.03-8.42-1.56-12.62
	c-0.23-1.81-0.54-3.61-0.8-5.36c1.79-0.8,3.37-1.51,5.1-2.29c2.69,6.55,4.13,13.46,5.18,20.64c-2.46,0.16-4.87,0.35-7.29,0.45
	C130.82,218.9,130.44,218.38,130.4,218.07z M146.49,217.63c-2.16,0.3-4.31,0.59-6.43,0.89c-0.99-3.91-1.9-7.69-2.91-11.45
	c-1-3.75-2.11-7.48-3.25-11.49c1.93-0.82,4.1-1.75,6.29-2.68C142.29,201.14,144.35,209.25,146.49,217.63z M144.44,99.15
	c-1.1,3.88-3.66,6.6-7.27,8.68c0.3-3.79,0.23-7.58,4.96-8.57c-1.09-1.18-1.98-0.99-4.2,0.97c0.21-2.23,0.33-4.22,0.62-6.18
	c0.05-0.32,0.81-0.67,1.29-0.75C143.02,92.76,145.41,95.75,144.44,99.15z M146.42,69.21c-0.76,2.2-1.59,4.38-2.29,6.6
	c-1.22,3.88-2.34,7.79-3.56,11.67c-0.33,1.06-0.86,2.07-1.3,3.1c-0.16-0.05-0.33-0.11-0.49-0.16c1.01-8.09,2.03-16.18,2.99-23.9
	c0.79-0.63,1.38-1.01,1.85-1.51c0.47-0.5,0.82-1.12,1.41-1.95c0.59,1.86,1.13,3.46,1.59,5.08
	C146.71,68.45,146.54,68.87,146.42,69.21z M27.68,62.99c0.27-1.4,0.83-2.74,1.23-4.03c-1.45,1.49-1.67,2.06-2.57,6.81
	c-2.99-0.85-4.95-3.55-5.39-7.05c-0.4-3.09,1.16-5.45,2.57-7.89c0.41-0.71,0.97-1.34,1.6-2.19c-0.33,0.13-0.47,0.2-0.62,0.25
	c-0.81,0.22-1.24,1.53-2.35,0.86c-1.38-0.83-2.82-1.58-2.78-3.6c0.04-2.51,0.57-4.86,1.81-7.03c0.21-0.36,0.58-0.63,1.04-1.12
	c0.39,1.08,0.65,1.94,1,2.76c0.94,2.25,2.72,2.98,4.97,2.04c0.28-0.12,0.58-0.42,0.7-0.71c0.55-1.32,0.86-2.79,1.59-4
	c8.66-14.43,21.36-22.55,38.11-24.32c6.07-0.64,12.12-0.49,18.17,0.25c0.4,0.05,0.82,0.05,1.47,0.08c-0.41-0.91-0.79-1.67-1.09-2.46
	c-0.13-0.34-0.08-0.75-0.11-1.13c0.37,0.06,0.82,0,1.11,0.19c1.32,0.86,2.63,1.74,3.87,2.71c1.2,0.95,1.6,0.98,2.47-0.33
	c2.06-3.12,5.3-3.3,8.45-3.73c0.08,0.11,0.16,0.21,0.23,0.32c-0.33,0.31-0.63,0.66-0.99,0.92c-0.93,0.7-1.91,1.33-2.81,2.07
	c-0.26,0.22-0.4,0.71-0.38,1.07c0.01,0.14,0.6,0.36,0.92,0.36c1.62,0.02,3.25,0.02,4.87-0.04c5.19-0.17,9.97,1.44,14.74,3.26
	c6.28,2.39,12.14,5.53,16.99,10.19c2.38,2.29,4.44,4.99,6.23,7.76c1.97,3.03,4.76,3.52,7.9,3.45c0.9-0.02,1.8-0.3,2.69-0.46
	c0.01,2.1-1.85,3.87-3.95,3.86c-1.69,0-3.38,0.16-5.07,0.25c0,0.16,0,0.32-0.01,0.48c0.63,0,1.26,0.03,1.88-0.01
	c2.38-0.13,4.62,0.3,6.72,1.48c2.91,1.64,4.16,5.02,2.9,8.02c-0.16,0.39-0.47,0.71-0.8,1.19c-1.47-2.06-2.69-4.14-5.46-4.81
	c2.43,3.5,2.66,7.15,1.78,10.91c-0.5,2.14-1.57,4.04-2.95,5.88c-0.84-1.53-1.62-2.83-2.25-4.21c-0.15-0.31,0.13-0.86,0.27-1.29
	c0.49-1.47,0.8-2.93-0.01-4.74c-0.3,2.78-0.98,5.12-2.44,7.17c-0.25,0.35-0.63,0.61-0.95,0.92c-0.25-0.35-0.49-0.7-0.75-1.04
	c-0.95-1.24-1.87-2.5-2.88-3.69c-0.56-0.67-0.94-1.2-0.95-2.24c-0.01-2.36-0.65-4.6-3.11-6c1.62,4.35,1.39,8.37-1.45,12.01
	c-1.46,1.88-3.14,3.5-5.88,4.1c0.83-1.79,1.26-3.4,0.64-5.13c-0.07-0.2,0.36-0.56,0.54-0.86c0.54-0.88,1.07-1.76,1.48-2.79
	c-3.6,0.16-6.57-0.87-9.18-3.38c0.75,1.96,1.3,2.32,6.3,4.29c-2.39,2.81-12.15,4.17-17.6,0.03c0.84-0.63,1.65-1.26,2.73-2.08
	c-4.91-0.41-8.5-2.63-11.08-6.46c-0.12,1.3,0.56,2.76,2.38,4.39c1.31,1.17,2.82,2.12,4.28,3.21c-2.18,1.15-4.56,1.61-7.02,1.57
	c-4.53-0.07-8.62-1.71-12.51-3.83c-2.4-1.3-3.34-3.5-2.78-6.27c-0.11-0.02-0.21-0.05-0.32-0.07c-0.3,0.81-0.58,1.63-0.9,2.44
	c-0.18,0.48-0.32,1.02-0.64,1.39c-3.61,4.17-2.57,9.32,2.37,11.74c0.15,0.08,0.29,0.16,0.59,0.31c-3.11,1.38-6.22,1.83-9.45,1.49
	c-0.53-0.06-1.07-0.15-1.59-0.27c-4.35-0.98-6.14-3.24-5.91-7.7c0.08-1.69,0.44-3.38,0.8-5.04c0.48-2.18,1.79-3.81,3.66-5
	c0.63-0.41,1.26-0.8,1.89-1.19c-0.07-0.12-0.13-0.23-0.2-0.34c-1.11,0.71-2.36,1.27-3.29,2.16c-1.09,1.05-2.02,2.33-2.79,3.64
	c-0.54,0.92-1.11,1.56-2.15,1.87c-3.93,1.15-8.5,9.18-5.52,14.04c0.3,0.49,0.6,0.98,0.91,1.49c-3.85,0.33-7.95-1.95-9.79-7.97
	c-0.97,2.33-0.41,4.27,2.39,8.14c-2.45,0.72-4.91,0.96-7.41,0.74c-3.09-0.27-5.97-1.09-8.29-3.31c-2.11-2.03-3.18-4.43-2.59-7.42
	c0.04-0.19,0.02-0.4-0.25-0.7c-0.37,0.93-0.74,1.87-1.12,2.79c-0.34,0.83-0.61,1.7-1.06,2.46c-0.97,1.64-1.61,3.36-1.54,5.29
	C29.15,70.25,26.79,67.57,27.68,62.99z M33.08,72.74c1.05-0.16,1.92-0.28,2.83-0.42c-1.49-3.02-1.23-5.93,0.71-7.01
	c0.15,1.73,1.24,2.87,2.22,4.15c0.57,0.75,0.56,1.96,0.75,2.98c1.23,6.95,2.45,13.9,3.67,20.85c-0.1,0.04-0.2,0.07-0.3,0.1
	C39.28,86.75,35.37,80.22,33.08,72.74z M40.03,106.42c-1.11-2.65-1.09-5.44-0.5-8.21c0.13-0.58,0.42-1.29,0.87-1.58
	c0.5-0.33,1.57-0.57,1.86-0.29c0.87,0.85,1.71,1.87,2.14,2.99c0.61,1.61,0.85,3.36,1.29,5.22c-1.2-0.54-2.27-1.83-3.46-0.56
	c-0.38,0.41-0.27,1.28-0.39,1.95c0.16,0.04,0.32,0.08,0.49,0.13c0.18-0.37,0.37-0.73,0.55-1.09c3.02,1.23,4.56,4.41,4.81,8.37
	C43.98,112.26,41.49,109.88,40.03,106.42z M65.35,137.78c-6.71-4.57-11.03-10.8-13.19-18.62c-3.47-12.59-6.71-25.23-8.98-38.1
	c-0.58-3.3-1.41-6.57-2.17-10.05c5.43,3.35,10.94,3,16.54,0.94c0.49-0.18,1.14-0.17,1.64-0.01c2.27,0.75,4.58,0.81,6.89,0.36
	c0.44-0.09,0.99-0.53,1.14-0.93c0.11-0.28-0.28-0.92-0.61-1.17c-4.81-3.54-4.2-11.4,1.9-14.82c0.13-0.07,0.31-0.07,0.37-0.08
	c-0.08,1.94-0.33,3.87-0.2,5.78c0.3,4.6,3.27,7.4,7.91,7.72c3.52,0.25,6.91-0.35,10.07-1.85c1.42-0.67,2.59-1.88,4.17-3.07
	c-3.58-0.61-6.32-1.73-6.88-5.48c-0.27-1.78-0.46-3.48,1.01-4.85c3.68,6.05,9.37,8.2,16.1,8.27c2.58,0.03,4.99-0.7,7.28-1.92
	c0.34-0.18,1.02-0.24,1.28-0.03c5.22,4.27,10.98,4.11,16.98,2.13c0.23-0.08,0.45-0.15,1-0.33c-0.11,0.98-0.12,1.79-0.32,2.55
	c-0.2,0.75-0.63,1.44-0.91,2.18c-0.19,0.51-0.55,1.34-0.36,1.53c0.38,0.38,1.16,0.64,1.68,0.52c1.23-0.29,2.53-0.63,3.57-1.31
	c3.07-1.99,5.28-4.77,6.72-8.29c1.85,2.4,3.42,4.71,2.74,8.03c-2.87,14.07-4.83,28.28-6.42,42.54c-0.47,4.31-1.26,8.56-2.84,12.62
	c-1.65,4.27-4.12,7.96-7.6,10.96c-5.96,5.16-12.51,9.53-19.83,12.31c-8.3,3.14-16.81,3.19-25.31-0.16
	C73.9,143.25,69.58,140.66,65.35,137.78z M97.99,150.25c-2.01,7.02-4.05,14.13-6.11,21.24c-0.04,0.14-0.3,0.22-0.4,0.29
	c-2.45-7.25-4.88-14.45-7.27-21.53H97.99z M47.77,193.37c0.75-2.88,1.36-5.77,2.26-8.56c2.09-6.48,4.33-12.9,6.5-19.35
	c0.21-0.63,0.35-1.28,0.52-1.93c0.56-2.15,1.85-3.63,3.93-4.52c4.61-1.98,9.19-4.05,13.79-6.08c0.37-0.16,0.76-0.25,1.14-0.37
	c-3.51,12.38-3.78,24.79-1.34,37.36c-0.01,0.01-0.04,0.12-0.1,0.14c-3.56,1.6-5.22,4.43-5.48,8.25c-0.69,10.02-0.4,19.96,2.18,29.73
	c0.57,2.16,1.49,4.22,2.25,6.33c0.06,0.15,0.14,0.3,0.23,0.44c2.41,3.88,3.99,4.17,7.61,2.05c1.03-0.61,2.18-1.05,3.12-1.77
	c0.55-0.41,0.91-1.19,1.12-1.88c0.07-0.21-0.77-1.02-1.01-0.94c-0.82,0.23-1.91,0.56-2.26,1.19c-0.92,1.65-2.45,2.16-4,2.62
	c-0.39,0.11-1.22-0.44-1.49-0.9c-0.87-1.49-1.77-3.02-2.32-4.65c-2.03-6.07-3.06-12.36-3.46-18.72c-0.24-3.84-0.14-7.72,0-11.57
	c0.04-1.33,0.51-2.7,1.01-3.96c1.52-3.77,5.15-5.21,8.91-3.63c2.81,1.19,4.8,3.37,6.2,5.94c2.52,4.63,4.84,9.38,7.16,14.11
	c1.58,3.21,3.17,6.42,4.46,9.74c1.43,3.71,0.05,6.43-3.71,7.77c-1.06,0.38-2.24,0.38-3.33,0.68c-0.54,0.15-1.25,0.5-1.41,0.94
	c-0.17,0.44,0.07,1.3,0.44,1.61c0.36,0.31,1.24,0.42,1.67,0.19c1.97-1.05,3.91-2.16,5.77-3.39c3.09-2.04,4.06-4.81,2.78-8.3
	c-1.13-3.12-2.37-6.22-3.81-9.21c-2.45-5.09-5.01-10.13-7.68-15.1c-0.87-1.63-2.11-3.11-3.38-4.47c-2.72-2.91-5.96-4.65-10.18-3.6
	c-0.71-11.13-1.61-22.09,1.49-32.89c0.72-2.51,1.7-4.83,3.23-6.92c0.2-0.28,0.68-0.63,0.91-0.55c0.53,0.17,1.38,0.54,1.42,0.9
	c0.65,6.05,3.49,11.43,5.26,17.13c0.52,1.69,1.32,3.31,2.12,4.89c0.3,0.59,0.98,0.99,1.62,1.6c1.74-4.82,3.42-9.29,4.96-13.81
	c1.07-3.14,1.99-6.33,2.88-9.53c0.27-0.98,0.79-0.98,1.56-0.86c0.89,0.13,1.81,0.27,2.71,0.24c0.8-0.03,1.26,0.2,1.7,0.9
	c3.27,5.2,5.26,10.91,6.71,16.84c2.3,9.41,3.42,18.98,4.18,28.61c0.03,0.41,0,0.83,0,1.25c-2.93-0.31-4.91,1.32-6.24,3.51
	c-2.58,4.25-3.06,8.84-1.2,13.52c0.37,0.94,1.03,1.82,1.74,2.56c2.32,2.38,5.31,2.25,7.5-0.26c2.18-2.5,2.75-5.56,2.88-8.71
	c0.13-3.22-0.33-6.32-2.48-8.94c-0.17-0.22-0.19-0.61-0.2-0.93c-0.17-11.91-2.04-23.6-4.53-35.21c-1.03-4.78-2.74-9.34-6.01-13.14
	c-0.07-0.08-0.08-0.22-0.13-0.36c3.28-0.87,6.58-0.99,9.89-0.53c0.66,0.1,1.41,0.62,1.84,1.17c2,2.53,4.07,5.05,5.83,7.76
	c3.86,5.97,7.54,12.05,11.31,18.08c0.33,0.53,0.77,0.99,1.16,1.47c1.36,1.7,2.97,3.11,3.55,5.47c0.42,1.66,1.92,3.06,2.95,4.59
	c-5.59,3.18-11.21,6.39-16.96,9.66c-0.84-3.95-1.56-7.62-2.42-11.25c-0.4-1.69-0.32-3.31-0.17-5.03c0.2-2.38-0.06-4.8-0.18-7.21
	c-0.06-1.19-0.23-2.38-0.35-3.58h-0.48v8.73c-0.16,0.01-0.32,0.02-0.48,0.04c-0.91-3.21-1.81-6.42-2.72-9.62
	c-0.09,0-0.18,0.01-0.26,0.02c0,1.03-0.15,2.08,0.02,3.08c2.61,15.45,5.26,30.9,7.9,46.36c0.33,1.92,0.64,3.85,0.97,5.78
	c0.06,0.3,0.19,0.82,0.36,0.85c1.67,0.29,1.41,1.84,1.81,2.87c0.46,1.19,0.31,2.44-0.65,3.48c-0.39,0.43-0.69,0.95-0.95,1.46
	c-0.52,1.03-0.89,1.83,0.03,3.12c0.85,1.21,1,3.05,1.11,4.63c0.35,4.68,0.12,9.45,0.91,14.04c0.66,3.86,0.95,7.73,1.42,11.59
	c0.23,1.93-0.18,2.55-2.01,3.11c-16.01,4.96-32.36,7.04-49.1,5.88c-7.34-0.5-14.46-2.06-21.4-4.52c-1.99-0.71-4.11-1.02-6.11-1.69
	c-2.07-0.69-2.26-1.26-1.78-3.36c1.58-6.8,3.07-13.62,4.71-20.41c0.79-3.26,1.83-6.47,2.77-9.74c0.38,0.24,0.69,0.57,1.06,0.63
	c0.35,0.07,0.85-0.03,1.11-0.25c0.18-0.16,0.2-0.72,0.06-0.99c-0.65-1.25-1.33-2.49-2.1-3.67c-0.41-0.63-0.56-1.1,0.09-1.57
	c2.62-1.91,3.08-4.62,3.28-7.66c0.56-8.46,1.43-16.91,2.01-25.38c0.27-3.93,0.11-7.89,0.21-11.83c0.12-4.11,0.33-8.22,0.49-12.33
	c0-0.12-0.02-0.24-0.19-0.39c-0.29,1.34-0.59,2.69-0.92,4.22c-0.88-2.79-0.56-5.73-2.37-8.07c0.26,1.49,0.55,2.98,0.77,4.47
	c0.87,5.82,1.02,11.66,0.4,17.52c-0.21,1.94-0.37,3.9-0.41,5.85c-0.03,1.21-0.51,1.61-1.66,1.51c-3.76-0.32-7.36-1.25-10.84-2.68
	C50.19,194.56,48.97,193.93,47.77,193.37z M114.92,204.24c-0.8,2.69-1.05,5.39,0.3,8c0.78,1.5,1.49,1.78,3.24,1.35
	c-0.58,1.49-1.18,2.89-2.76,3.35c-1.49,0.44-2.78-0.3-3.6-1.44c-0.79-1.11-1.47-2.43-1.77-3.75c-0.71-3.02-0.44-6.03,1.01-8.84
	c1.39-2.71,3.35-3.38,6.45-2.07C115.99,201.43,115.36,202.79,114.92,204.24z M118.36,210.78c-0.1,0.27-0.44,0.68-0.6,0.65
	c-0.37-0.07-0.89-0.3-0.99-0.59c-0.29-0.85-0.53-1.75-0.57-2.64c-0.1-1.93,0.29-3.76,1.37-5.59
	C119.45,205.34,119.35,208.03,118.36,210.78z M51.32,270.27c0.14,0.1,0.21,0.46,0.15,0.64c-0.58,1.9-1.18,3.78-2.04,5.66
	c-0.38-1.79-0.88-3.56-1.11-5.36c-0.38-2.85-1.36-5.47-2.61-8.02c-1.03-2.1-1.02-4.27-0.3-6.43c1.16-3.46,2.62-6.84,3.58-10.35
	c1.45-5.28,2.81-10.61,3.74-16c0.64-3.66,0.5-7.46,0.69-11.2c0.35-6.65,2.7-12.71,5.49-18.64c0.14-0.3,0.68-0.53,1.06-0.55
	c1.1-0.07,2.22-0.03,3.5-0.03c-0.21,2.44-0.5,4.95-0.62,7.48c-0.28,5.93-0.52,11.87-0.68,17.81c-0.03,1.08-0.29,1.82-1.16,2.41
	c-0.44,0.3-0.85,0.66-1.27,1.01c-1.77,1.49-1.89,2.46-0.63,4.36c0.22,0.34,0.39,0.89,0.27,1.23c-3.34,9.29-5.58,18.87-7.58,28.52
	c-0.29,1.37-0.84,2.69-1.18,4.06C50.31,268.09,50.04,269.34,51.32,270.27z M46.75,281.29c-1.73-1.82-3.31-3.89-6.04-4.61
	c0,0.77-0.08,1.44,0.01,2.08c0.45,3.37,0.75,6.77,1.49,10.07c0.35,1.55,1.54,2.92,2.38,4.35c0.98,1.67,1.8,3.37,1.49,5.57
	c-0.27-0.24-0.5-0.38-0.63-0.58c-0.75-1.2-1.45-2.42-2.21-3.61c-0.68-1.05-1.27-2.21-2.15-3.05c-1.45-1.37-1.89-3.05-2.14-4.9
	c-0.47-3.47-1.01-6.94-1.61-10.45c-0.03,0.54-0.1,1.09-0.08,1.63c0.11,3.41,0.11,6.83,0.41,10.22c0.15,1.61,0.89,3.16,1.28,4.47
	c-3.24-1.08-4.4-4.18-5.19-7.46c-0.41-1.67-0.53-3.43-0.76-5c-0.19,4.05,0.16,8.16,2.13,12.22c-2.51-2.48-4.01-5.33-4.8-8.65
	c-0.71,4.11,1.57,8.49,5.9,11.3c-0.23,0.03-0.38,0.1-0.48,0.06c-3.25-1.55-5.95-3.73-6.58-7.42c-0.29-1.75,0.11-3.72,0.6-5.48
	c0.78-2.79,1.97-5.47,2.84-8.24c1.39-4.43,2.41-6.32,5.43-9.52c-0.08-0.36-0.26-0.68-0.21-0.96c0.67-3.5,1.51-6.97,2.04-10.49
	c1.58-10.37,3.88-20.56,6.84-30.63c1.99-6.76,3.29-13.73,4.83-20.62c0.28-1.28,0.19-2.64,0.27-3.99c2.07,0.67,4.12,1.32,6.26,2.01
	c-2.06,3.34-3.21,7.1-4.46,10.84c-1.43,4.23-2.12,8.57-2.09,12.99c0.07,7.64-1.66,14.93-3.94,22.13c-1.15,3.64-2.38,7.26-3.78,10.82
	c-1.27,3.22-0.86,6.2,0.43,9.29c0.99,2.36,1.73,4.83,2.51,7.27c0.81,2.53,1.56,5.08,2.29,7.63c0.23,0.82,0.33,1.67,0.52,2.62
	C47.99,283.15,47.51,282.09,46.75,281.29z M87.69,447.9c-1.47,0.44-2.96,0.79-4.48,1.19c-0.02-0.24,0-0.53-0.07-0.8
	c-0.27-0.95-1.22-1.27-1.8-0.5c-2.85,3.84-7.01,4.3-11.26,4.44c-6.03,0.21-12.06,0.35-18.08,0.42c-4.74,0.06-9.48,0.13-14.21-0.08
	c-2.5-0.11-5-0.72-7.46-1.28c-1-0.23-2.37-0.78-2.24-1.98c0.09-0.9,0.97-1.88,1.76-2.5c2.94-2.31,6.5-2.79,10.08-3.18
	c7.78-0.84,15.47-2.12,22.73-5.25c1.94,0.29,3.4-1.19,5.17-1.42c3.06-0.4,5.77,0.41,7.95,2.7c0.66,0.69,1.26,1.44,1.94,2.1
	c0.25,0.24,0.68,0.27,1.02,0.4c0.1-0.37,0.37-0.8,0.27-1.11c-0.37-1.12-0.87-2.21-1.46-3.65c3.85-0.25,7.72-0.49,11.47-0.73
	c0.26,2.92,0.52,5.59,0.73,8.26C89.88,446.53,89.28,447.41,87.69,447.9z M150.63,434.04c-2.32-5.64-4.98-11.17-6.98-16.92
	c-3.39-9.73-6.4-19.59-9.54-29.4c-1.25-3.94-2.95-7.6-5.97-10.52c-2.02-1.96-2.93-4.37-3.42-7.16c-0.49-2.79-1.5-5.52-2.5-8.19
	c-1.81-4.82-3.79-9.58-5.69-14.37c-0.15-0.38-0.29-0.75-0.44-1.13c0.09-0.05,0.18-0.09,0.27-0.14c3.36,6.06,6.71,12.11,10.07,18.17
	c0.09-0.03,0.17-0.07,0.26-0.1c-0.56-1.5-0.95-3.09-1.7-4.49c-6.95-12.78-13.91-25.56-20.97-38.28
	c-3.57-6.44-7.24-12.82-11.09-19.08c-3.52-5.71-8.62-9.88-14.25-13.38c-2.38-1.48-4.92-2.71-7.38-4.06c-0.1,0.14-0.2,0.28-0.3,0.42
	c1.43,1.1,2.8,2.28,4.3,3.28c3.54,2.35,7.03,4.72,10.03,7.79c2.41,2.47,3.44,4.78,2.31,8.52c-1.37,4.57-1.65,9.49-2.22,14.27
	c-0.66,5.54-1.22,11.09-1.64,16.65c-0.34,4.64-0.45,9.31-0.57,13.96c-0.06,2.7-0.15,5.44,0.2,8.1c0.23,1.79,1.06,3.56,1.91,5.19
	c0.64,1.21,0.88,2.3,0.39,3.54c-0.47,1.2-0.98,2.38-1.44,3.59c-0.6,1.56-0.51,3.02,0.36,4.53c1.71,2.99,2.18,6.35,2.48,9.71
	c1.18,13.56,2.33,27.11,3.48,40.66c0.18,2.12,0.29,4.24,0.52,6.35c0.12,1.06-0.27,1.68-1.25,1.92c-1.25,0.29-2.51,0.71-3.78,0.74
	c-5.19,0.12-10.38,0.1-15.57,0.15c-1.09,0.01-1.66-0.51-1.81-1.58c-0.63-4.32-1.25-8.64-1.94-12.95
	c-1.12-7.02-2.31-14.03-3.45-21.05c-1.09-6.68-2.17-13.38-3.23-20.07c-0.1-0.57-0.11-1.16-0.15-1.74c-0.13-2.19-0.54-4.29-1.87-6.11
	c-0.27-0.37-0.44-0.81-0.71-1.18c-1.75-2.42-2.14-5.1-1.9-8.04c0.7-8.61,0.45-17.23-0.46-25.81c-1.27-12.03-2.84-24.04-4.17-36.08
	c-0.38-3.46-0.49-6.97-0.53-10.46c-0.01-1.05,0.49-2.18,1.02-3.13c0.9-1.61,1.24-3.07,0.22-4.8c-0.41-0.69-0.41-1.78-0.24-2.63
	c0.49-2.59,1.16-5.16,1.78-7.83c0.32,0.12,0.89,0.33,1.46,0.56c10.36,4.17,21.07,6.65,32.28,6.62c12.96-0.04,25.84-0.85,38.45-4.12
	c1.65-0.42,3.23-1.08,4.86-1.56c1.17-0.35,2.37-0.61,3.6-0.91c0.48,1.18,0.93,2.11,1.25,3.09c0.44,1.35,0.15,2.57-1.02,3.46
	c-0.99,0.76-2.08,1.39-3.03,2.19c-0.87,0.75-1.71,1.58-2.4,2.49c-0.51,0.68-0.51,1.6,0.34,2.07c0.94,0.51,1.18-0.35,1.66-0.96
	c0.77-0.97,1.75-1.79,2.69-2.73c2.52,8.51,3.61,16.99,4.86,25.44c0.96,6.5,1.96,13,2.85,19.51c0.51,3.78,0.68,7.62,1.32,11.38
	c0.93,5.48,2.14,10.92,3.23,16.37c0.1,0.48,0.24,0.94,0.64,1.38c-0.07-1.33-0.13-2.65-0.21-3.98c-0.07-1.37-0.15-2.74-0.22-4.11
	c0.1-0.05,0.21-0.1,0.31-0.15c0.71,1.51,1.54,2.97,2.09,4.54c0.9,2.54,0.98,5.17,0.71,7.87c-0.23,2.34-0.04,4.72-0.04,7.08
	c0.1,0.02,0.21,0.03,0.32,0.04c0.24-1.43,0.47-2.85,0.71-4.28c0.12-0.03,0.23-0.06,0.35-0.09c1.07,2.97,2.4,5.87,3.14,8.92
	c1.48,6.06,2.47,12.23,3.96,18.28c1.88,7.62,4.05,15.17,6.14,22.74c1.66,6.01,3.4,12,5.11,17.99c0.4,1.39-0.46,2.36-1.33,2.99
	c-1.7,1.23-3.5,2.48-5.46,3.13c-1.71,0.57-3.7,0.33-5.56,0.42c-0.54,0.02-1.09-0.18-1.61-0.1
	C152.51,436.76,151.36,435.82,150.63,434.04z M205.78,450.55c-10.18,4.4-20.76,5.74-31.71,4.05c-4.08-0.62-7.08-3.13-9.85-5.96
	c-0.17-0.18-0.33-0.38-0.51-0.56c-0.83-0.82-1.21-0.75-1.78,0.3c-0.11,0.21-0.21,0.44-0.28,0.6c-1.89-0.72-3.61-1.45-5.39-2.01
	c-1.12-0.35-2.05-0.92-2.41-1.98c-0.63-1.85-1.05-3.78-1.54-5.6c3.17-0.38,6-0.71,8.86-1.05c0.12,0.32,0.31,0.82,0.5,1.31
	c0.25-0.1,0.39-0.12,0.39-0.16c0.11-1.68,1.31-2.28,2.66-2.85c1.1-0.48,2.11-1.16,3.13-1.79c1.67-1.02,2.33-0.93,3.6,0.57
	c0.03,0.03,0.05,0.07,0.08,0.09c0.49,0.26,0.98,0.69,1.47,0.69c0.26-0.01,0.51-0.77,0.85-1.33c0.73,0.59,1.61,1.2,2.37,1.95
	c1.89,1.88,4.16,3.17,6.57,4.22c5.82,2.55,11.87,4.24,18.22,4.87c1.33,0.13,2.66,0.6,3.93,1.08c0.57,0.22,1.08,0.78,1.47,1.3
	C207.36,449.58,207.25,449.92,205.78,450.55z"/>
<path d="M110.15,117.08c-1.88,0.96-3.68,2.11-5.62,2.95c-7.29,3.16-14.99,4.88-22.82,5.99c-4.27,0.6-8.67,1.1-12.2-2.44
	c-0.11,0.06-0.23,0.11-0.34,0.17c0.1,0.34,0.09,0.77,0.31,1c0.56,0.6,1.15,1.21,1.85,1.64c2.19,1.33,4.43,2.58,6.65,3.86
	c2.91,1.67,5.94,2.97,9.33,3.28c4.9,0.44,9.01-1.46,12.79-4.33c4.16-3.18,7.54-7.13,10.97-11.05c0.27-0.31,0.3-0.84,0.44-1.28
	C111.05,116.94,110.54,116.89,110.15,117.08z M93.38,131.45c-2.21,1.07-4.58,1.1-6.96,0.64c-3.68-0.71-6.89-2.52-10.4-4.42
	c10.68-0.4,20.75-1.9,30.24-6.33C102.47,125.38,98.39,129.03,93.38,131.45z"/>
<path d="M110.23,89.02c-1.33-1.65-3.07-1.58-3.95,0.33c-0.62,1.36-0.83,2.91-1.23,4.38c0.26,2.53,0.88,4.8,1.95,6.22
	c1.3,1.72,3.02,1.62,4.09-0.24C112.67,96.96,112.24,91.5,110.23,89.02z M110.77,93.91c-0.13,0.27-0.43,0.59-0.68,0.61
	c-0.23,0.02-0.67-0.29-0.72-0.51c-0.16-0.86-0.26-1.75-0.26-2.62c0-0.28,0.45-0.81,0.62-0.78c0.33,0.06,0.73,0.36,0.89,0.67
	c0.23,0.46,0.29,1.02,0.4,1.45C110.93,93.2,110.93,93.59,110.77,93.91z"/>
<path d="M69.52,91.27c-1.16-1.21-2.63-1.08-3.42,0.39c-0.52,0.96-0.87,2.07-1.02,3.16c-0.35,2.49,0.05,4.89,1.32,7.1
	c0.57,0.99,1.29,1.95,2.59,1.84c1.3-0.1,1.89-1.15,2.21-2.25c0.33-1.15,0.49-2.35,0.63-3.03C71.64,95.52,71.31,93.13,69.52,91.27z
	 M70.5,96.3c-0.02,0.29-0.44,0.78-0.63,0.76c-0.33-0.03-0.74-0.34-0.9-0.65c-0.24-0.45-0.29-1.01-0.42-1.52
	c0.03-0.01,0.06-0.02,0.1-0.02c0-0.17-0.06-0.37,0.01-0.49c0.23-0.44,0.52-0.85,0.78-1.27c0.33,0.33,0.83,0.62,0.94,1.01
	C70.56,94.82,70.56,95.58,70.5,96.3z"/>
<path d="M97.44,112.52c-1.36,2.64-3.42,4.54-6.29,5.52c-1.93,0.66-3.85,0.59-5.71-0.26c-1.89-0.88-2.63-2.22-2.47-4.3
	c0.4-5.26,0.77-10.52,1.18-15.78c0.02-0.29,0.24-0.56,0.36-0.84c0.15,0.02,0.3,0.04,0.46,0.06c0.13,1.46,0.38,2.93,0.36,4.39
	c-0.04,3.07-0.25,6.14-0.34,9.21c-0.03,1.12-0.1,2.27,0.16,3.34c0.62,2.57,2.81,3.73,5.36,3.04c2.36-0.64,4.04-2.22,5.66-3.92
	c0.29-0.31,0.64-0.55,0.96-0.82C97.23,112.28,97.34,112.4,97.44,112.52z"/>
<path d="M99.83,135.22c-0.24,0.57-0.33,1.28-0.73,1.69c-2.98,3.1-8.75,3.66-12.29,1.27c-0.35-0.24-0.64-0.56-1.19-1.05
	c0.57-0.03,0.83-0.12,1.01-0.04c4.12,1.85,7.83,0.58,11.48-1.42C98.61,135.4,99.25,135.37,99.83,135.22z"/>
<path d="M112.56,81.72c-0.45-0.07-1.04,0.01-1.33-0.24c-1.36-1.15-2.78-1.08-4.3-0.45c-0.99,0.41-1.83,0.03-2.19-0.93
	c-0.38-1.02,0.07-1.57,1.04-1.83l2.01-0.54c1.95,0.2,3.64,0.76,4.57,2.6C112.56,80.72,112.5,81.25,112.56,81.72z"/>
<path d="M69.7,83.26c-0.01,1.48-1.13,2.26-2.31,1.78c-1.53-0.63-2.94-0.67-4.3,0.44c-0.31,0.26-0.88,0.18-1.33,0.25
	c0.05-0.46-0.01-0.99,0.19-1.39c1.2-2.35,5.04-3.28,7.26-1.76C69.47,82.76,69.61,83.14,69.7,83.26z"/>
<path d="M155.01,249.22c-1.05-1.94-1.21-20.81-0.19-21.71C156.44,230.78,156.59,248.21,155.01,249.22z"/>
<path d="M147.29,248.12c-0.17,0.33-0.42,0.63-0.63,0.95c-0.2-0.31-0.54-0.6-0.56-0.92c-0.22-2.65-0.48-5.3-0.53-7.96
	c-0.05-3.32,0.07-6.65,0.15-9.98c0.01-0.45,0.22-0.9,0.34-1.34c0.18,0.04,0.36,0.08,0.54,0.12c0.23,2.68,0.56,5.36,0.65,8.05
	c0.13,3.48,0.06,6.97,0.08,10.46C147.33,247.71,147.37,247.95,147.29,248.12z"/>
<path d="M140.7,246.29c0,0.79,0.05,1.58-0.02,2.36c-0.03,0.31-0.33,0.58-0.51,0.87c-0.19-0.26-0.53-0.52-0.55-0.8
	c-0.33-3.44-0.62-6.87-0.91-10.31c-0.14-1.7-0.28-3.4-0.36-5.1c-0.02-0.38,0.24-0.76,0.37-1.14c0.19,0.32,0.51,0.63,0.55,0.97
	c0.53,4.37,1.03,8.75,1.54,13.13C140.77,246.27,140.74,246.28,140.7,246.29z"/>
<path d="M144.17,242.85c0.02,0.38-0.37,0.78-0.57,1.17c-0.19-0.36-0.51-0.72-0.55-1.1c-0.2-1.73-0.34-3.46-0.45-5.2
	c-0.13-1.9-0.21-3.8-0.26-5.71c-0.02-0.4,0.15-0.81,0.23-1.22c0.16,0.01,0.32,0.02,0.48,0.03c0.16,0.7,0.42,1.4,0.48,2.11
	C143.78,236.24,144,239.54,144.17,242.85z"/>
<path d="M151.97,246.12c-0.82-2.19-0.58-15.73,0.27-16.85C152.34,235.09,152.71,240.62,151.97,246.12z"/>
</svg>
