<?xml version="1.0" encoding="utf-8"?>
<!-- Generator: Adobe Illustrator 24.0.1, SVG Export Plug-In . SVG Version: 6.00 Build 0)  -->
<!DOCTYPE svg PUBLIC "-//W3C//DTD SVG 1.1//EN" "http://www.w3.org/Graphics/SVG/1.1/DTD/svg11.dtd" [
	<!ENTITY ns_extend "http://ns.adobe.com/Extensibility/1.0/">
	<!ENTITY ns_ai "http://ns.adobe.com/AdobeIllustrator/10.0/">
	<!ENTITY ns_graphs "http://ns.adobe.com/Graphs/1.0/">
	<!ENTITY ns_vars "http://ns.adobe.com/Variables/1.0/">
	<!ENTITY ns_imrep "http://ns.adobe.com/ImageReplacement/1.0/">
	<!ENTITY ns_sfw "http://ns.adobe.com/SaveForWeb/1.0/">
	<!ENTITY ns_custom "http://ns.adobe.com/GenericCustomNamespace/1.0/">
	<!ENTITY ns_adobe_xpath "http://ns.adobe.com/XPath/1.0/">
]>
<svg version="1.1" id="Camada_1" xmlns:x="&ns_extend;" xmlns:i="&ns_ai;" xmlns:graph="&ns_graphs;"
	 xmlns="http://www.w3.org/2000/svg" xmlns:xlink="http://www.w3.org/1999/xlink" x="0px" y="0px" viewBox="0 0 1080 1080"
	 style="enable-background:new 0 0 1080 1080;" xml:space="preserve">
<style type="text/css">
	.st0{fill:#FFFFFF;stroke:#000000;stroke-miterlimit:10;}
	.st1{stroke:#000000;stroke-miterlimit:10;}
	.st2{fill:#FFFFFF;}
</style>
<metadata>
	<sfw  xmlns="&ns_sfw;">
		<slices></slices>
		<sliceSourceBounds  bottomLeftOrigin="true" height="419.5" width="274.7" x="13.4" y="658.4"></sliceSourceBounds>
	</sfw>
</metadata>
<g id="fill">
	<path class="st0" d="M227.4,344.3c-0.9-0.9-4.5-1.8-8.2-2.3c-7.2-0.9-8.7-0.1-10.2,4.5c-0.8,2.1-0.1,2.6,4.9,4.9
		c5.5,2.5,5.7,2.5,9.5,0.5C228,349.7,229.6,346.5,227.4,344.3z"/>
	<path class="st0" d="M175.3,173.9c0.3-0.3,1.4-3.9,2.4-8.1c1-4.1,2.5-8.6,3.3-10c1.5-2.3,1.4-2.5-0.4-2.5
		c-3.6,0.1-4.8,2.9-5.3,12.2C175,170.4,175,174.2,175.3,173.9z"/>
	<path class="st0" d="M244,353.9c2.4-4.8,3.9-11.6,2.5-11.6c-1.7,0-6,4-8,7.3c-1.8,3.1-1.8,3.2,0.9,4.4c1.4,0.6,2.6,1.7,2.6,2.5
		S242.9,356.2,244,353.9z"/>
	<path class="st0" d="M186.3,367.6c3-1.5,7-4.5,9-6.7c2.7-2.9,3.6-3.3,3.6-1.8c0,1.6,0.3,1.7,1.6,0.6c1.6-1.4,2.3-3.8,0.9-2.9
		c-0.4,0.3-3.5,0.1-6.6-0.4c-6.7-1.1-12.7,1.1-14.8,5.3c-0.6,1.4-2.3,3.7-3.6,5.2c-1.4,1.3-2.5,3.8-2.5,5.3v2.8l3.6-2.3
		C179.4,371.4,183.4,369.1,186.3,367.6z"/>
	<path class="st0" d="M157.2,322.9c0,0-33.9-7.1-32.4-7c1.8,0.1,1.8,0.1,0,0.6c-1.5,0.4-1.9,1.6-1.9,5.9c0,5.1,0.1,5.4,2.4,4.9
		c1.3-0.3,8.1-1.2,15.1-1.9c12-1.2,15.2-2.3,10.8-3.5c-1.3-0.3-1-0.5,0.9-0.6C153.6,321.2,156,321.9,157.2,322.9
		c2.6,1.2,2.7,1.7,1.9,11.1l-0.8,9.7C158.4,343.8,160.7,324.6,157.2,322.9z M146.9,320.7c-3,0-16.8-2.6-18.8-3.6
		c-2.3-1.2,10.7,0.5,16.1,2.1C147.3,320,148.4,320.7,146.9,320.7z"/>
	<path class="st0" d="M191.4,373.1c-6.4,3.2-6.6,6.3-0.6,8.1c4.1,1.2,5.6,1.3,11.7,0.4c4.2-0.5,5-1.1,5-3.1c0-1.9-1.2-2.8-6.4-4.8
		C195.2,371.6,194.4,371.6,191.4,373.1z"/>
	<path class="st0" d="M225.5,377.9c10-7.9,15.1-12.7,15.8-15.3c0.4-1.6,0.2-1.8-0.6-1c-0.6,0.6-3.3,1.2-5.8,1.2
		c-2.6,0-4.6,0.3-4.6,0.9c0,0.4-1.4,1.6-3,2.6c-3.3,1.8-9,11.3-9,15.1C218.2,383.3,219.1,382.9,225.5,377.9z"/>
	<path class="st0" d="M123.4,156.2c1.9-0.8,4.2-2.4,5.1-3.5c1.5-1.9,1.5-1.9-1.3-0.1c-1.9,1.3-4.4,1.8-7.3,1.5
		c-4.5-0.3-5.5,0.5-2.4,2.4c1,0.5,1.5,1,2.1,1c0.6,0.1,1.4-0.2,3.1-1C122.9,156.4,123.2,156.3,123.4,156.2z"/>
	<path class="st0" d="M171.9,39.6c3.8,2.5,9,6.7,11.7,9.5c2.7,2.7,5,4.5,5.2,4c0.2-0.5-1.1-4.1-2.8-7.9c-3.8-8.5-9.5-13.9-14.6-13.9
		h-3.5l3.9,2.1c2.2,1.1,4.4,2.7,5.2,3.7c0.8,0.9-1.1,0.3-4.1-1.3c-3.8-1.9-5.7-2.5-6.6-1.7C165.6,34.8,167.3,36.5,171.9,39.6z"/>
	<path class="st0" d="M89,90.3l0.8,3.5c1,4.5,2.8,6.7,8,9.1c6.5,2.9,6.7,2.8,6.2-4.5c-0.5-8,1-10.4,3.5-5.5c1,1.8,3.1,4.1,4.9,5
		c4.4,2.3,5.7,2.2,4.4-0.4c-1.4-2.7-1.4-7.8,0-11.6l1.1-2.9l1.8,3.6c1,1.9,3,4.1,4.5,4.9c1.5,0.8,4.3,2.2,6.3,3.1
		c3.5,1.8,3.6,1.8,4.6-1c1.8-4.8,1.2-10-1.7-15.8c-1.5-3-2.6-5.7-2.3-5.9c0.8-0.8,4.6,6.3,6.2,11c2.4,7.5,12.2,15.4,18.9,15.6
		c9.3,0.1,16.2,5.6,17.3,13.6c0.4,2.9,1.5,6.5,2.5,8l1.7,2.7l0.6-3.2c1.1-5,3.1-8.1,6-9.3c3.9-1.5,4.5-1.3,7.5,1.6l2.7,2.7l1.2-2.9
		c0.6-1.6,1.4-8.3,1.7-14.8c1-22.4-4.1-36.4-17.4-48.8c-9.9-9.3-18.4-13.5-33-16.5c-17.7-3.7-33-1.7-43.6,5.5
		C98.9,39.7,90.7,50.4,90.7,53c0,2.3,0.4,2.5,3.3,0.9c1.2-0.6,2.1-0.8,2.1-0.2c0,0.5-2.6,2.2-5.8,3.8c-10.2,5-17.9,17.4-17.9,28.7
		c0,5.8,3.8,14.5,8.1,18.6c2.5,2.4,2.7,2.4,2.8,0.4c0.3-5.5,0.9-7,3.1-10.8L89,90.3z"/>
	<path class="st0" d="M102,132.2c1.4-0.4,2.9-0.1,3.3,0.6c0.4,0.6,1,1,1.3,0.8c0.3-0.3-0.3-1.8-1.3-3.3c-2.2-3.2-5.2-3.2-5.6,0.1
		C99.4,132.3,99.8,132.5,102,132.2z"/>
	<path class="st0" d="M172,356.7c-1.6,1.6-1.6,1.8,0.9,2.8c3.7,1.5,4.9,1.4,6.3-0.3c1-1.2,0.5-1.7-2.1-2.8
		C174.3,355.2,173.6,355.2,172,356.7z"/>
	<path class="st0" d="M192.3,207.6c3-4.5,5.4-9.2,5.4-10.2c0-3.5-13.5-10.6-20.1-10.6c-2.7,0-6.5,5.5-5.5,8c0.3,0.8-1.4,2.9-3.7,4.9
		c-5.4,4.4-9.7,8.4-17.9,16.5l-6.6,6.5l-4.5-2.3c-6.6-3.3-12.9-2.7-15.3,1.6c-2.3,4-4,10.6-2.1,8.1c1-1.3,1.1-1.1,0.5,1.1
		c-1.5,5.9-1.8,11.7-0.6,12.3c0.8,0.4,1.2-0.1,1.2-1.4c0-2.6,2.1-8.2,2.7-7.5c0.3,0.3,0,3.3-0.8,6.7c-1,4.6-1,6.5,0,7.5
		c1,1,1.3,0.2,1.3-3.1c0-2.4,0.8-5.3,1.7-6.4c1.6-2.1,1.7-2.1,1,0.6c-1.6,5.6-1.8,9.6-0.5,11.1c1.1,1.3,1.7,1.1,4-1.6
		c2.4-2.8,3.1-3.1,7.3-2.6c5.5,0.8,8.6-0.6,10.9-5c1.1-2.1,4.4-4.6,10.4-7.8C174.6,227,186,217.3,192.3,207.6z"/>
	<path class="st0" d="M169.6,153.9c-0.9,1.8-4.2,4.1-10.4,7c-9.4,4.4-14,5.4-15,3c-0.3-0.9-0.5-0.8-0.6,0.4c0,1,0.6,2.4,1.6,3.1
		c1.2,1,1.3,1.6,0.4,2.2c-1.9,1.2-0.1,5.3,2.8,6c1.4,0.3,2.6,1.1,2.6,1.5s-1,0.6-2.2,0.3c-1.7-0.4-2.2,0-2.2,2.2
		c0.2,2.4,3,17.8,4,21c0.9,2.7,12.3,0.9,16.6-2.7c5.1-4.1,9.2-32.6,4.8-32.6c-1.6,0-1.6-0.1,0-1.9c1-1.1,1.7-3.1,1.7-4.5
		c0-2.5,0-2.5-1.7-0.4c-1.7,2.1-1.7,2.1-1-0.1c1.5-4.2,1.8-7,0.8-7C171.3,151.3,170.2,152.5,169.6,153.9z"/>
	<path class="st0" d="M150.6,163.4c4.3-0.9,17.4-8.4,17.8-10.4c0.3-1.5-0.9-1.2-6.6,1.4c-3.9,1.7-9.3,3.7-12,4.4
		c-4.8,1.2-5.1,1.4-3.5,3.1C147.3,163.1,149,163.7,150.6,163.4z"/>
	<path class="st0" d="M172.8,30c4.2,0.5,9.4,4.5,12,9.3c2.2,3.8,2.5,4,3.2,2.2c0.5-1.5,0.9-1,0.9,2.3c0.1,4.6,2.9,15.6,6.6,25.9
		c1.6,4.4,2.5,10.2,2.9,17.8c0.6,12.5,2.1,15.3,8.3,17.2c4.8,1.4,10.8,1.4,14.3-0.1l3-1.2l-3.5-1c-5.5-1.5-5.1-2.8,1.3-3.3
		c4.5-0.3,6.9-1.3,9.9-3.8c6.3-5.1,11.7-15.8,7-13.8c-1.1,0.4-3.6,1-5.7,1.3c-3.1,0.4-4.2,0-6.5-2.4c-2.6-2.8-2.7-3.3-3.3-24.6
		c-0.3-12-1.2-23.2-1.7-25.1c-4-12-13.7-23.3-22.2-25.9C186,0.9,168.5,11.7,168.5,24C168.5,28.4,169.3,29.6,172.8,30z"/>
	<path class="st0" d="M223.1,354c-0.3,0.5,1.1,1.4,3.1,1.7c2.7,0.5,4.2,1.5,4.9,3.2c0.9,2.2,1.4,2.4,5.1,1.8
		c4.5-0.8,6.2-3.6,2.8-5.3C236,353.9,223.9,352.8,223.1,354z"/>
	<path class="st0" d="M175.9,364.9c0.8-1.2,1.3-2.4,1.1-2.5c-0.2-0.1-4.3-1.7-9.3-3.6l-9-3.3v3c0,3.6,0.6,4.1,7.6,6.7
		C172.9,367.6,174.2,367.6,175.9,364.9z"/>
	<path class="st0" d="M160.2,347.1c-0.6,0.3-1.1,2.1-1,3.7c0.1,2.2,1,3.3,3.9,4.8c4.6,2.3,5.8,2.4,7.5,0.4c1.1-1.3,0.4-2.1-3.5-4.3
		c-2.6-1.5-5.3-2.8-6-2.8c-0.8,0-1-0.5-0.5-1.2C160.9,346.9,160.8,346.7,160.2,347.1z"/>
	<path class="st0" d="M178.5,332l-5.3-0.6l-1.8,4.6c-1.9,5.1-1.8,5.4,3.7,8.5c2.1,1.1,4.1,2.1,4.6,2.2c1.9,0.1,7.1-6.5,7.1-9
		C186.8,334.2,184.8,332.7,178.5,332z"/>
	<path class="st0" d="M209.4,376.5c-1.4,0.9-0.5,10.2,1.3,15.3c1.5,4.3,3,4.4,3.9,0.2c0.3-1.8,1.1-3.6,1.6-3.9c0.5-0.3,1-2.9,1-5.8
		c0-5-0.1-5.3-3.3-5.8C212,376.2,210,376.2,209.4,376.5z"/>
	<path class="st0" d="M164.8,366.9c-1.1,1.2-0.6,14.5,0.4,16.6c0.6,1.2,1.5,2.1,2.2,2.1c1.5,0,5.4-9.6,5.4-13.5c0-3-0.4-3.6-3.7-4.6
		C167.1,366.8,165.1,366.6,164.8,366.9z"/>
	<path class="st0" d="M178.3,185.8c5.6,0,17.2,5.1,19.7,8.7c1.9,2.8,2.9,2.3,5-3.3c1.8-4.9,5.2-9.7,6.7-9.7c0.6,0,0.3,1-0.8,2.2
		c-1.5,1.6-1.6,2.2-0.4,2.2c1,0,0.8,0.6-0.8,1.9c-2.4,1.9-4.8,5.7-4.8,7.7c0.1,0.5,1.9,1.7,4.2,2.6c4.9,2.1,5.8,2.1,9.4,0.8
		c3.3-1.3,7.1-7,7.1-10.9c0-3.1-11.4-22.5-16.6-27.9c-4-4.2-12.4-8.9-16.2-8.9c-3.2,0-8.1,3.8-9.6,7.5c-0.6,1.5-2.3,7.5-3.7,13.2
		c-1.4,5.7-2.8,11.1-3.2,12.2C173.8,185.4,174.3,185.8,178.3,185.8z"/>
	<path class="st0" d="M220.1,372.4c0.3-1.4-1.7-2.5-9.2-4.6c-5.2-1.6-10.6-3.6-12-4.4c-3-1.9-4.5-1.2-4.5,2.2c0,3.2,3,5.8,8.9,7.7
		C209.7,375.2,219.7,374.8,220.1,372.4z"/>
	<path class="st0" d="M206.8,318.6c2.8-1.1,2.8-1.2,2.5-11l-0.3-10l-12.1,0.3c-7.6,0.2-14.1-0.1-17.5-1c-2.9-0.8-5.7-1.1-6-0.8
		c-0.9,0.9,3.9,18.4,5.4,20c0.6,0.6,2.9,1.7,5,2.4c3.6,1,3.7,1.1,0.8,1.2c-3.9,0.1-9.7-2.8-8.7-4.4c0.4-0.8,0.2-0.9-0.5-0.4
		c-1.7,1.1-0.5,5,2.3,7.3c1.2,1.1,1.9,2.3,1.5,2.6c-0.4,0.4-1.3,0.1-1.9-0.5c-1.8-1.8-3-1.5-3,0.8c0,3,3.2,5.4,8.5,6.2
		c3.6,0.5,4.9,1.4,5.6,3.3c0.6,1.5,1.8,2.6,3.2,2.6c1.2,0,1.9,0.5,1.6,1.1c-0.3,0.5-1.6,1.1-2.7,1.1c-3.3-0.1-3.3,3.5-0.2,5.5
		c3.3,2.3,3.5,2.3,8.1,0.3c4.8-2.1,10.9-11.3,6.3-9.6c-1.2,0.4-1.5,0.3-1-0.5c0.4-0.6,1.4-1.3,2.2-1.3s1.9-1.2,2.6-2.7
		c1.6-3.6,1.6-4.1-0.3-3.3c-0.9,0.3-1.6,0.2-1.6-0.3c0-0.5,0.8-1.2,1.6-1.5c0.9-0.3,1.6-1.5,1.6-2.6c0-1.1,0.6-2.6,1.4-3.5
		c1.1-1.2,1.1-1.4-0.3-0.9c-6.6,2.3-13.9,3.1-18.4,2.2c-4.8-1.1-4.8-1.1,3.5-1.2C200.2,319.7,205.3,319.1,206.8,318.6z"/>
	<path class="st0" d="M161.2,364.9c-1.6,0.1-1.8,3.6-0.8,14c0.5,4.8,1.2,6.6,2.3,6.6c1.1,0,1.3-0.6,0.6-2.5
		c-0.5-1.3-0.9-5.9-0.8-10.3C162.8,366.8,162.4,364.9,161.2,364.9z"/>
	<path class="st0" d="M207.4,347.2c0.6-0.3,1.1-1.6,1.1-2.8c0-1.2-0.4-1.8-1.1-1.5c-0.6,0.3-1.1,1.6-1.1,2.8
		C206.3,346.9,206.7,347.5,207.4,347.2z"/>
	<path class="st0" d="M206.2,339.4c-1.2,2.3-3.6,5-5.3,6c-2.4,1.4-2.9,2.2-1.9,3.1c0.6,0.6,1.7,1,2.3,0.6c1.7-1.1,7.2-10.4,7.2-12.2
		C208.4,336.2,207.4,337.3,206.2,339.4z"/>
	<path class="st0" d="M202.2,360.2c-2.1,1.9-1.5,2.5,3.8,4.3c2.9,1,4.5,1.1,5.5,0.3c2.2-1.8,1.6-2.7-3.1-4.5
		C204.3,358.7,203.7,358.7,202.2,360.2z"/>
	<path class="st0" d="M196.3,348.7c-0.6,0-3.2-1.1-5.8-2.3c-4.6-2.3-8.6-2.1-7.8,0.4c0.2,0.8,1.6,1.6,3,1.9c1.6,0.4,2.6,1.4,2.6,2.7
		c0.1,1.2,1.1,2.5,2.3,2.8c5.8,1.9,9.9,0.1,8-3.6C198,349.7,197,348.7,196.3,348.7z"/>
	<path class="st0" d="M162.4,341.5c-2.9,2.9-0.9,5.6,8,10.4c9.1,4.9,12.1,5.5,14.8,2.8c2.3-2.3,2.2-3.8-0.5-4.4
		c-2.6-0.6-15.9-7.2-18.6-9.2C164.6,340,163.9,340,162.4,341.5z"/>
	<path class="st0" d="M168.2,338.9c1-1,1.5-2.2,1-2.6c-0.8-1-2.8,1.4-2.8,3.3C166.3,340.2,167.1,339.9,168.2,338.9z"/>
	<path class="st0" d="M213.6,364.3c-1.3,1.9-1,2.7,1.1,3.2c3,0.9,8.2,0.3,8.5-1C223.8,364.8,214.6,362.7,213.6,364.3z"/>
	<path class="st0" d="M230,360.1c0-0.8-3.2-2.4-7.2-3.7c-4-1.3-9.5-3.6-12.4-5c-6.4-3.2-6.8-3.2-8.2,0c-1,2.2-0.9,2.9,0.6,4.2
		c1.8,1.5,16.1,7.7,20.2,8.6c1.2,0.3,2.4,0.5,2.6,0.6C226.6,365.3,230,361.4,230,360.1z"/>
	<path class="st0" d="M120.2,146c-0.8,0.5-2.2,0.8-3.3,0.4c-1.1-0.3-2.9,0-4.1,1c-1.9,1.5-1.8,1.6,2.5,1.6c4.2,0,13.9-2.5,15.7-4.1
		C132.1,143.7,121.6,144.9,120.2,146z"/>
	<path class="st0" d="M84.3,390.1c-1.5-38-3.1-54-5.5-55.3c-1.1-0.5-5.9-2.1-10.9-3.1c-9.7-2.3-42-12.6-48.7-15.6l-4.1-1.8v2.6
		c0,2.2,1,3,4.9,4.5c2.7,1,5.2,2.3,5.4,2.8c0.3,0.5-1.7-0.1-4.5-1.3l-5.1-2.2l0.6,3c0.3,1.6,1.2,10.8,1.8,20.3
		c1.1,15.6,4.3,48.4,4.8,48.7c0.1,0.1,6.3,3.2,13.7,7c13.6,6.9,30,14.1,41,18c7.7,2.7,9,2.7,8.2,0.3
		C85.6,417.1,84.9,404.5,84.3,390.1z"/>
	<path class="st0" d="M123.4,338.4c-0.2,0.3-0.2,1.6,0.2,2.9c0.4,1.3,1.3,2.1,2.1,1.8c0.6-0.3,4-1.1,7.3-1.7c5.8-1.2,9.6-3.7,8-5.2
		C140.3,335.4,124.5,337.4,123.4,338.4z"/>
	<path class="st0" d="M18.4,314.3c2.1,1.3,2.2,1.3,2.2,0c0-0.5-0.9-1.1-1.9-1.1C17.1,313.2,17,313.4,18.4,314.3z"/>
	<path class="st0" d="M120.2,338.4c-1.1,0.3-5.7,1.2-10.4,1.8c-7.7,1.3-8.3,1.6-8.3,3.9c0,2.9,0.3,3,11.9,1.1
		c7.8-1.2,8.1-1.4,8.4-4.3C122.1,338.3,121.8,337.8,120.2,338.4z"/>
	<path class="st1" d="M65.7,311.4c6.6,1.7,32.7-3.8,32.7-6.9c0-1.8-8.1-3.5-15.1-2.9C71.5,302.4,58.6,309.5,65.7,311.4z"/>
	<path class="st0" d="M243,361.9c0,2.9-5.2,8.5-14.7,15.8c-6.9,5.2-12.3,11.8-12.3,14.9c0,1.4,2.5,0.2,10.3-5
		c9.8-6.7,14.8-12.1,19-20.8c3-6.3,4.3-15.7,2.2-15.7C246.2,351.1,243,359,243,361.9z"/>
	<path class="st0" d="M22.8,304.7c2.1,1.3,16.5,1.2,24.3-0.2c13.6-2.5,8.6-4.8-9-4C26.4,300.9,19.8,302.7,22.8,304.7z"/>
	<path class="st0" d="M58.3,303.7c0,2.5,4.9,2.6,9.6,0.2c1.9-1,7-2.4,11.2-3c6.5-1.1,7.3-1.5,5.1-2.2c-3.3-1.1-19.9-1.2-24.6-0.1
		c-2.6,0.5-3.3,1.1-2.5,1.9C57.8,301.2,58.3,302.6,58.3,303.7z"/>
	<path class="st0" d="M188.4,395.7c3.8,1.8,15.2,2.3,19.4,0.8l2.7-1l-1.7-6l-1.7-6h-7.6c-9.7,0-11.7-0.5-13.7-4l-1.7-2.8l-1.9,2.9
		C178.1,385.5,180.6,391.9,188.4,395.7z"/>
	<path class="st0" d="M225.5,390c-17.3,10.7-33.6,12-43.3,3.3c-1.7-1.5-1.9-1.5-1.9,0.2c0.1,3.5,2.4,6.2,6.9,8.3
		c3.8,1.8,6.3,2.1,16.4,1.7c13.6-0.4,17.7-2.1,24.8-9.4c2.4-2.5,6-5.4,8.1-6.5c2.1-1.1,5.9-3.9,8.5-6.2c4.6-4.1,4.8-4.5,5.6-12.2
		c0.4-4.4,0.4-8.4,0-8.9c-0.4-0.4-1.7,1.6-2.9,4.6C244.5,373.4,234.9,384.2,225.5,390z"/>
	<path class="st0" d="M185.3,375.3c3.3-1.6,5.8-5,5.8-8.1c0-0.5-3,0.6-6.8,2.7c-6,3.2-13.7,10.9-13.7,13.6c0,1.3,0.5,1.3,4.8-0.5
		c2.1-0.9,4.2-2.5,4.9-3.7C180.9,378.1,183.2,376.3,185.3,375.3z"/>
	<path class="st0" d="M157.7,347.1V333l-3.9,0.4c-2.7,0.3-3.7,0.1-3.1-0.8c0.4-0.6,2.5-1.2,4.4-1.2c2.9,0,3.7-0.4,3.7-2.1
		c0-5.2,0-5.2-17.6-3.1c-9.1,1.1-23.5,3.1-32.1,4.5c-8.6,1.4-18.3,2.9-21.4,3.3c-5.6,0.8-5.7,0.8-5.4,4.1c0.3,3.2,0.5,3.3,4.4,3.1
		c2.7-0.2,3.9,0.1,3.5,0.9c-0.3,0.6-2.2,1.1-4,1.1h-3.3l0.8,8.4c0.4,4.6,1.4,21.7,2.3,38.1c0.9,16.3,1.5,29.9,1.6,30.1
		c0.1,1.3,57-9.1,70.6-13c4.1-1.2,4.2-1.2,3.5-5.5C159.9,391.3,157.7,360.1,157.7,347.1z M146.1,337.1c-0.8,4.3-2.2,5.2-14,8.1
		c-11.1,2.7-29.4,4.5-30.8,3.1c-0.4-0.4-0.9-2.5-0.9-4.4c0-1.9,0.3-3.6,0.9-3.6s9.5-1.5,20.3-3.2
		C146.6,332.9,146.8,332.9,146.1,337.1z"/>
	<path class="st0" d="M252,317.1c1.1,6-24.9,10.7-36.4,6.6c-2.4-0.9-4.4-1.6-4.6-1.6c-0.1,0-0.3,1.3-0.3,2.9s1.3,4.2,3,6
		c2.1,2.2,2.4,3,1.1,2.5c-2.4-0.9-2.6,1.6-0.3,3.9c0.9,0.9,1.4,1.7,1.2,1.9c-0.2,0.2,0.6,0.4,1.9,0.5c12.2,0.5,15.9,1,15.9,1.7
		c0,0.5-0.9,0.9-2.1,0.9c-1.5,0-1.9,0.8-1.9,3c0,1.5-0.4,3.7-0.9,4.8c-0.8,1.6-0.3,1.9,2.9,1.9c3.1,0,4.2-0.6,6.7-4.3
		c1.6-2.4,4.1-5.1,5.5-5.9c3.1-2.1,3.5-4.2,0.4-3.5c-1.2,0.3-2.2,0.1-2.2-0.4s0.8-1,1.7-1c2.2,0,6.9-4.9,6.9-7c0-1.5-0.3-1.5-3.2,0
		c-1.7,1-3.2,1.3-3.2,0.8c0-0.5,1.7-1.7,3.9-2.7c2.6-1.2,4.4-3.1,5.5-5.7c1.5-3.6,1.5-4.1-0.1-5.6
		C251.7,315.1,251.6,315.1,252,317.1z"/>
	<path class="st0" d="M177.6,384.8c-0.8-0.5-2.3-0.1-6.3,1.1c-4.3,1.3-5.3,1.6-6.4,1.7c-0.3,0-0.6,0-1.1,0c-0.1,0-0.1,0-0.2,0
		c-1,0.1-1.6,1.2-1.6,2.9c0,2.8,0.1,2.8,5.3,2.2c9.1-1.2,11.8-2.5,11.1-5.6C178.2,385.9,178.1,385.1,177.6,384.8z"/>
	<path class="st0" d="M22.1,312.9c0.9,3.6,2.3,4.2,22.7,10.7c5.9,1.9,11.1,3.5,11.7,3.6c0.4,0,0.9-5.3,0.9-11.8s-0.1-11.9-0.3-11.9
		c-0.1,0-2.9,0.8-6.3,1.6c-3.5,1-10.8,1.6-17.6,1.6c-0.3,0-0.6,0-1,0c-6.8,0-9.5,0-10.4,1.3c-0.5,0.9-0.3,2.2,0.2,4.4
		C22,312.6,22,312.8,22.1,312.9z"/>
	<path class="st0" d="M247.9,205.1c-4.6-3.7-11.8-9.8-15.7-13.6l-7.1-6.9l-0.5,5c-0.6,6-4,9.9-9.3,11c-3.5,0.6-5,0.3-11.2-2.3
		c-1.4-0.5-2.2-0.1-3,2.2c-0.6,1.6-1.9,3.1-3,3.5s-3.1,2.6-4.5,5.2c-3.6,6.5-17.5,18.4-29.5,25.1c-5.5,3-10.4,6.3-10.9,7.1
		c-0.6,1.1-0.3,2.6,1.4,5c1.3,1.8,3.3,6.2,4.5,9.5c1.8,5.4,2.6,9.9,5,30.2c0.4,4.1,0.9,4.6,5.6,6.6c2.8,1.2,6.7,2.5,8.7,2.8
		c3,0.5,3.6,0.4,2.9-1.1c-1.6-4.3-2.1-7.2-0.9-6.5c0.6,0.4,1.2,1.7,1.2,2.9c-0.1,1.1,0.4,3.1,1.1,4.3c1.2,2.2,1.8,2.3,13.8,1.6
		c18.7-1,29.9-2.7,39.5-6c14-4.9,27.4-13.3,34.9-21.7l3.6-4l-3.9-5.3c-6.4-8.4-6.4-8.9-0.6-2.9l5.4,5.6l4.5-6.5
		c2.5-3.6,5.2-8.6,5.9-11.1l1.4-4.6l-9.9-9.6C266.9,220.5,262.2,216.5,247.9,205.1z"/>
	<path class="st0" d="M184.6,129.8c-0.8-0.8-0.3-1.1,1.6-1.1c4,0,5.8-1.9,6.6-7.3c1-6.2-1.4-10.2-5.8-10.2c-4.3,0-7.1,3.6-7,8.7
		c0.2,8.1-6.4,2.9-7.7-6.2c-0.4-2.7-1.2-6-1.8-7.3c-1.2-2.6-6.6-6-9.6-6c-6.6,0-13.2-2.6-18.3-7.2c-4.2-3.8-5.4-4.4-5.4-2.9
		c0,1.1-0.8,3.3-1.6,5.1c-1.5,2.9-1.4,3.2,0.9,5.2c2.2,1.9,2.2,2.1,0.2,1.4c-1.2-0.4-3.8-1.3-5.7-1.9c-4.1-1.4-4.6-2.8-1.1-2.9
		c1.7-0.1,1-0.8-3-2.7c-3-1.4-6.3-3.6-7.3-4.9c-1.8-2.3-1.9-2.3-1.9,2.2c0,2.5,0.5,5.5,1.2,6.7c0.6,1.2,1,2.4,0.8,2.6
		c-1.2,1.2-7.7-1.2-10.6-3.9l-3.2-3l-0.6,2.7c-0.3,1.5-0.1,3.9,0.5,5.4c1.7,3.9,1.6,4-3.7,3.2c-5.8-0.8-9.8-3.2-12.5-7.6l-1.9-3.2
		l-0.8,2.9c-0.4,1.6-0.4,4.8,0,6.9c1,5.3,5.7,18.8,7,20.1c0.5,0.5,3.1,1.3,5.6,1.6c3.7,0.4,5.1,1.3,6.8,4.1c1.5,2.4,2.8,3.2,4.1,2.9
		c1.1-0.3,3-0.2,4.3,0.3c2.2,0.8,2.1,0.9-1.4,1.4c-2.9,0.4-3.8,1.1-3.8,2.7c0,1.8,0.6,2.2,4,2.1c2.3-0.1,3.8,0.3,3.5,0.9
		c-0.9,1.4-13.1,0.3-15-1.3c-2.1-1.7-2.1-1.1,0.6,5.6c2.5,6.4,5.4,10,10,12.4c3.5,1.8,4.9,1.4,2.4-0.6c-0.9-0.8-1.6-2.1-1.6-3
		c0-0.9-0.8-2.2-1.7-2.9c-2.4-1.7-0.9-4.9,2.6-5.5c1.5-0.3,4.6-1.1,6.8-1.6c2.2-0.5,5.8-1,8.3-1c2.4,0,4.8-0.5,5.1-1.2
		c0.4-0.8,1.2-0.8,2.3,0.2c1.3,1.1,1.2,1.5-0.9,2.5c-1.3,0.6-2.7,2.6-3.2,4.3c-0.8,3.8-3.3,6.8-8.2,9.4l-3.8,2.1l12.4-0.4
		c17.8-0.6,30.9-5.5,43.3-16C182,138.6,186.3,131.5,184.6,129.8z M185.2,117.3c2.7-2.2,4.3-2.2,6.2,0.1c1.3,1.6,1.2,1.7-1,1
		c-1.9-0.6-2.4-0.4-1.8,0.9c0.3,1,0.3,1.7,0,1.7c-0.4,0-1-0.8-1.3-1.5c-0.3-0.9-1.4-1.3-2.4-1C183.5,118.9,183.5,118.7,185.2,117.3z
		 M96.1,116.9c-2.2,5.6-3.6,6.3-2.8,1.5c0.6-4.3,2.3-7,3.6-5.7C97.2,113,96.9,114.9,96.1,116.9z M140.5,115.6c0.5,1.3,1,4.1,0.8,6.3
		c-0.3,3.6-0.6,4-3.7,4.3c-4.1,0.4-5.9-1.3-7.9-7c-1.3-3.9-1.2-4.6,0.9-8.5c1.6-3.1,2.3-3.7,2.4-2.1l0.1,2.2l1-2.2
		c0.8-1.8,1-1.9,1-0.3c0.1,1.9,1.6,2.6,2.5,1.1c0.2-0.4,0.3-0.2,0.1,0.5c-0.5,2.2,1.5,2.6,2.7,0.5c1-1.7,1.1-1.7,1.2-0.1
		c0,1-0.4,2.2-1.1,2.5C139.6,113.2,139.8,114.2,140.5,115.6z"/>
	<path class="st0" d="M140.8,219.5c2.2,1.5,3.3,0.8,13.1-8.5c9.2-8.7,9.5-9.2,5.9-8.4c-2.1,0.4-5.2,0.9-6.9,0.9
		c-3.7,0.1-4.3-1.4-6-15.6c-1.6-12.7-3.1-17.6-5-16.1c-2.4,1.9-4.8,11.7-4.8,19.7C137.2,201.4,139.4,218.5,140.8,219.5z"/>
	<path class="st0" d="M130.7,116.2c0,2.4,0.2,2.5,2.8,1.3c2.5-1.2,3.1-1.1,4.6,1c2.4,3,2.9,2.3,1.2-1.8
		C136.7,110.4,130.7,110.1,130.7,116.2z"/>
	<path class="st0" d="M127.8,198.5c3.1,0.5,6,1.1,6.5,1.2c0.4,0.1,0.9-2.2,0.9-5c0-2.8,0.6-8.2,1.4-11.9c1.2-5.7,1.2-6.6-0.1-5.5
		c-2.2,1.8-14.4,18.1-14.4,19.2C122,197.1,124.6,198,127.8,198.5z"/>
	<path class="st0" d="M121.3,151.3c-1.3,0-2.7,0.4-3,1c-1.1,1.7,5.4,1.2,7.7-0.6c2.1-1.7,2.1-1.7-0.1-1
		C124.6,151.1,122.6,151.4,121.3,151.3z"/>
	<path class="st0" d="M65.8,328.8c0.6,0.5,4.1,1.8,7.9,2.9c6.6,1.9,9,1.9,21,0.3l4.9-0.6L99.3,319c-0.1-11-0.3-12.3-1.9-11.6
		c-6.3,2.8-21.8,5.9-27.5,5.5l-6.4-0.4l0.8,7.7C64.6,324.4,65.3,328.3,65.8,328.8z"/>
	<path class="st0" d="M248.5,286.5c-9.7,5-21.4,8.6-31.5,9.7c-2.9,0.3-4.6,0.4-5.4,1.3c-1.2,1.2-0.6,4,0.5,11
		c0.1,0.5,0.2,1.2,0.3,1.7c1.6,10.6,2.5,12.2,6,13c3.3,0.6,18.9-0.3,23.8-1.6c5.2-1.3,8.3-4.4,8.4-8.2c0-1.6,1.6-9.3,3.7-17.1
		c2.1-7.8,3.6-14.1,3.5-14.3C257.7,282,253.5,284,248.5,286.5z"/>
	<path class="st0" d="M96.4,302.5c4.6,2.4,8.2,2.4,16.6,0.2c6.4-1.6,6.9-1.9,5.2-3.2c-2.8-2.1-25.4-1.5-25.3,0.6
		C92.9,300.5,94.5,301.5,96.4,302.5z"/>
	<path class="st0" d="M59.7,306.7c-1.6,0-1.7,1.6-0.8,13.3c0.5,6.3,1.2,8.3,2.5,8.6c1,0.2,1.9,0.3,2.1,0.1c0.2-0.1-0.2-5.2-1-11.1
		C61.6,309.9,60.8,306.7,59.7,306.7z"/>
	<path class="st0" d="M112.8,304c-3.6,0.9-7.8,1.6-9.5,1.6h-3v10.7c0.2,5.9,0.5,11.6,0.9,12.5c0.4,1.2,1.5,1.6,3,1.3
		c1.3-0.3,4.8-0.9,7.7-1.3c4.4-0.5,6.7-0.6,7.9-1.9c1.3-1.3,1.3-3.9,1.3-9.7c0-0.8,0-1.6,0-2.5c0-6.8-0.3-12.3-0.9-12.3
		C119.7,302.4,116.4,303.2,112.8,304z"/>
	<path class="st0" d="M123,298l3.9-0.1l-8.6-1.7l10,0.3l0.5-6.3c0.3-4.2,1.9-9.1,4.5-14.5c3.5-7,4.1-9.5,4.5-18.3
		c0.5-8.9,0.4-10.2-1.2-10.2c-1,0-2.5,1.5-3.5,3.2c-1.9,3.9-2.9,4-7.1,0.9c-4.6-3.3-6.4-7.8-6.4-15.3c0-8.4,1.5-13.7,4.8-16.7
		c2.2-2.1,3.6-2.4,8.2-2.1l5.5,0.4l-0.6-4.9c-1.5-10.8-1.4-10.7-7.3-12.4c-6.4-1.9-15.6-2.1-22.4-0.2c-4.6,1.2-4.9,1.4-5.6,6.2
		c-0.4,2.7-0.8,8.3-0.9,12.6c-0.1,7.1,0.1,7.8,2.4,8.5c1.3,0.4,3.7,1.9,5.3,3.5c2.5,2.3,2.9,3.7,3.1,9.3c0.6,17.3,0.3,18.4-4.9,17.4
		c-3.8-0.8-3.8-0.6-3.8,2.9c0,6.2,2.2,12,6.5,17.5c2.8,3.6,4.5,7.1,5.5,11.3c0.9,3.1,1.9,6.6,2.5,7.3S120.9,298.1,123,298z"/>
	<path class="st0" d="M105.5,255.4c4.6,0.6,5.7,0.4,5.7-0.9c0-2.5-3.9-5.4-8.4-6.3c-3.8-0.8-3.8-0.8-0.9-0.9
		c1.8-0.1,4.6,0.6,6.4,1.5c3.8,1.9,3.9,1.9,3.9,0.2c0-2.5-5.2-6.4-9.4-7.2c-3.8-0.8-3.8-0.8-0.9-0.9c1.8-0.1,4.6,0.6,6.3,1.5
		c2.9,1.5,3,1.5,2.7-0.9c-0.2-1.7-2.2-3.3-6.3-5.4c-4.1-2.1-5-2.8-2.7-2.3c1.8,0.3,4.4,1.4,5.7,2.3c3.2,2.1,4.1,1.1,2.5-2.5
		c-1.2-2.6-6.9-5.8-10.4-5.8c-2.9,0-8.1,5.4-8.9,9.2c-0.9,5.7,1.7,14.5,5.8,18.6c3.3,3.3,5.8,4.5,5.8,2.6c0-0.4-0.6-1.5-1.4-2.3
		C100.1,255,101,254.9,105.5,255.4z"/>
</g>
<g id="outline_1_">
	<g id="outline">
		<path class="st2" d="M104.2,419.5c-16.5,2.6-18,2.7-22.7,1.2c-12.2-3.8-50.3-21.3-57.9-26.6c-2.6-1.8-2.9-2.9-4-14.7
			c-0.6-7-1.5-18.6-1.8-25.7c-0.8-15.2-2.5-30.6-3.9-33.2c-0.5-1-0.6-3.2-0.3-5.1c0.5-2.5,1.3-3.3,3.5-3.6c2.5-0.3,2.9-1,3.1-4.4
			c0.5-6.5,3.3-7.7,20.1-8.4c7.8-0.4,17.5-1.3,21.5-2.1c5.8-1.1,9.5-1.1,17.3,0c5.4,0.8,10.6,1.2,11.4,1.2c0.9-0.1,6.9-0.4,13.4-0.8
			l11.8-0.6l-0.5-4.2c-0.6-5-4.1-12-8.3-16.7c-2.1-2.3-3.2-5.2-3.8-8.7c-0.6-4.6-1.3-5.7-4.6-7.9c-5-3.2-8.2-9.5-8.6-17.1
			c-0.4-7.1,2.3-12.5,7.3-14.5l3.1-1.2v-11.9c0-6.6,0.4-12.5,0.9-13.2c1-1.5,9-3.6,14.4-3.6c3.6,0,4.3-0.6,9.5-8.1
			c3.1-4.4,8.4-11,11.7-14.7c4.8-5.2,6-7.3,6.2-10.3l0.1-3.7l-12.4,0.1c-19.3,0.2-25.4-3.5-30.1-18.4c-1.3-4.2-3.2-8.5-4.3-9.6
			c-1-1.1-2.1-2.5-2.2-3c-0.2-0.6-0.5-1.8-0.9-2.7c-0.3-0.9-1.6-4.3-3-7.6c-1.4-3.2-2.8-7.8-3.2-10c-0.4-2.3-1.1-4.1-1.6-4.1
			c-0.4,0-0.6,1-0.3,2.2c0.9,3.5-1.4,2.5-5.5-2.4c-6.8-7.9-8.5-13-7.9-21.9c0.8-9.7,3.2-14.9,10.9-22.5c3.1-3.1,6.3-7.2,6.9-9.2
			c3.3-9.6,16.4-20.5,27.5-22.9c10.7-2.3,32.6-0.3,43.1,3.9c4,1.6,4.3,1.6,5.7-0.3c0.9-1.2,1.5-4.5,1.6-8.1c0-5,0.6-6.8,3.1-10.4
			c3.9-5.4,7.8-8.2,14.5-10.5c9.8-3.3,16.8-1.7,25.2,6c4.9,4.4,10.5,13.1,12.6,19.5c0.6,1.9,1.5,13.3,1.8,25.3
			c0.6,21.2,0.8,21.9,3.2,24.6c3,3.2,4.8,3.5,9.1,1.2c4.3-2.3,5-2.1,5,1.4c0,6.8-9,16.6-16.6,18.3l-3.1,0.6l6.3,2.5l-2.7,1.5
			c-1.7,1-5.9,1.5-11.6,1.5c-7.5,0-9.3-0.3-12.1-2.4l-3.2-2.4l-0.6,4c-0.4,2.3-1.3,6.3-2.2,9c-0.9,2.7-2.1,6.9-2.7,9.5
			c-0.9,3.1-2.1,5-3.8,5.8c-1.4,0.6-3.1,2.5-3.8,4c-1.5,3.5-5.9,8.4-11.1,12.4c-3.9,2.9-3.9,3-1.8,5.1c1.5,1.5,2.7,1.8,4.5,1.1
			c1.4-0.5,5.7-1.3,9.6-1.7c5.6-0.6,7.9-0.4,10.9,1.1c6.4,3,12.4,9.1,17.1,16.8c5.5,9.3,20.1,24.7,33.5,35.4
			c24.3,19.2,40,33.9,40,37.4c0,2.4-5,12.1-9.3,17.9c-2.1,2.7-3.7,5.5-3.7,6c0,0.6-3.5,4.3-7.6,8.2c-8.3,7.9-9.4,10.3-13.9,30.3
			c-2.2,9.5-2.2,9.7-0.1,11.1c2.7,1.8,2.7,5.3-0.1,9.4c-1.2,1.7-2.2,4.5-2.2,6s-1,3.7-2.1,4.8c-1.7,1.5-1.9,2.9-1.5,7.5
			c0.6,6.7,2.6,14.8,3.9,16.5c0.5,0.6,0.6,5.2,0.2,10c-0.9,9.8-2.3,12.1-11.3,17.4c-2.5,1.5-7.2,5.2-10.5,8.3
			c-7,6.7-14.3,9.7-25.4,10.7c-13.9,1.2-25.5-4-25.5-11.3v-3.2l-5.2,1.5c-2.8,0.9-6.6,1.6-8.4,1.8c-3.5,0.3-3.5,0.4-2.3,8.6l0.8,4.8
			l-14.9,3c-8.2,1.6-19.2,3.9-24.6,5C119.1,416.9,110.2,418.5,104.2,419.5z M182.6,295.1c1.2,2.2,1.8,2.3,13.8,1.6
			c18.7-1,29.9-2.7,39.5-6c14-4.9,27.4-13.3,34.9-21.7l3.6-4l-3.9-5.3c-6.4-8.4-6.4-8.9-0.6-2.9l5.4,5.6l4.5-6.5
			c2.5-3.6,5.2-8.6,5.9-11.1l1.4-4.6l-9.9-9.6c-10.4-9.9-15-13.9-29.4-25.4c-4.6-3.7-11.8-9.8-15.7-13.6l-7.1-6.9l-0.5,5
			c-0.6,6-4,9.9-9.3,11c-3.5,0.6-5,0.3-11.2-2.3c-1.4-0.5-2.2-0.1-3,2.2c-0.6,1.6-1.9,3.1-3,3.5s-3.1,2.6-4.5,5.2
			c-3.6,6.5-17.5,18.4-29.5,25.1c-5.5,3-10.4,6.3-10.9,7.1c-0.6,1.1-0.3,2.6,1.4,5c1.3,1.8,3.3,6.2,4.5,9.5c1.8,5.4,2.6,9.9,5,30.2
			c0.4,4.1,0.9,4.6,5.6,6.6c2.8,1.2,6.7,2.5,8.7,2.8c3,0.5,3.6,0.4,2.9-1.1c-1.6-4.3-2.1-7.2-0.9-6.5c0.6,0.4,1.2,1.7,1.2,2.9
			C181.4,291.8,182,293.9,182.6,295.1z M175.8,119.9l1.7,2.7l0.6-3.2c1.1-5,3.1-8.1,6-9.3c3.9-1.5,4.5-1.3,7.5,1.6l2.7,2.7l1.2-2.9
			c0.6-1.6,1.4-8.3,1.7-14.8c1-22.4-4.1-36.4-17.4-48.8c-9.9-9.3-18.4-13.5-33-16.5c-17.7-3.7-33-1.7-43.6,5.5
			C98.9,39.7,90.7,50.4,90.7,53c0,2.3,0.4,2.5,3.3,0.9c1.2-0.6,2.1-0.8,2.1-0.2s-2.6,2.2-5.8,3.8c-10.2,5-17.9,17.4-17.9,28.7
			c0,5.8,3.8,14.5,8.1,18.6c2.5,2.4,2.7,2.4,2.8,0.4c0.3-5.5,0.9-7,3.1-10.8l2.6-4.1l0.8,3.5c1,4.5,2.8,6.7,8,9.1
			c6.5,2.9,6.7,2.8,6.2-4.5c-0.5-8,1-10.4,3.5-5.5c1,1.8,3.1,4.1,4.9,5c4.4,2.3,5.7,2.2,4.4-0.4c-1.4-2.7-1.4-7.8,0-11.6l1.1-2.9
			l1.8,3.6c1,1.9,3,4.1,4.5,4.9s4.3,2.2,6.3,3.1c3.5,1.8,3.6,1.8,4.6-1c1.8-4.8,1.2-10-1.7-15.8c-1.5-3-2.6-5.7-2.3-5.9
			c0.8-0.8,4.6,6.3,6.2,11c2.4,7.5,12.2,15.4,18.9,15.6c9.3,0.1,16.2,5.6,17.3,13.6C173.8,114.8,174.9,118.4,175.8,119.9z M87.5,420
			c0.1,1.3,57-9.1,70.6-13c4.1-1.2,4.2-1.2,3.5-5.5c-1.6-10.3-3.9-41.5-3.9-54.4V333l-3.9,0.4c-2.7,0.3-3.7,0.1-3.1-0.8
			c0.4-0.6,2.5-1.2,4.4-1.2c2.9,0,3.7-0.4,3.7-2.1c0-5.2,0-5.2-17.6-3.1c-9.1,1.1-23.5,3.1-32.1,4.5c-8.6,1.4-18.3,2.9-21.4,3.3
			c-5.6,0.8-5.7,0.8-5.4,4.1c0.3,3.2,0.5,3.3,4.4,3.1c2.7-0.2,3.9,0.1,3.5,0.9c-0.3,0.6-2.2,1.1-4,1.1h-3.3l0.8,8.4
			c0.4,4.6,1.4,21.7,2.3,38.1C86.7,406.2,87.4,419.8,87.5,420z M77.8,417.9c7.7,2.7,9,2.7,8.2,0.3c-0.3-1.1-1.1-13.7-1.6-28.1
			c-1.5-38-3.1-54-5.5-55.3c-1.1-0.5-5.9-2.1-10.9-3.1c-9.7-2.3-42-12.6-48.7-15.6l-4.1-1.8v2.6c0,2.2,1,3,4.9,4.5
			c2.7,1,5.2,2.3,5.4,2.8c0.3,0.5-1.7-0.1-4.5-1.3l-5.1-2.2l0.6,3c0.3,1.6,1.2,10.8,1.8,20.3c1.1,15.6,4.3,48.4,4.8,48.7
			c0.1,0.1,6.3,3.2,13.7,7C50.3,406.7,66.7,414,77.8,417.9z M124.2,157.8l-3.8,2.1l12.4-0.4c17.8-0.6,30.9-5.5,43.3-16
			c5.8-4.9,10.2-11.9,8.4-13.6c-0.8-0.8-0.3-1.1,1.6-1.1c4,0,5.8-1.9,6.6-7.3c1-6.2-1.4-10.2-5.8-10.2c-4.3,0-7.1,3.6-7,8.7
			c0.2,8.1-6.4,2.9-7.7-6.2c-0.4-2.7-1.2-6-1.8-7.3c-1.2-2.6-6.6-6-9.6-6c-6.6,0-13.2-2.6-18.3-7.2c-4.2-3.8-5.4-4.4-5.4-2.9
			c0,1.1-0.8,3.3-1.6,5.1c-1.5,2.9-1.4,3.2,0.9,5.2c2.2,1.9,2.2,2.1,0.2,1.4c-1.2-0.4-3.8-1.3-5.7-1.9c-4.1-1.4-4.6-2.8-1.1-2.9
			c1.7-0.1,1-0.8-3-2.7c-3-1.4-6.3-3.6-7.3-4.9c-1.8-2.3-1.9-2.3-1.9,2.2c0,2.5,0.5,5.5,1.2,6.7c0.6,1.2,1,2.4,0.8,2.6
			c-1.2,1.2-7.7-1.2-10.6-3.9l-3.2-3l-0.6,2.7c-0.3,1.5-0.1,3.9,0.5,5.4c1.7,3.9,1.6,4-3.7,3.2c-5.8-0.8-9.8-3.2-12.5-7.6l-1.9-3.2
			l-0.8,2.9c-0.4,1.6-0.4,4.8,0,6.9c1,5.3,5.7,18.8,7,20.1c0.5,0.5,3.1,1.3,5.6,1.6c3.7,0.4,5.1,1.3,6.8,4.1
			c1.5,2.4,2.8,3.2,4.1,2.9c1.1-0.3,3-0.2,4.3,0.3c2.2,0.8,2.1,0.9-1.4,1.4c-2.9,0.4-3.8,1.1-3.8,2.7c0,1.8,0.6,2.2,4,2.1
			c2.3-0.1,3.8,0.3,3.5,0.9c-0.9,1.4-13.1,0.3-15-1.3c-2.1-1.7-2.1-1.1,0.6,5.6c2.5,6.4,5.4,10,10,12.4c3.5,1.8,4.9,1.4,2.4-0.6
			c-0.9-0.8-1.6-2.1-1.6-3c0-0.9-0.8-2.2-1.7-2.9c-2.4-1.7-0.9-4.9,2.6-5.5c1.5-0.3,4.6-1.1,6.8-1.6c2.2-0.5,5.8-1,8.3-1
			c2.4,0,4.8-0.5,5.1-1.2c0.4-0.8,1.2-0.8,2.3,0.2c1.3,1.1,1.2,1.5-0.9,2.5c-1.3,0.6-2.7,2.6-3.2,4.3
			C131.7,152.2,129.1,155.2,124.2,157.8z M206.7,104.7c4.8,1.4,10.8,1.4,14.3-0.1l3-1.2l-3.5-1c-5.5-1.5-5.1-2.8,1.3-3.3
			c4.5-0.3,6.9-1.3,9.9-3.8c6.3-5.1,11.7-15.8,7-13.8c-1.1,0.4-3.6,1-5.7,1.3c-3.1,0.4-4.2,0-6.5-2.4c-2.6-2.8-2.7-3.3-3.3-24.6
			c-0.3-12-1.2-23.2-1.7-25.1c-4-12-13.7-23.3-22.2-25.9C186,0.9,168.5,11.7,168.5,24c0,4.4,0.9,5.6,4.3,6c4.2,0.5,9.4,4.5,12,9.3
			c2.2,3.8,2.5,4,3.2,2.2c0.5-1.5,0.9-1,0.9,2.3c0.1,4.6,2.9,15.6,6.6,25.9c1.6,4.4,2.5,10.2,2.9,17.8
			C199,100,200.4,102.8,206.7,104.7z M159.2,334l-0.8,9.7l4.3-4.4c2.4-2.5,4.9-4.4,5.5-4.4c2.8,0,4.9-5.6,4.8-13.1
			c0-4.1,0.3-7.7,0.9-8c1.5-0.9,1.2-3.9-1.3-11.7c-1.9-6.3-2.7-7.3-6.2-9.1l-4-1.8l-1.3-13.2c-0.8-7.2-1.8-15.1-2.5-17.4
			c-1.4-5.4-5.2-13.9-6.5-14.7c-0.8-0.4-10.3,3-11.8,4.3c-0.2,0.1-0.8,4.4-1.3,9.6c-0.8,7.2-1.7,10.8-4.4,15.9
			c-2.4,4.4-3.9,9.3-4.6,14.9c-1.2,8-1.3,8.3-4.4,8.9c-1.8,0.3-3.2,1.2-3.1,1.9c0.1,0.8,0.2,4.2,0.3,7.8c0.1,5.3,0.5,6.5,2.1,6.6
			c1.8,0.1,1.8,0.1,0,0.6c-1.5,0.4-1.9,1.6-1.9,5.9c0,5.1,0.1,5.4,2.4,4.9c1.3-0.3,8.1-1.2,15.1-1.9c12-1.2,15.2-2.3,10.8-3.5
			c-1.3-0.3-1-0.5,0.9-0.6c1.5-0.1,3.9,0.6,5.2,1.6C159.8,324.1,159.9,324.6,159.2,334z M118,296.8c0.5,0.8,2.8,1.3,5,1.2l3.9-0.1
			l-8.6-1.7l10,0.3l0.5-6.3c0.3-4.2,1.9-9.1,4.5-14.5c3.5-7,4.1-9.5,4.5-18.3c0.5-8.9,0.4-10.2-1.2-10.2c-1,0-2.5,1.5-3.5,3.2
			c-1.9,3.9-2.9,4-7.1,0.9c-4.6-3.3-6.4-7.8-6.4-15.3c0-8.4,1.5-13.7,4.8-16.7c2.2-2.1,3.6-2.4,8.2-2.1l5.5,0.4l-0.6-4.9
			c-1.5-10.8-1.4-10.7-7.3-12.4c-6.4-1.9-15.6-2.1-22.4-0.2c-4.6,1.2-4.9,1.4-5.6,6.2c-0.4,2.7-0.8,8.3-0.9,12.6
			c-0.1,7.1,0.1,7.8,2.4,8.5c1.3,0.4,3.7,1.9,5.3,3.5c2.5,2.3,2.9,3.7,3.1,9.3c0.6,17.3,0.3,18.4-4.9,17.4c-3.8-0.8-3.8-0.6-3.8,2.9
			c0,6.2,2.2,12,6.5,17.5c2.8,3.6,4.5,7.1,5.5,11.3C116.4,292.6,117.5,296,118,296.8z M128.5,251.1c1.1,1.3,1.7,1.1,4-1.6
			c2.4-2.8,3.1-3.1,7.3-2.6c5.5,0.8,8.6-0.6,10.9-5c1.1-2.1,4.4-4.6,10.4-7.8c13.5-7.1,24.8-16.8,31.2-26.6c3-4.5,5.4-9.2,5.4-10.2
			c0-3.5-13.5-10.6-20.1-10.6c-2.7,0-6.5,5.5-5.5,8c0.3,0.8-1.4,2.9-3.7,4.9c-5.4,4.4-9.7,8.4-17.9,16.5l-6.6,6.5l-4.5-2.3
			c-6.6-3.3-12.9-2.7-15.3,1.6c-2.3,4-4,10.6-2.1,8.1c1-1.3,1.1-1.1,0.5,1.1c-1.5,5.9-1.8,11.7-0.6,12.3c0.8,0.4,1.2-0.1,1.2-1.4
			c0-2.6,2.1-8.2,2.7-7.5c0.3,0.3,0,3.3-0.8,6.7c-1,4.6-1,6.5,0,7.5c1,1,1.3,0.2,1.3-3.1c0-2.4,0.8-5.3,1.7-6.4
			c1.6-2.1,1.7-2.1,1,0.6C127.4,245.6,127.2,249.6,128.5,251.1z M207.1,198c4.9,2.1,5.8,2.1,9.4,0.8c3.3-1.3,7.1-7,7.1-10.9
			c0-3.1-11.4-22.5-16.6-27.9c-4-4.2-12.4-8.9-16.2-8.9c-3.2,0-8.1,3.8-9.6,7.5c-0.6,1.5-2.3,7.5-3.7,13.2
			c-1.4,5.7-2.8,11.1-3.2,12.2c-0.5,1.5,0,1.8,4,1.8c5.6,0,17.2,5.1,19.7,8.7c1.9,2.8,2.9,2.3,5-3.3c1.8-4.9,5.2-9.7,6.7-9.7
			c0.6,0,0.3,1-0.8,2.2c-1.5,1.6-1.6,2.2-0.4,2.2c1,0,0.8,0.6-0.8,1.9c-2.4,1.9-4.8,5.7-4.8,7.7C203,195.9,204.9,197.1,207.1,198z
			 M190.1,344.7c3.3,2.3,3.5,2.3,8.1,0.3c4.8-2.1,10.9-11.3,6.3-9.6c-1.2,0.4-1.5,0.3-1-0.5c0.4-0.6,1.4-1.3,2.2-1.3
			s1.9-1.2,2.6-2.7c1.6-3.6,1.6-4.1-0.3-3.3c-0.9,0.3-1.6,0.2-1.6-0.3c0-0.5,0.8-1.2,1.6-1.5c0.9-0.3,1.6-1.5,1.6-2.6
			c0-1.1,0.6-2.6,1.4-3.5c1.1-1.2,1.1-1.4-0.3-0.9c-6.6,2.3-13.9,3.1-18.4,2.2c-4.8-1.1-4.8-1.1,3.5-1.2c4.5-0.1,9.6-0.6,11.1-1.2
			c2.8-1.1,2.8-1.2,2.5-11l-0.3-10l-12.1,0.3c-7.6,0.2-14.1-0.1-17.5-1c-2.9-0.8-5.7-1.1-6-0.8c-0.9,0.9,3.9,18.4,5.4,20
			c0.6,0.6,2.9,1.7,5,2.4c3.6,1,3.7,1.1,0.8,1.2c-3.9,0.1-9.7-2.8-8.7-4.4c0.4-0.8,0.2-0.9-0.5-0.4c-1.7,1.1-0.5,5,2.3,7.3
			c1.2,1.1,1.9,2.3,1.5,2.6c-0.4,0.4-1.3,0.1-1.9-0.5c-1.8-1.8-3-1.5-3,0.8c0,3,3.2,5.4,8.5,6.2c3.6,0.5,4.9,1.4,5.6,3.3
			c0.6,1.5,1.8,2.6,3.2,2.6c1.2,0,1.9,0.5,1.6,1.1c-0.3,0.5-1.6,1.1-2.7,1.1C186.9,339.1,186.9,342.7,190.1,344.7z M218.5,323.2
			c3.3,0.6,18.9-0.3,23.8-1.6c5.2-1.3,8.3-4.4,8.4-8.2c0-1.6,1.6-9.3,3.7-17.1c2.1-7.8,3.6-14.1,3.5-14.3c-0.1-0.1-4.3,1.9-9.3,4.4
			c-9.7,5-21.4,8.6-31.5,9.7c-2.9,0.3-4.6,0.4-5.4,1.3c-1.2,1.2-0.6,4,0.5,11c0.1,0.5,0.2,1.2,0.3,1.7
			C214.1,320.9,214.9,322.5,218.5,323.2z M150.7,200.7c0.9,2.7,12.3,0.9,16.6-2.7c5.1-4.1,9.2-32.6,4.8-32.6c-1.6,0-1.6-0.1,0-1.9
			c1-1.1,1.7-3.1,1.7-4.5c0-2.5,0-2.5-1.7-0.4c-1.7,2.1-1.7,2.1-1-0.1c1.5-4.2,1.8-7,0.8-7c-0.5,0-1.6,1.2-2.3,2.6
			c-0.9,1.8-4.2,4.1-10.4,7c-9.4,4.4-14,5.4-15,3c-0.3-0.9-0.5-0.8-0.6,0.4c0,1,0.6,2.4,1.6,3.1c1.2,1,1.3,1.6,0.4,2.2
			c-1.9,1.2-0.1,5.3,2.8,6c1.4,0.3,2.6,1.1,2.6,1.5s-1,0.6-2.2,0.3c-1.7-0.4-2.2,0-2.2,2.2C146.9,182.1,149.7,197.5,150.7,200.7z
			 M73.7,331.7c6.6,1.9,9,1.9,21,0.3l4.9-0.6L99.3,319c-0.1-11-0.3-12.3-1.9-11.6c-6.3,2.8-21.8,5.9-27.5,5.5l-6.4-0.4l0.8,7.7
			c0.4,4.2,1.2,8.1,1.6,8.5C66.4,329.3,69.9,330.6,73.7,331.7z M228.5,350.2c-0.8,1.6-0.3,1.9,2.9,1.9c3.1,0,4.2-0.6,6.7-4.3
			c1.6-2.4,4.1-5.1,5.5-5.9c3.1-2.1,3.5-4.2,0.4-3.5c-1.2,0.3-2.2,0.1-2.2-0.4s0.8-1,1.7-1c2.2,0,6.9-4.9,6.9-7c0-1.5-0.3-1.5-3.2,0
			c-1.7,1-3.2,1.3-3.2,0.8c0-0.5,1.7-1.7,3.9-2.7c2.6-1.2,4.4-3.1,5.5-5.7c1.5-3.6,1.5-4.1-0.1-5.6c-1.6-1.6-1.7-1.6-1.4,0.3
			c1.1,6-24.9,10.7-36.4,6.6c-2.4-0.9-4.4-1.6-4.6-1.6c-0.1,0-0.3,1.3-0.3,2.9s1.3,4.2,3,6c2.1,2.2,2.4,3,1.1,2.5
			c-2.4-0.9-2.6,1.6-0.3,3.9c0.9,0.9,1.4,1.7,1.2,1.9c-0.2,0.2,0.6,0.4,1.9,0.5c12.2,0.5,15.9,1,15.9,1.7c0,0.5-0.9,0.9-2.1,0.9
			c-1.5,0-1.9,0.8-1.9,3C229.4,347,229,349.2,228.5,350.2z M44.8,323.6c5.9,1.9,11.1,3.5,11.7,3.6c0.4,0,0.9-5.3,0.9-11.8
			s-0.1-11.9-0.3-11.9c-0.1,0-2.9,0.8-6.3,1.6c-3.5,1-10.8,1.6-17.6,1.6c-0.3,0-0.6,0-1,0c-6.8,0-9.5,0-10.4,1.3
			c-0.5,0.9-0.3,2.2,0.2,4.4c0,0.1,0,0.3,0.1,0.4C23,316.4,24.4,317.1,44.8,323.6z M140.8,219.5c2.2,1.5,3.3,0.8,13.1-8.5
			c9.2-8.7,9.5-9.2,5.9-8.4c-2.1,0.4-5.2,0.9-6.9,0.9c-3.7,0.1-4.3-1.4-6-15.6c-1.6-12.7-3.1-17.6-5-16.1
			c-2.4,1.9-4.8,11.7-4.8,19.7C137.2,201.4,139.4,218.5,140.8,219.5z M101.1,328.9c0.4,1.2,1.5,1.6,3,1.3c1.3-0.3,4.8-0.9,7.7-1.3
			c4.4-0.5,6.7-0.6,7.9-1.9c1.3-1.3,1.3-3.9,1.3-9.7c0-0.8,0-1.6,0-2.5c0-6.8-0.3-12.3-0.9-12.3c-0.4,0-3.7,0.8-7.3,1.6
			c-3.6,0.9-7.8,1.6-9.5,1.6h-3v10.7C100.4,322.3,100.8,327.9,101.1,328.9z M187.2,401.9c3.8,1.8,6.3,2.1,16.4,1.7
			c13.6-0.4,17.7-2.1,24.8-9.4c2.4-2.5,6-5.4,8.1-6.5c2.1-1.1,5.9-3.9,8.5-6.2c4.6-4.1,4.8-4.5,5.6-12.2c0.4-4.4,0.4-8.4,0-8.9
			c-0.4-0.4-1.7,1.6-2.9,4.6c-3.2,8.2-12.9,19-22.2,24.8c-17.3,10.7-33.6,12-43.3,3.3c-1.7-1.5-1.9-1.5-1.9,0.2
			C180.4,397,182.6,399.7,187.2,401.9z M96.8,255.7c3.3,3.3,5.8,4.5,5.8,2.6c0-0.4-0.6-1.5-1.4-2.3c-1.1-1.1-0.2-1.2,4.3-0.6
			c4.6,0.6,5.7,0.4,5.7-0.9c0-2.5-3.9-5.4-8.4-6.3c-3.8-0.8-3.8-0.8-0.9-0.9c1.8-0.1,4.6,0.6,6.4,1.5c3.8,1.9,3.9,1.9,3.9,0.2
			c0-2.5-5.2-6.4-9.4-7.2c-3.8-0.8-3.8-0.8-0.9-0.9c1.8-0.1,4.6,0.6,6.3,1.5c2.9,1.5,3,1.5,2.7-0.9c-0.2-1.7-2.2-3.3-6.3-5.4
			c-4.1-2.1-5-2.8-2.7-2.3c1.8,0.3,4.4,1.4,5.7,2.3c3.2,2.1,4.1,1.1,2.5-2.5c-1.2-2.6-6.9-5.8-10.4-5.8c-2.9,0-8.1,5.4-8.9,9.2
			C90.1,242.9,92.7,251.6,96.8,255.7z M132.1,345.2c-11.1,2.7-29.4,4.5-30.8,3.1c-0.4-0.4-0.9-2.5-0.9-4.4c0-1.9,0.3-3.6,0.9-3.6
			s9.5-1.5,20.3-3.2c24.9-4.2,25.2-4.2,24.5,0C145.4,341.4,144,342.3,132.1,345.2z M188.4,395.7c3.8,1.8,15.2,2.3,19.4,0.8l2.7-1
			l-1.7-6l-1.7-6h-7.6c-9.7,0-11.7-0.5-13.7-4l-1.7-2.8l-1.9,2.9C178.1,385.5,180.6,391.9,188.4,395.7z M216,392.6
			c0,1.4,2.5,0.2,10.3-5c9.8-6.7,14.8-12.1,19-20.8c3-6.3,4.3-15.7,2.2-15.7c-1.2,0-4.4,7.9-4.4,10.8s-5.2,8.5-14.7,15.8
			C221.4,382.9,216,389.4,216,392.6z M65.7,311.4c6.6,1.7,32.7-3.8,32.7-6.9c0-1.8-8.1-3.5-15.1-2.9
			C71.5,302.4,58.6,309.5,65.7,311.4z M173.9,372.2v2.8l3.6-2.3c1.9-1.3,5.9-3.6,8.9-5.1c3-1.5,7-4.5,9-6.7c2.7-2.9,3.6-3.3,3.6-1.8
			c0,1.6,0.3,1.7,1.6,0.6c1.6-1.4,2.3-3.8,0.9-2.9c-0.4,0.3-3.5,0.1-6.6-0.4c-6.7-1.1-12.7,1.1-14.8,5.3c-0.6,1.4-2.3,3.7-3.6,5.2
			C175,368.2,173.9,370.7,173.9,372.2z M223,364.3c1.2,0.3,2.4,0.5,2.6,0.6c1,0.3,4.4-3.6,4.4-4.9c0-0.8-3.2-2.4-7.2-3.7
			c-4-1.3-9.5-3.6-12.4-5c-6.4-3.2-6.8-3.2-8.2,0c-1,2.2-0.9,2.9,0.6,4.2C204.7,357.2,218.9,363.3,223,364.3z M170.4,351.9
			c9.1,4.9,12.1,5.5,14.8,2.8c2.3-2.3,2.2-3.8-0.5-4.4c-2.6-0.6-15.9-7.2-18.6-9.2c-1.5-1.1-2.2-1.1-3.7,0.4
			C159.5,344.4,161.6,347.1,170.4,351.9z M175.1,344.5c2.1,1.1,4.1,2.1,4.6,2.2c1.9,0.1,7.1-6.5,7.1-9c0-3.6-2.1-5-8.3-5.7l-5.3-0.6
			l-1.8,4.6C169.5,341.1,169.6,341.4,175.1,344.5z M218.2,381.3c0,1.9,1,1.5,7.3-3.5c10-7.9,15.1-12.7,15.8-15.3
			c0.4-1.6,0.2-1.8-0.6-1c-0.6,0.6-3.3,1.2-5.8,1.2c-2.6,0-4.6,0.3-4.6,0.9c0,0.4-1.4,1.6-3,2.6
			C223.8,368.1,218.2,377.6,218.2,381.3z M141.3,121.8c-0.3,3.6-0.6,4-3.7,4.3c-4.1,0.4-5.9-1.3-7.9-7c-1.3-3.9-1.2-4.6,0.9-8.5
			c1.6-3.1,2.3-3.7,2.4-2.1l0.1,2.2l1-2.2c0.8-1.8,1-1.9,1-0.3c0.1,1.9,1.6,2.6,2.5,1.1c0.2-0.4,0.3-0.2,0.1,0.5
			c-0.5,2.2,1.5,2.6,2.7,0.5c1-1.7,1.1-1.7,1.2-0.1c0,1-0.4,2.2-1.1,2.5c-0.8,0.4-0.6,1.4,0.1,2.8
			C141,116.9,141.5,119.7,141.3,121.8z M213.9,351.4c5.5,2.5,5.7,2.5,9.5,0.5c4.5-2.3,6.2-5.5,4-7.7c-0.9-0.9-4.5-1.8-8.2-2.3
			c-7.2-0.9-8.7-0.1-10.2,4.5C208.3,348.6,209,349.2,213.9,351.4z M203.3,373.1c6.5,2.1,16.4,1.6,16.8-0.8c0.3-1.4-1.7-2.5-9.2-4.6
			c-5.2-1.6-10.6-3.6-12-4.4c-3-1.9-4.5-1.2-4.5,2.2C194.4,368.7,197.4,371.3,203.3,373.1z M127.8,198.5c3.1,0.5,6,1.1,6.5,1.2
			c0.4,0.1,0.9-2.2,0.9-5c0-2.8,0.6-8.2,1.4-11.9c1.2-5.7,1.2-6.6-0.1-5.5c-2.2,1.8-14.4,18.1-14.4,19.2
			C122,197.1,124.6,198,127.8,198.5z M190.7,381.2c4.1,1.2,5.6,1.3,11.7,0.4c4.2-0.5,5-1.1,5-3.1c0-1.9-1.2-2.8-6.4-4.8
			c-5.8-2.2-6.6-2.2-9.6-0.6C185,376.4,184.8,379.4,190.7,381.2z M183.6,49.1c2.7,2.7,5,4.5,5.2,4c0.2-0.5-1.1-4.1-2.8-7.9
			c-3.8-8.5-9.5-13.9-14.6-13.9h-3.5l3.9,2.1c2.2,1.1,4.4,2.7,5.2,3.7c0.8,0.9-1.1,0.3-4.1-1.3c-3.8-1.9-5.7-2.5-6.6-1.7
			c-0.8,0.8,1,2.5,5.6,5.6C175.7,42.1,180.9,46.3,183.6,49.1z M58.3,303.7c0,2.5,4.9,2.6,9.6,0.2c1.9-1,7-2.4,11.2-3
			c6.5-1.1,7.3-1.5,5.1-2.2c-3.3-1.1-19.9-1.2-24.6-0.1c-2.6,0.5-3.3,1.1-2.5,1.9C57.8,301.2,58.3,302.6,58.3,303.7z M22.8,304.7
			c2.1,1.3,16.5,1.2,24.3-0.2c13.6-2.5,8.6-4.8-9-4C26.4,300.9,19.8,302.7,22.8,304.7z M165.2,383.5c0.6,1.2,1.5,2.1,2.2,2.1
			c1.5,0,5.4-9.6,5.4-13.5c0-3-0.4-3.6-3.7-4.6c-2.1-0.6-4-0.9-4.3-0.5C163.7,368.1,164.2,381.3,165.2,383.5z M210.7,391.8
			c1.5,4.3,3,4.4,3.9,0.2c0.3-1.8,1.1-3.6,1.6-3.9c0.5-0.3,1-2.9,1-5.8c0-5-0.1-5.3-3.3-5.8c-1.8-0.3-3.9-0.3-4.4,0
			C208,377.4,208.9,386.6,210.7,391.8z M96.4,302.5c4.6,2.4,8.2,2.4,16.6,0.2c6.4-1.6,6.9-1.9,5.2-3.2c-2.8-2.1-25.4-1.5-25.3,0.6
			C92.9,300.5,94.5,301.5,96.4,302.5z M170.6,383.5c0,1.3,0.5,1.3,4.8-0.5c2.1-0.9,4.2-2.5,4.9-3.7c0.6-1.2,2.9-3,5.1-4
			c3.3-1.6,5.8-5,5.8-8.1c0-0.5-3,0.6-6.8,2.7C178.3,373.1,170.6,380.8,170.6,383.5z M166.3,365.3c6.6,2.4,7.9,2.4,9.6-0.3
			c0.8-1.2,1.3-2.4,1.1-2.5c-0.2-0.1-4.3-1.7-9.3-3.6l-9-3.3v3C158.8,362.1,159.4,362.7,166.3,365.3z M101.5,344.1
			c0,2.9,0.3,3,11.9,1.1c7.8-1.2,8.1-1.4,8.4-4.3c0.3-2.6,0-3-1.6-2.5c-1.1,0.3-5.7,1.2-10.4,1.8
			C102.2,341.5,101.5,341.8,101.5,344.1z M162,390.5c0,2.8,0.1,2.8,5.3,2.2c9.1-1.2,11.8-2.5,11.1-5.6c-0.2-1.2-0.3-1.9-0.9-2.3
			c-0.8-0.5-2.3-0.1-6.3,1.1l0,0c-4.3,1.3-5.3,1.6-6.4,1.7c-0.3,0-0.6,0-1.1,0c-0.1,0-0.1,0-0.2,0C162.6,387.7,162,388.8,162,390.5z
			 M190.6,354.3c5.8,1.9,9.9,0.1,8-3.6c-0.6-1.1-1.6-2.1-2.3-2.1s-3.2-1.1-5.8-2.3c-4.6-2.3-8.6-2.1-7.8,0.4c0.2,0.8,1.6,1.6,3,1.9
			c1.6,0.4,2.6,1.4,2.6,2.7C188.5,352.7,189.4,354,190.6,354.3z M146.3,162c1,1.1,2.7,1.7,4.2,1.4c4.3-0.9,17.4-8.4,17.8-10.4
			c0.3-1.5-0.9-1.2-6.6,1.4c-3.9,1.7-9.3,3.7-12,4.4C145,160.1,144.7,160.3,146.3,162z M123.7,341.3c0.4,1.3,1.3,2.1,2.1,1.8
			c0.6-0.3,4-1.1,7.3-1.7c5.8-1.2,9.6-3.7,8-5.2c-0.8-0.8-16.5,1.2-17.6,2.2C123.2,338.7,123.2,340,123.7,341.3z M231.1,359
			c0.9,2.2,1.4,2.4,5.1,1.8c4.5-0.8,6.2-3.6,2.8-5.3c-3-1.6-15.1-2.7-15.9-1.5c-0.3,0.5,1.1,1.4,3.1,1.7
			C229,356.3,230.5,357.3,231.1,359z M61.5,328.6c1,0.2,1.9,0.3,2.1,0.1c0.2-0.1-0.2-5.2-1-11.1c-1-7.8-1.7-10.9-2.8-10.9
			c-1.6,0-1.7,1.6-0.8,13.3C59.5,326.3,60.2,328.3,61.5,328.6z M241.9,356.6c0,0.8,1-0.4,2.1-2.7c2.4-4.8,3.9-11.6,2.5-11.6
			c-1.7,0-6,4-8,7.3c-1.8,3.1-1.8,3.2,0.9,4.4C240.7,354.8,241.9,355.9,241.9,356.6z M163.1,355.5c4.6,2.3,5.8,2.4,7.5,0.4
			c1.1-1.3,0.4-2.1-3.5-4.3c-2.6-1.5-5.3-2.8-6-2.8c-0.8,0-1-0.5-0.5-1.2c0.4-0.8,0.3-1-0.3-0.5c-0.6,0.3-1.1,2.1-1,3.7
			C159.3,352.9,160.2,354.1,163.1,355.5z M175.3,165.5c-0.3,5-0.3,8.7,0,8.4s1.4-3.9,2.4-8.1c1-4.1,2.5-8.6,3.3-10
			c1.5-2.3,1.4-2.5-0.4-2.5C177,153.4,175.8,156.2,175.3,165.5z M160.5,379c0.5,4.8,1.2,6.6,2.3,6.6c1.1,0,1.3-0.6,0.6-2.5
			c-0.5-1.3-0.9-5.9-0.8-10.3c0.1-6-0.2-7.9-1.4-7.9C159.6,365,159.4,368.5,160.5,379z M206,364.5c2.9,1,4.5,1.1,5.5,0.3
			c2.2-1.8,1.6-2.7-3.1-4.5c-4-1.6-4.6-1.6-6.2-0.1C200.1,362.1,200.7,362.7,206,364.5z M138.1,118.5c2.4,3,2.9,2.3,1.2-1.8
			c-2.6-6.3-8.6-6.6-8.6-0.4c0,2.4,0.2,2.5,2.8,1.3C136,116.3,136.6,116.4,138.1,118.5z M112.8,147.4c-1.9,1.5-1.8,1.6,2.5,1.6
			c4.2,0,13.9-2.5,15.7-4.1c1.2-1.2-9.3,0-10.7,1.1c-0.8,0.5-2.2,0.8-3.3,0.4C115.8,146.1,113.9,146.4,112.8,147.4z M214.7,367.5
			c3,0.9,8.2,0.3,8.5-1c0.5-1.7-8.6-3.9-9.6-2.3C212.3,366.2,212.7,367,214.7,367.5z M172.9,359.5c3.7,1.5,4.9,1.4,6.3-0.3
			c1-1.2,0.5-1.7-2.1-2.8c-2.8-1.2-3.6-1.2-5.1,0.3C170.4,358.3,170.4,358.6,172.9,359.5z M198.9,348.6c0.6,0.6,1.7,1,2.3,0.6
			c1.7-1.1,7.2-10.4,7.2-12.2c0-0.9-1.1,0.2-2.3,2.4c-1.2,2.3-3.6,5-5.3,6C198.5,346.9,198,347.7,198.9,348.6z M117.5,156.5
			c1,0.5,1.5,1,2.1,1c0.6,0.1,1.4-0.2,3.1-1c0.2-0.1,0.5-0.2,0.8-0.3c1.9-0.8,4.2-2.4,5.1-3.5c1.5-1.9,1.5-1.9-1.3-0.1
			c-1.9,1.3-4.4,1.8-7.3,1.5C115.3,153.8,114.4,154.7,117.5,156.5z M105.3,132.8c0.4,0.6,1,1,1.3,0.8c0.3-0.3-0.3-1.8-1.3-3.3
			c-2.2-3.2-5.2-3.2-5.6,0.1c-0.3,1.9,0.1,2.2,2.3,1.8C103.4,131.8,104.9,132.1,105.3,132.8z M144.2,319.1c3.1,0.9,4.2,1.5,2.7,1.5
			c-3,0-16.8-2.6-18.8-3.6C125.8,315.9,138.8,317.6,144.2,319.1z M209.8,338.7c-0.5,1.3-0.2,1.7,0.9,1.3c0.9-0.3,1.5-1.1,1.4-1.7
			c0-0.8-0.2-2.8-0.3-4.6c-0.1-2.8-0.4-3.1-1.7-2.1 M96.1,116.9c-2.2,5.6-3.6,6.3-2.8,1.5c0.6-4.3,2.3-7,3.6-5.7
			C97.2,113,96.9,114.9,96.1,116.9z M188.6,119.2c0.3,1,0.3,1.7,0,1.7c-0.4,0-1-0.8-1.3-1.5c-0.3-0.9-1.4-1.3-2.4-1
			c-1.4,0.4-1.4,0.2,0.3-1.2c2.7-2.2,4.3-2.2,6.2,0.1c1.3,1.6,1.2,1.7-1,1C188.5,117.7,188,117.9,188.6,119.2z M118.3,152.3
			c-1.1,1.7,5.4,1.2,7.7-0.6c2.1-1.7,2.1-1.7-0.1-1c-1.2,0.4-3.2,0.8-4.5,0.6C120,151.3,118.6,151.7,118.3,152.3z M206.3,345.7
			c0,1.2,0.4,1.8,1.1,1.5c0.6-0.3,1.1-1.6,1.1-2.8c0-1.2-0.4-1.8-1.1-1.5C206.7,343.2,206.3,344.5,206.3,345.7z M166.3,339.7
			c0,0.5,0.8,0.2,1.8-0.8c1-1,1.5-2.2,1-2.6C168.4,335.3,166.3,337.7,166.3,339.7z M18.4,314.3c2.1,1.3,2.2,1.3,2.2,0
			c0-0.5-0.9-1.1-1.9-1.1C17.1,313.2,17,313.4,18.4,314.3z"/>
	</g>
</g>
</svg>
