<?xml version="1.0" encoding="utf-8"?>
<!-- Generator: Adobe Illustrator 24.0.1, SVG Export Plug-In . SVG Version: 6.00 Build 0)  -->
<svg version="1.1" xmlns="http://www.w3.org/2000/svg" xmlns:xlink="http://www.w3.org/1999/xlink" x="0px" y="0px"
	 viewBox="0 0 278 400" style="enable-background:new 0 0 278 400;" xml:space="preserve">
<style type="text/css">
	.st0{fill:#FFFFFF;}
</style>
<g id="fill">
	<path class="st0" d="M210.6,318.8c-0.8-0.8-4.2-1.7-7.6-2.1c-6.7-0.8-8.1-0.1-9.4,4.2c-0.7,1.9-0.1,2.4,4.5,4.5
		c5.1,2.3,5.3,2.3,8.8,0.5C211.1,323.8,212.6,320.8,210.6,318.8z"/>
	<path class="st0" d="M162.3,161c0.3-0.3,1.3-3.6,2.2-7.5c0.9-3.8,2.3-8,3.1-9.3c1.4-2.1,1.3-2.3-0.4-2.3c-3.3,0.1-4.4,2.7-4.9,11.3
		C162,157.8,162,161.3,162.3,161z"/>
	<path class="st0" d="M225.9,327.7c2.2-4.4,3.6-10.7,2.3-10.7c-1.6,0-5.6,3.7-7.4,6.8c-1.7,2.9-1.7,3,0.8,4.1
		c1.3,0.6,2.4,1.6,2.4,2.3S224.9,329.8,225.9,327.7z"/>
	<path class="st0" d="M172.5,340.4c2.8-1.4,6.5-4.2,8.3-6.2c2.5-2.7,3.3-3.1,3.3-1.7c0,1.5,0.3,1.6,1.5,0.6c1.5-1.3,2.1-3.5,0.8-2.7
		c-0.4,0.3-3.2,0.1-6.1-0.4c-6.2-1-11.8,1-13.7,4.9c-0.6,1.3-2.1,3.4-3.3,4.8c-1.3,1.2-2.3,3.5-2.3,4.9v2.6l3.3-2.1
		C166.1,343.9,169.8,341.8,172.5,340.4z"/>
	<path class="st0" d="M145.6,299c0,0-31.4-6.6-30-6.5c1.7,0.1,1.7,0.1,0,0.6c-1.4,0.4-1.8,1.5-1.8,5.5c0,4.7,0.1,5,2.2,4.5
		c1.2-0.3,7.5-1.1,14-1.8c11.1-1.1,14.1-2.1,10-3.2c-1.2-0.3-0.9-0.5,0.8-0.6C142.2,297.4,144.4,298.1,145.6,299
		c2.4,1.1,2.5,1.6,1.8,10.3l-0.7,9C146.7,318.3,148.8,300.6,145.6,299z M136,296.9c-2.8,0-15.6-2.4-17.4-3.3
		c-2.1-1.1,9.9,0.5,14.9,1.9C136.4,296.3,137.4,296.9,136,296.9z"/>
	<path class="st0" d="M177.2,345.5c-5.9,3-6.1,5.8-0.6,7.5c3.8,1.1,5.2,1.2,10.8,0.4c3.9-0.5,4.6-1,4.6-2.9c0-1.8-1.1-2.6-5.9-4.4
		C180.7,344.1,180,344.1,177.2,345.5z"/>
	<path class="st0" d="M208.8,349.9c9.3-7.3,14-11.8,14.6-14.2c0.4-1.5,0.2-1.7-0.6-0.9c-0.6,0.6-3.1,1.1-5.4,1.1
		c-2.4,0-4.3,0.3-4.3,0.8c0,0.4-1.3,1.5-2.8,2.4c-3.1,1.7-8.3,10.5-8.3,14C202,354.9,202.9,354.5,208.8,349.9z"/>
	<path class="st0" d="M114.3,144.6c1.8-0.7,3.9-2.2,4.7-3.2c1.4-1.8,1.4-1.8-1.2-0.1c-1.8,1.2-4.1,1.7-6.8,1.4
		c-4.2-0.3-5.1,0.5-2.2,2.2c0.9,0.5,1.4,0.9,1.9,0.9c0.6,0.1,1.3-0.2,2.9-0.9C113.8,144.8,114.1,144.7,114.3,144.6z"/>
	<path class="st0" d="M159.2,36.7c3.5,2.3,8.3,6.2,10.8,8.8c2.5,2.5,4.6,4.2,4.8,3.7s-1-3.8-2.6-7.3C168.7,34,163.4,29,158.7,29
		h-3.2l3.6,1.9c2,1,4.1,2.5,4.8,3.4c0.7,0.8-1,0.3-3.8-1.2c-3.5-1.8-5.3-2.3-6.1-1.6C153.3,32.2,154.9,33.8,159.2,36.7z"/>
	<path class="st0" d="M82.4,83.6l0.7,3.2c0.9,4.2,2.6,6.2,7.4,8.4c6,2.7,6.2,2.6,5.7-4.2c-0.5-7.4,0.9-9.6,3.2-5.1
		c0.9,1.7,2.9,3.8,4.5,4.6c4.1,2.1,5.3,2,4.1-0.4c-1.3-2.5-1.3-7.2,0-10.7l1-2.7l1.7,3.3c0.9,1.8,2.8,3.8,4.2,4.5
		c1.4,0.7,4,2,5.8,2.9c3.2,1.7,3.3,1.7,4.3-0.9c1.7-4.4,1.1-9.3-1.6-14.6c-1.4-2.8-2.4-5.3-2.1-5.5c0.7-0.7,4.3,5.8,5.7,10.2
		c2.2,6.9,11.3,14.3,17.5,14.4c8.6,0.1,15,5.2,16,12.6c0.4,2.7,1.4,6,2.3,7.4l1.6,2.5l0.6-3c1-4.6,2.9-7.5,5.6-8.6
		c3.6-1.4,4.2-1.2,6.9,1.5l2.5,2.5l1.1-2.7c0.6-1.5,1.3-7.7,1.6-13.7c0.9-20.7-3.8-33.7-16.1-45.2c-9.2-8.6-17-12.5-30.6-15.3
		c-16.4-3.4-30.6-1.6-40.4,5.1c-4,2.7-11.6,12.6-11.6,15c0,2.1,0.4,2.3,3.1,0.8c1.1-0.6,1.9-0.7,1.9-0.2s-2.4,2-5.4,3.5
		C74.2,57.8,67,69.3,67,79.8c0,5.4,3.5,13.4,7.5,17.2c2.3,2.2,2.5,2.2,2.6,0.4c0.3-5.1,0.8-6.5,2.9-10L82.4,83.6z"/>
	<path class="st0" d="M94.4,122.4c1.3-0.4,2.7-0.1,3.1,0.6c0.4,0.6,0.9,0.9,1.2,0.7c0.3-0.3-0.3-1.7-1.2-3.1c-2-3-4.8-3-5.2,0.1
		C92,122.5,92.4,122.7,94.4,122.4z"/>
	<path class="st0" d="M159.3,330.3c-1.5,1.5-1.5,1.7,0.8,2.6c3.4,1.4,4.5,1.3,5.8-0.3c0.9-1.1,0.5-1.6-1.9-2.6
		C161.4,328.9,160.7,328.9,159.3,330.3z"/>
	<path class="st0" d="M178.1,192.2c2.8-4.2,5-8.5,5-9.4c0-3.2-12.5-9.8-18.6-9.8c-2.5,0-6,5.1-5.1,7.4c0.3,0.7-1.3,2.7-3.4,4.5
		c-5,4.1-9,7.8-16.6,15.3l-6.1,6l-4.2-2.1c-6.1-3.1-11.9-2.5-14.2,1.5c-2.1,3.7-3.7,9.8-1.9,7.5c0.9-1.2,1-1,0.5,1
		c-1.4,5.5-1.7,10.8-0.6,11.4c0.7,0.4,1.1-0.1,1.1-1.3c0-2.4,1.9-7.6,2.5-6.9c0.3,0.3,0,3.1-0.7,6.2c-0.9,4.3-0.9,6,0,6.9
		s1.2,0.2,1.2-2.9c0-2.2,0.7-4.9,1.6-5.9c1.5-1.9,1.6-1.9,0.9,0.6c-1.5,5.2-1.7,8.9-0.5,10.3c1,1.2,1.6,1,3.7-1.5
		c2.2-2.6,2.9-2.9,6.8-2.4c5.1,0.7,8-0.6,10.1-4.6c1-1.9,4.1-4.3,9.6-7.2C161.7,210.2,172.2,201.2,178.1,192.2z"/>
	<path class="st0" d="M157,142.5c-0.8,1.7-3.9,3.8-9.6,6.5c-8.7,4.1-13,5-13.9,2.8c-0.3-0.8-0.5-0.7-0.6,0.4c0,0.9,0.6,2.2,1.5,2.9
		c1.1,0.9,1.2,1.5,0.4,2c-1.8,1.1-0.1,4.9,2.6,5.6c1.3,0.3,2.4,1,2.4,1.4s-0.9,0.6-2,0.3c-1.6-0.4-2,0-2,2
		c0.2,2.2,2.8,16.5,3.7,19.4c0.8,2.5,11.4,0.8,15.4-2.5c4.7-3.8,8.5-30.2,4.4-30.2c-1.5,0-1.5-0.1,0-1.8c0.9-1,1.6-2.9,1.6-4.2
		c0-2.3,0-2.3-1.6-0.4c-1.6,1.9-1.6,1.9-0.9-0.1c1.4-3.9,1.7-6.5,0.7-6.5C158.6,140.1,157.6,141.2,157,142.5z"/>
	<path class="st0" d="M139.4,151.3c4-0.8,16.1-7.8,16.5-9.6c0.3-1.4-0.8-1.1-6.1,1.3c-3.6,1.6-8.6,3.4-11.1,4.1
		c-4.4,1.1-4.7,1.3-3.2,2.9C136.4,151,138,151.6,139.4,151.3z"/>
	<path class="st0" d="M160,27.8c3.9,0.5,8.7,4.2,11.1,8.6c2,3.5,2.3,3.7,3,2c0.5-1.4,0.8-0.9,0.8,2.1c0.1,4.3,2.7,14.4,6.1,24
		c1.5,4.1,2.3,9.4,2.7,16.5c0.6,11.6,1.9,14.2,7.7,15.9c4.4,1.3,10,1.3,13.2-0.1l2.8-1.1l-3.2-0.9c-5.1-1.4-4.7-2.6,1.2-3.1
		c4.2-0.3,6.4-1.2,9.2-3.5c5.8-4.7,10.8-14.6,6.5-12.8c-1,0.4-3.3,0.9-5.3,1.2c-2.9,0.4-3.9,0-6-2.2c-2.4-2.6-2.5-3.1-3.1-22.8
		c-0.3-11.1-1.1-21.5-1.6-23.2c-3.7-11.1-12.7-21.6-20.6-24C172.2,0.8,156,10.8,156,22.2C156,26.3,156.8,27.4,160,27.8z"/>
	<path class="st0" d="M206.6,327.8c-0.3,0.5,1,1.3,2.9,1.6c2.5,0.5,3.9,1.4,4.5,3c0.8,2,1.3,2.2,4.7,1.7c4.2-0.7,5.7-3.3,2.6-4.9
		C218.5,327.7,207.3,326.7,206.6,327.8z"/>
	<path class="st0" d="M162.9,337.9c0.7-1.1,1.2-2.2,1-2.3c-0.2-0.1-4-1.6-8.6-3.3l-8.3-3.1v2.8c0,3.3,0.6,3.8,7,6.2
		C160.1,340.4,161.3,340.4,162.9,337.9z"/>
	<path class="st0" d="M148.3,321.4c-0.6,0.3-1,1.9-0.9,3.4c0.1,2,0.9,3.1,3.6,4.4c4.3,2.1,5.4,2.2,6.9,0.4c1-1.2,0.4-1.9-3.2-4
		c-2.4-1.4-4.9-2.6-5.6-2.6c-0.7,0-0.9-0.5-0.5-1.1C149,321.2,148.9,321,148.3,321.4z"/>
	<path class="st0" d="M165.3,307.4l-4.9-0.6l-1.7,4.3c-1.8,4.7-1.7,5,3.4,7.9c1.9,1,3.8,1.9,4.3,2c1.8,0.1,6.6-6,6.6-8.3
		C173,309.4,171.1,308.1,165.3,307.4z"/>
	<path class="st0" d="M193.9,348.6c-1.3,0.8-0.5,9.4,1.2,14.2c1.4,4,2.8,4.1,3.6,0.2c0.3-1.7,1-3.3,1.5-3.6c0.5-0.3,0.9-2.7,0.9-5.4
		c0-4.6-0.1-4.9-3.1-5.4C196.3,348.3,194.4,348.3,193.9,348.6z"/>
	<path class="st0" d="M152.6,339.7c-1,1.1-0.6,13.4,0.4,15.4c0.6,1.1,1.4,1.9,2,1.9c1.4,0,5-8.9,5-12.5c0-2.8-0.4-3.3-3.4-4.3
		C154.7,339.6,152.9,339.4,152.6,339.7z"/>
	<path class="st0" d="M165.1,172c5.2,0,15.9,4.7,18.2,8.1c1.8,2.6,2.7,2.1,4.6-3.1c1.7-4.5,4.8-9,6.2-9c0.6,0,0.3,0.9-0.7,2
		c-1.4,1.5-1.5,2-0.4,2c0.9,0,0.7,0.6-0.7,1.8c-2.2,1.8-4.4,5.3-4.4,7.1c0.1,0.5,1.8,1.6,3.9,2.4c4.5,1.9,5.4,1.9,8.7,0.7
		c3.1-1.2,6.6-6.5,6.6-10.1c0-2.9-10.6-20.8-15.4-25.8c-3.7-3.9-11.5-8.2-15-8.2c-3,0-7.5,3.5-8.9,6.9c-0.6,1.4-2.1,6.9-3.4,12.2
		c-1.3,5.3-2.6,10.3-3,11.3C160.9,171.7,161.4,172,165.1,172z"/>
	<path class="st0" d="M203.8,344.8c0.3-1.3-1.6-2.3-8.5-4.3c-4.8-1.5-9.8-3.3-11.1-4.1c-2.8-1.8-4.2-1.1-4.2,2c0,3,2.8,5.4,8.2,7.1
		C194.2,347.4,203.4,347,203.8,344.8z"/>
	<path class="st0" d="M191.5,295c2.6-1,2.6-1.1,2.3-10.2l-0.3-9.3l-11.2,0.3c-7,0.2-13.1-0.1-16.2-0.9c-2.7-0.7-5.3-1-5.6-0.7
		c-0.8,0.8,3.6,17,5,18.5c0.6,0.6,2.7,1.6,4.6,2.2c3.3,0.9,3.4,1,0.7,1.1c-3.6,0.1-9-2.6-8.1-4.1c0.4-0.7,0.2-0.8-0.5-0.4
		c-1.6,1-0.5,4.6,2.1,6.8c1.1,1,1.8,2.1,1.4,2.4c-0.4,0.4-1.2,0.1-1.8-0.5c-1.7-1.7-2.8-1.4-2.8,0.7c0,2.8,3,5,7.9,5.7
		c3.3,0.5,4.5,1.3,5.2,3.1c0.6,1.4,1.7,2.4,3,2.4c1.1,0,1.8,0.5,1.5,1s-1.5,1-2.5,1c-3.1-0.1-3.1,3.2-0.2,5.1
		c3.1,2.1,3.2,2.1,7.5,0.3c4.4-1.9,10.1-10.5,5.8-8.9c-1.1,0.4-1.4,0.3-0.9-0.5c0.4-0.6,1.3-1.2,2-1.2s1.8-1.1,2.4-2.5
		c1.5-3.3,1.5-3.8-0.3-3.1c-0.8,0.3-1.5,0.2-1.5-0.3s0.7-1.1,1.5-1.4s1.5-1.4,1.5-2.4s0.6-2.4,1.3-3.2c1-1.1,1-1.3-0.3-0.8
		c-6.1,2.1-12.9,2.9-17,2c-4.4-1-4.4-1,3.2-1.1C185.4,296,190.1,295.5,191.5,295z"/>
	<path class="st0" d="M149.3,337.9c-1.5,0.1-1.7,3.3-0.7,13c0.5,4.4,1.1,6.1,2.1,6.1s1.2-0.6,0.6-2.3c-0.5-1.2-0.8-5.5-0.7-9.5
		C150.7,339.6,150.4,337.9,149.3,337.9z"/>
	<path class="st0" d="M192,321.5c0.6-0.3,1-1.5,1-2.6s-0.4-1.7-1-1.4c-0.6,0.3-1,1.5-1,2.6S191.4,321.8,192,321.5z"/>
	<path class="st0" d="M190.9,314.3c-1.1,2.1-3.3,4.6-4.9,5.6c-2.2,1.3-2.7,2-1.8,2.9c0.6,0.6,1.6,0.9,2.1,0.6
		c1.6-1,6.7-9.6,6.7-11.3C193,311.3,192,312.3,190.9,314.3z"/>
	<path class="st0" d="M187.2,333.5c-1.9,1.8-1.4,2.3,3.5,4c2.7,0.9,4.2,1,5.1,0.3c2-1.7,1.5-2.5-2.9-4.2
		C189.2,332.1,188.6,332.1,187.2,333.5z"/>
	<path class="st0" d="M181.8,322.9c-0.6,0-3-1-5.4-2.1c-4.3-2.1-8-1.9-7.2,0.4c0.2,0.7,1.5,1.5,2.8,1.8c1.5,0.4,2.4,1.3,2.4,2.5
		c0.1,1.1,1,2.3,2.1,2.6c5.4,1.8,9.2,0.1,7.4-3.3C183.3,323.8,182.4,322.9,181.8,322.9z"/>
	<path class="st0" d="M150.4,316.2c-2.7,2.7-0.8,5.2,7.4,9.6c8.4,4.5,11.2,5.1,13.7,2.6c2.1-2.1,2-3.5-0.5-4.1
		c-2.4-0.6-14.7-6.7-17.2-8.5C152.4,314.8,151.8,314.8,150.4,316.2z"/>
	<path class="st0" d="M155.7,313.8c0.9-0.9,1.4-2,0.9-2.4c-0.7-0.9-2.6,1.3-2.6,3.1C154,315,154.7,314.7,155.7,313.8z"/>
	<path class="st0" d="M197.8,337.3c-1.2,1.8-0.9,2.5,1,3c2.8,0.8,7.6,0.3,7.9-0.9C207.2,337.8,198.7,335.8,197.8,337.3z"/>
	<path class="st0" d="M213,333.4c0-0.7-3-2.2-6.7-3.4c-3.7-1.2-8.8-3.3-11.5-4.6c-5.9-3-6.3-3-7.6,0c-0.9,2-0.8,2.7,0.6,3.9
		c1.7,1.4,14.9,7.1,18.7,8c1.1,0.3,2.2,0.5,2.4,0.6C209.8,338.2,213,334.6,213,333.4z"/>
	<path class="st0" d="M111.3,135.2c-0.7,0.5-2,0.7-3.1,0.4c-1-0.3-2.7,0-3.8,0.9c-1.8,1.4-1.7,1.5,2.3,1.5c3.9,0,12.9-2.3,14.5-3.8
		C122.3,133.1,112.6,134.2,111.3,135.2z"/>
	<path class="st0" d="M78.1,361.2c-1.4-35.2-2.9-50-5.1-51.2c-1-0.5-5.5-1.9-10.1-2.9c-9-2.1-38.9-11.7-45.1-14.4L14,291v2.4
		c0,2,0.9,2.8,4.5,4.2c2.5,0.9,4.8,2.1,5,2.6c0.3,0.5-1.6-0.1-4.2-1.2l-4.7-2l0.6,2.8c0.3,1.5,1.1,10,1.7,18.8
		c1,14.4,4,44.8,4.4,45.1c0.1,0.1,5.8,3,12.7,6.5c12.6,6.4,27.8,13.1,38,16.7c7.1,2.5,8.3,2.5,7.6,0.3
		C79.3,386.2,78.6,374.5,78.1,361.2z"/>
	<path class="st0" d="M114.3,313.3c-0.2,0.3-0.2,1.5,0.2,2.7s1.2,1.9,1.9,1.7c0.6-0.3,3.7-1,6.8-1.6c5.4-1.1,8.9-3.4,7.4-4.8
		C129.9,310.6,115.3,312.4,114.3,313.3z"/>
	<path class="st0" d="M17,291c1.9,1.2,2,1.2,2,0c0-0.5-0.8-1-1.8-1C15.8,290,15.7,290.2,17,291z"/>
	<path class="st0" d="M111.3,313.3c-1,0.3-5.3,1.1-9.6,1.7c-7.1,1.2-7.7,1.5-7.7,3.6c0,2.7,0.3,2.8,11,1c7.2-1.1,7.5-1.3,7.8-4
		C113.1,313.2,112.8,312.8,111.3,313.3z"/>
	<path id="utxrexrex" class="st0" d="M60.8,288.3c6.1,1.6,30.3-3.5,30.3-6.4c0-1.7-7.5-3.2-14-2.7C66.2,280,54.3,286.6,60.8,288.3z"
		/>
	<path id="yicyrctrxuex" class="st0" d="M225,335.1c0,2.7-4.8,7.9-13.6,14.6c-6.4,4.8-11.4,10.9-11.4,13.8c0,1.3,2.3,0.2,9.5-4.6
		c9.1-6.2,13.7-11.2,17.6-19.3c2.8-5.8,4-14.5,2-14.5C228,325.1,225,332.4,225,335.1z"/>
	<path id="yiciyctr" class="st0" d="M21.1,282.1c1.9,1.2,15.3,1.1,22.5-0.2c12.6-2.3,8-4.4-8.3-3.7
		C24.4,278.6,18.3,280.3,21.1,282.1z"/>
	<path id="iycfcyfcy" class="st0" d="M54,281.2c0,2.3,4.5,2.4,8.9,0.2c1.8-0.9,6.5-2.2,10.4-2.8c6-1,6.8-1.4,4.7-2
		c-3.1-1-18.4-1.1-22.8-0.1c-2.4,0.5-3.1,1-2.3,1.8C53.5,278.9,54,280.2,54,281.2z"/>
	<path id="ouvtc" class="st0" d="M174.4,366.4c3.5,1.7,14.1,2.1,18,0.7l2.5-0.9l-1.6-5.6l-1.6-5.6h-7c-9,0-10.8-0.5-12.7-3.7
		l-1.6-2.6l-1.8,2.7C164.9,356.9,167.2,362.9,174.4,366.4z"/>
	<path id="_x2D_ouvo" class="st0" d="M208.8,361.1c-16,9.9-31.1,11.1-40.1,3.1c-1.6-1.4-1.8-1.4-1.8,0.2c0.1,3.2,2.2,5.7,6.4,7.7
		c3.5,1.7,5.8,1.9,15.2,1.6c12.6-0.4,16.4-1.9,23-8.7c2.2-2.3,5.6-5,7.5-6s5.5-3.6,7.9-5.7c4.3-3.8,4.4-4.2,5.2-11.3
		c0.4-4.1,0.4-7.8,0-8.2c-0.4-0.4-1.6,1.5-2.7,4.3C226.4,345.7,217.5,355.7,208.8,361.1z"/>
	<path id="ytcitco" class="st0" d="M171.6,347.5c3.1-1.5,5.4-4.6,5.4-7.5c0-0.5-2.8,0.6-6.3,2.5c-5.6,3-12.7,10.1-12.7,12.6
		c0,1.2,0.5,1.2,4.4-0.5c1.9-0.8,3.9-2.3,4.5-3.4S169.6,348.4,171.6,347.5z"/>
	<path id="ytyt" class="st0" d="M146,321.4v-13.1l-3.6,0.4c-2.5,0.3-3.4,0.1-2.9-0.7c0.4-0.6,2.3-1.1,4.1-1.1c2.7,0,3.4-0.4,3.4-1.9
		c0-4.8,0-4.8-16.3-2.9c-8.4,1-21.8,2.9-29.7,4.2c-8,1.3-16.9,2.7-19.8,3.1c-5.2,0.7-5.3,0.7-5,3.8c0.3,3,0.5,3.1,4.1,2.9
		c2.5-0.2,3.6,0.1,3.2,0.8c-0.3,0.6-2,1-3.7,1h-3.1l0.7,7.8c0.4,4.3,1.3,20.1,2.1,35.3c0.8,15.1,1.4,27.7,1.5,27.9
		c0.1,1.2,52.8-8.4,65.4-12c3.8-1.1,3.9-1.1,3.2-5.1C148.1,362.3,146,333.4,146,321.4z M135.3,312.1c-0.7,4-2,4.8-13,7.5
		c-10.3,2.5-27.2,4.2-28.5,2.9c-0.4-0.4-0.8-2.3-0.8-4.1c0-1.8,0.3-3.3,0.8-3.3s8.8-1.4,18.8-3C135.7,308.2,135.9,308.2,135.3,312.1
		z"/>
	<path id="aruuea" class="st0" d="M233.3,293.6c1,5.6-23.1,9.9-33.7,6.1c-2.2-0.8-4.1-1.5-4.3-1.5c-0.1,0-0.3,1.2-0.3,2.7
		s1.2,3.9,2.8,5.6c1.9,2,2.2,2.8,1,2.3c-2.2-0.8-2.4,1.5-0.3,3.6c0.8,0.8,1.3,1.6,1.1,1.8c-0.2,0.2,0.6,0.4,1.8,0.5
		c11.3,0.5,14.7,0.9,14.7,1.6c0,0.5-0.8,0.8-1.9,0.8c-1.4,0-1.8,0.7-1.8,2.8c0,1.4-0.4,3.4-0.8,4.4c-0.7,1.5-0.3,1.8,2.7,1.8
		c2.9,0,3.9-0.6,6.2-4c1.5-2.2,3.8-4.7,5.1-5.5c2.9-1.9,3.2-3.9,0.4-3.2c-1.1,0.3-2,0.1-2-0.4s0.7-0.9,1.6-0.9c2,0,6.4-4.5,6.4-6.5
		c0-1.4-0.3-1.4-3,0c-1.6,0.9-3,1.2-3,0.7s1.6-1.6,3.6-2.5c2.4-1.1,4.1-2.9,5.1-5.3c1.4-3.3,1.4-3.8-0.1-5.2
		C233.1,291.8,233,291.8,233.3,293.6z"/>
	<path id="pojp" class="st0" d="M164.4,356.3c-0.7-0.5-2.1-0.1-5.8,1c-4,1.2-4.9,1.5-5.9,1.6c-0.3,0-0.6,0-1,0c-0.1,0-0.1,0-0.2,0
		c-0.9,0.1-1.5,1.1-1.5,2.7c0,2.6,0.1,2.6,4.9,2c8.4-1.1,10.9-2.3,10.3-5.2C165,357.3,164.9,356.6,164.4,356.3z"/>
	<path id="szwwz" class="st0" d="M20.5,289.7c0.8,3.3,2.1,3.9,21,9.9c5.5,1.8,10.3,3.2,10.8,3.3c0.4,0,0.8-4.9,0.8-10.9
		s-0.1-11-0.3-11c-0.1,0-2.7,0.7-5.8,1.5c-3.2,0.9-10,1.5-16.3,1.5c-0.3,0-0.6,0-0.9,0c-6.3,0-8.8,0-9.6,1.2c-0.5,0.8-0.3,2,0.2,4.1
		C20.4,289.4,20.4,289.6,20.5,289.7z"/>
	<path id="cciyci" class="st0" d="M229.5,189.9c-4.3-3.4-10.9-9.1-14.5-12.6l-6.6-6.4l-0.5,4.6c-0.6,5.6-3.7,9.2-8.6,10.2
		c-3.2,0.6-4.6,0.3-10.4-2.1c-1.3-0.5-2-0.1-2.8,2c-0.6,1.5-1.8,2.9-2.8,3.2s-2.9,2.4-4.2,4.8c-3.3,6-16.2,17-27.3,23.2
		c-5.1,2.8-9.6,5.8-10.1,6.6c-0.6,1-0.3,2.4,1.3,4.6c1.2,1.7,3.1,5.7,4.2,8.8c1.7,5,2.4,9.2,4.6,28c0.4,3.8,0.8,4.3,5.2,6.1
		c2.6,1.1,6.2,2.3,8.1,2.6c2.8,0.5,3.3,0.4,2.7-1c-1.5-4-1.9-6.7-0.8-6c0.6,0.4,1.1,1.6,1.1,2.7c-0.1,1,0.4,2.9,1,4
		c1.1,2,1.7,2.1,12.8,1.5c17.3-0.9,27.7-2.5,36.6-5.6c13-4.5,25.4-12.3,32.3-20.1l3.3-3.7l-3.6-4.9c-5.9-7.8-5.9-8.2-0.6-2.7l5,5.2
		l4.2-6c2.3-3.3,4.8-8,5.5-10.3l1.3-4.3l-9.2-8.9C247.1,204.2,242.8,200.5,229.5,189.9z"/>
	<path id="fxdxd" class="st0" d="M170.9,120.2c-0.7-0.7-0.3-1,1.5-1c3.7,0,5.4-1.8,6.1-6.8c0.9-5.7-1.3-9.4-5.4-9.4
		c-4,0-6.6,3.3-6.5,8.1c0.2,7.5-5.9,2.7-7.1-5.7c-0.4-2.5-1.1-5.6-1.7-6.8c-1.1-2.4-6.1-5.6-8.9-5.6c-6.1,0-12.2-2.4-16.9-6.7
		c-3.9-3.5-5-4.1-5-2.7c0,1-0.7,3.1-1.5,4.7c-1.4,2.7-1.3,3,0.8,4.8c2,1.8,2,1.9,0.2,1.3c-1.1-0.4-3.5-1.2-5.3-1.8
		c-3.8-1.3-4.3-2.6-1-2.7c1.6-0.1,0.9-0.7-2.8-2.5c-2.8-1.3-5.8-3.3-6.8-4.5c-1.7-2.1-1.8-2.1-1.8,2c0,2.3,0.5,5.1,1.1,6.2
		s0.9,2.2,0.7,2.4c-1.1,1.1-7.1-1.1-9.8-3.6l-3-2.8l-0.6,2.5c-0.3,1.4-0.1,3.6,0.5,5c1.6,3.6,1.5,3.7-3.4,3c-5.4-0.7-9.1-3-11.6-7
		l-1.8-3l-0.7,2.7c-0.4,1.5-0.4,4.4,0,6.4c0.9,4.9,5.3,17.4,6.5,18.6c0.5,0.5,2.9,1.2,5.2,1.5c3.4,0.4,4.7,1.2,6.3,3.8
		c1.4,2.2,2.6,3,3.8,2.7c1-0.3,2.8-0.2,4,0.3c2,0.7,1.9,0.8-1.3,1.3c-2.7,0.4-3.5,1-3.5,2.5c0,1.7,0.6,2,3.7,1.9
		c2.1-0.1,3.5,0.3,3.2,0.8c-0.8,1.3-12.1,0.3-13.9-1.2c-1.9-1.6-1.9-1,0.6,5.2c2.3,5.9,5,9.3,9.3,11.5c3.2,1.7,4.5,1.3,2.2-0.6
		c-0.8-0.7-1.5-1.9-1.5-2.8c0-0.8-0.7-2-1.6-2.7c-2.2-1.6-0.8-4.5,2.4-5.1c1.4-0.3,4.3-1,6.3-1.5s5.4-0.9,7.7-0.9
		c2.2,0,4.4-0.5,4.7-1.1c0.4-0.7,1.1-0.7,2.1,0.2c1.2,1,1.1,1.4-0.8,2.3c-1.2,0.6-2.5,2.4-3,4c-0.7,3.5-3.1,6.3-7.6,8.7l-3.5,1.9
		l11.5-0.4c16.5-0.6,28.6-5.1,40.1-14.8C168.5,128.3,172.5,121.8,170.9,120.2z M171.5,108.6c2.5-2,4-2,5.7,0.1
		c1.2,1.5,1.1,1.6-0.9,0.9c-1.8-0.6-2.2-0.4-1.7,0.8c0.3,0.9,0.3,1.6,0,1.6c-0.4,0-0.9-0.7-1.2-1.4c-0.3-0.8-1.3-1.2-2.2-0.9
		C169.9,110.1,169.9,109.9,171.5,108.6z M89,108.2c-2,5.2-3.3,5.8-2.6,1.4c0.6-4,2.1-6.5,3.3-5.3C90,104.6,89.7,106.4,89,108.2z
		 M130.1,107c0.5,1.2,0.9,3.8,0.7,5.8c-0.3,3.3-0.6,3.7-3.4,4c-3.8,0.4-5.5-1.2-7.3-6.5c-1.2-3.6-1.1-4.3,0.8-7.9
		c1.5-2.9,2.1-3.4,2.2-1.9l0.1,2l0.9-2c0.7-1.7,0.9-1.8,0.9-0.3c0.1,1.8,1.5,2.4,2.3,1c0.2-0.4,0.3-0.2,0.1,0.5
		c-0.5,2,1.4,2.4,2.5,0.5c0.9-1.6,1-1.6,1.1-0.1c0,0.9-0.4,2-1,2.3C129.3,104.8,129.4,105.7,130.1,107z"/>
	<path id="ffcfc" class="st0" d="M130.4,203.2c2,1.4,3.1,0.7,12.1-7.9c8.5-8.1,8.8-8.5,5.5-7.8c-1.9,0.4-4.8,0.8-6.4,0.8
		c-3.4,0.1-4-1.3-5.6-14.4c-1.5-11.8-2.9-16.3-4.6-14.9c-2.2,1.8-4.4,10.8-4.4,18.2C127,186.5,129.1,202.3,130.4,203.2z"/>
	<path id="szsf" class="st0" d="M121,107.6c0,2.2,0.2,2.3,2.6,1.2c2.3-1.1,2.9-1,4.3,0.9c2.2,2.8,2.7,2.1,1.1-1.7
		C126.6,102.2,121,101.9,121,107.6z"/>
	<path id="tfuydut" class="st0" d="M118.3,183.8c2.9,0.5,5.6,1,6,1.1s0.8-2,0.8-4.6s0.6-7.6,1.3-11c1.1-5.3,1.1-6.1-0.1-5.1
		c-2,1.7-13.3,16.8-13.3,17.8C113,182.5,115.4,183.3,118.3,183.8z"/>
	<path id="tfyyyyyyyy" class="st0" d="M112.3,140.1c-1.2,0-2.5,0.4-2.8,0.9c-1,1.6,5,1.1,7.1-0.6c1.9-1.6,1.9-1.6-0.1-0.9
		C115.4,139.9,113.5,140.2,112.3,140.1z"/>
	<path id="mvhc" class="st0" d="M60.9,304.4c0.6,0.5,3.8,1.7,7.3,2.7c6.1,1.8,8.3,1.8,19.4,0.3l4.5-0.6l-0.2-11.4
		c-0.1-10.2-0.3-11.4-1.8-10.7c-5.8,2.6-20.2,5.5-25.5,5.1l-5.9-0.4l0.7,7.1C59.8,300.4,60.5,304,60.9,304.4z"/>
	<path id="dfgdeh" class="st0" d="M230.1,265.3c-9,4.6-19.8,8-29.2,9c-2.7,0.3-4.3,0.4-5,1.2c-1.1,1.1-0.6,3.7,0.5,10.2
		c0.1,0.5,0.2,1.1,0.3,1.6c1.5,9.8,2.3,11.3,5.6,12c3.1,0.6,17.5-0.3,22-1.5c4.8-1.2,7.7-4.1,7.8-7.6c0-1.5,1.5-8.6,3.4-15.8
		c1.9-7.2,3.3-13.1,3.2-13.2S234.7,263,230.1,265.3z"/>
	<path id="b" class="st0" d="M89.3,280.1c4.3,2.2,7.6,2.2,15.4,0.2c5.9-1.5,6.4-1.8,4.8-3c-2.6-1.9-23.5-1.4-23.4,0.6
		C86,278.2,87.5,279.2,89.3,280.1z"/>
	<path id="dfgd" class="st0" d="M55.3,284c-1.5,0-1.6,1.5-0.7,12.3c0.5,5.8,1.1,7.7,2.3,8c0.9,0.2,1.8,0.3,1.9,0.1
		c0.2-0.1-0.2-4.8-0.9-10.3C57,286.9,56.3,284,55.3,284z"/>
	<path id="hdg" class="st0" d="M104.4,281.5c-3.3,0.8-7.2,1.5-8.8,1.5h-2.8v9.9c0.2,5.5,0.5,10.7,0.8,11.6c0.4,1.1,1.4,1.5,2.8,1.2
		c1.2-0.3,4.4-0.8,7.1-1.2c4.1-0.5,6.2-0.6,7.3-1.8c1.2-1.2,1.2-3.6,1.2-9c0-0.7,0-1.5,0-2.3c0-6.3-0.3-11.4-0.8-11.4
		C110.8,280,107.8,280.7,104.4,281.5z"/>
	<path id="fdgsf" class="st0" d="M113.9,275.9l3.6-0.1l-8-1.6l9.3,0.3l0.5-5.8c0.3-3.9,1.8-8.4,4.2-13.4c3.2-6.5,3.8-8.8,4.2-16.9
		c0.5-8.2,0.4-9.4-1.1-9.4c-0.9,0-2.3,1.4-3.2,3c-1.8,3.6-2.7,3.7-6.6,0.8c-4.3-3.1-5.9-7.2-5.9-14.2c0-7.8,1.4-12.7,4.4-15.5
		c2-1.9,3.3-2.2,7.6-1.9l5.1,0.4l-0.6-4.5c-1.4-10-1.3-9.9-6.8-11.5c-5.9-1.8-14.4-1.9-20.7-0.2c-4.3,1.1-4.5,1.3-5.2,5.7
		c-0.4,2.5-0.7,7.7-0.8,11.7c-0.1,6.6,0.1,7.2,2.2,7.9c1.2,0.4,3.4,1.8,4.9,3.2c2.3,2.1,2.7,3.4,2.9,8.6c0.6,16,0.3,17-4.5,16.1
		c-3.5-0.7-3.5-0.6-3.5,2.7c0,5.7,2,11.1,6,16.2c2.6,3.3,4.2,6.6,5.1,10.5c0.8,2.9,1.8,6.1,2.3,6.8S111.9,276,113.9,275.9z"/>
	<path id="a_1_" class="st0" d="M97.7,236.5c4.3,0.6,5.3,0.4,5.3-0.8c0-2.3-3.6-5-7.8-5.8c-3.5-0.7-3.5-0.7-0.8-0.8
		c1.7-0.1,4.3,0.6,5.9,1.4c3.5,1.8,3.6,1.8,3.6,0.2c0-2.3-4.8-5.9-8.7-6.7c-3.5-0.7-3.5-0.7-0.8-0.8c1.7-0.1,4.3,0.6,5.8,1.4
		c2.7,1.4,2.8,1.4,2.5-0.8c-0.2-1.6-2-3.1-5.8-5s-4.6-2.6-2.5-2.1c1.7,0.3,4.1,1.3,5.3,2.1c3,1.9,3.8,1,2.3-2.3
		c-1.1-2.4-6.4-5.4-9.6-5.4c-2.7,0-7.5,5-8.2,8.5c-0.8,5.3,1.6,13.4,5.4,17.2c3.1,3.1,5.4,4.2,5.4,2.4c0-0.4-0.6-1.4-1.3-2.1
		C92.7,236.1,93.5,236,97.7,236.5z"/>
</g>
<g id="outline_1_">
	<g id="outline">
		<path d="M96.5,388.4c-15.3,2.4-16.7,2.5-21,1.1c-11.3-3.5-46.6-19.7-53.6-24.6c-2.4-1.7-2.7-2.7-3.7-13.6
			c-0.6-6.5-1.4-17.2-1.7-23.8c-0.7-14.1-2.3-28.3-3.6-30.7c-0.5-0.9-0.6-3-0.3-4.7c0.5-2.3,1.2-3.1,3.2-3.3
			c2.3-0.3,2.7-0.9,2.9-4.1c0.5-6,3.1-7.1,18.6-7.8c7.2-0.4,16.2-1.2,19.9-1.9c5.4-1,8.8-1,16,0c5,0.7,9.8,1.1,10.6,1.1
			c0.8-0.1,6.4-0.4,12.4-0.7l10.9-0.6l-0.5-3.9c-0.6-4.6-3.8-11.1-7.7-15.5c-1.9-2.1-3-4.8-3.5-8.1c-0.6-4.3-1.2-5.3-4.3-7.3
			c-4.6-3-7.6-8.8-8-15.8c-0.4-6.6,2.1-11.6,6.8-13.4l2.9-1.1v-11c0-6.1,0.4-11.6,0.8-12.2c0.9-1.4,8.3-3.3,13.3-3.3
			c3.3,0,4-0.6,8.8-7.5c2.9-4.1,7.8-10.2,10.8-13.6c4.4-4.8,5.6-6.8,5.7-9.5l0.1-3.4l-11.5,0.1c-17.9,0.2-23.5-3.2-27.9-17
			c-1.2-3.9-3-7.9-4-8.9c-0.9-1-1.9-2.3-2-2.8c-0.2-0.6-0.5-1.7-0.8-2.5s-1.5-4-2.8-7s-2.6-7.2-3-9.3c-0.4-2.1-1-3.8-1.5-3.8
			c-0.4,0-0.6,0.9-0.3,2c0.8,3.2-1.3,2.3-5.1-2.2c-6.3-7.3-7.9-12-7.3-20.3c0.7-9,3-13.8,10.1-20.8c2.9-2.9,5.8-6.7,6.4-8.5
			c3.1-8.9,15.2-19,25.5-21.2c9.9-2.1,30.2-0.3,39.9,3.6c3.7,1.5,4,1.5,5.3-0.3c0.8-1.1,1.4-4.2,1.5-7.5c0-4.6,0.6-6.3,2.9-9.6
			c3.6-5,7.2-7.6,13.4-9.7c9.1-3.1,15.6-1.6,23.3,5.6c4.5,4.1,9.7,12.1,11.7,18.1c0.6,1.8,1.4,12.3,1.7,23.4
			c0.6,19.6,0.7,20.3,3,22.8c2.8,3,4.4,3.2,8.4,1.1s4.6-1.9,4.6,1.3c0,6.3-8.3,15.4-15.4,16.9l-2.9,0.6l5.8,2.3l-2.5,1.4
			c-1.6,0.9-5.5,1.4-10.7,1.4c-6.9,0-8.6-0.3-11.2-2.2l-3-2.2l-0.6,3.7c-0.4,2.1-1.2,5.8-2,8.3s-1.9,6.4-2.5,8.8
			c-0.8,2.9-1.9,4.6-3.5,5.4c-1.3,0.6-2.9,2.3-3.5,3.7c-1.4,3.2-5.5,7.8-10.3,11.5c-3.6,2.7-3.6,2.8-1.7,4.7c1.4,1.4,2.5,1.7,4.2,1
			c1.3-0.5,5.3-1.2,8.9-1.6c5.2-0.6,7.3-0.4,10.1,1c5.9,2.8,11.5,8.4,15.8,15.6c5.1,8.6,18.6,22.9,31,32.8
			c22.5,17.8,37,31.4,37,34.6c0,2.2-4.6,11.2-8.6,16.6c-1.9,2.5-3.4,5.1-3.4,5.6c0,0.6-3.2,4-7,7.6c-7.7,7.3-8.7,9.5-12.9,28.1
			c-2,8.8-2,9-0.1,10.3c2.5,1.7,2.5,4.9-0.1,8.7c-1.1,1.6-2,4.2-2,5.6s-0.9,3.4-1.9,4.4c-1.6,1.4-1.8,2.7-1.4,6.9
			c0.6,6.2,2.4,13.7,3.6,15.3c0.5,0.6,0.6,4.8,0.2,9.3c-0.8,9.1-2.1,11.2-10.5,16.1c-2.3,1.4-6.7,4.8-9.7,7.7
			c-6.5,6.2-13.2,9-23.5,9.9c-12.9,1.1-23.6-3.7-23.6-10.5v-3l-4.8,1.4c-2.6,0.8-6.1,1.5-7.8,1.7c-3.2,0.3-3.2,0.4-2.1,8l0.7,4.4
			l-13.8,2.8c-7.6,1.5-17.8,3.6-22.8,4.6S102,387.5,96.5,388.4z M169.1,273.2c1.1,2,1.7,2.1,12.8,1.5c17.3-0.9,27.7-2.5,36.6-5.6
			c13-4.5,25.4-12.3,32.3-20.1l3.3-3.7l-3.6-4.9c-5.9-7.8-5.9-8.2-0.6-2.7l5,5.2l4.2-6c2.3-3.3,4.8-8,5.5-10.3l1.3-4.3l-9.2-8.9
			c-9.6-9.2-13.9-12.9-27.2-23.5c-4.3-3.4-10.9-9.1-14.5-12.6l-6.6-6.4l-0.5,4.6c-0.6,5.6-3.7,9.2-8.6,10.2
			c-3.2,0.6-4.6,0.3-10.4-2.1c-1.3-0.5-2-0.1-2.8,2c-0.6,1.5-1.8,2.9-2.8,3.2s-2.9,2.4-4.2,4.8c-3.3,6-16.2,17-27.3,23.2
			c-5.1,2.8-9.6,5.8-10.1,6.6c-0.6,1-0.3,2.4,1.3,4.6c1.2,1.7,3.1,5.7,4.2,8.8c1.7,5,2.4,9.2,4.6,28c0.4,3.8,0.8,4.3,5.2,6.1
			c2.6,1.1,6.2,2.3,8.1,2.6c2.8,0.5,3.3,0.4,2.7-1c-1.5-4-1.9-6.7-0.8-6c0.6,0.4,1.1,1.6,1.1,2.7C168,270.2,168.5,272.1,169.1,273.2
			z M162.8,111l1.6,2.5l0.6-3c1-4.6,2.9-7.5,5.6-8.6c3.6-1.4,4.2-1.2,6.9,1.5l2.5,2.5l1.1-2.7c0.6-1.5,1.3-7.7,1.6-13.7
			c0.9-20.7-3.8-33.7-16.1-45.2c-9.2-8.6-17-12.5-30.6-15.3c-16.4-3.4-30.6-1.6-40.4,5.1c-4,2.7-11.6,12.6-11.6,15
			c0,2.1,0.4,2.3,3.1,0.8c1.1-0.6,1.9-0.7,1.9-0.2s-2.4,2-5.4,3.5C74.2,57.8,67,69.3,67,79.8c0,5.4,3.5,13.4,7.5,17.2
			c2.3,2.2,2.5,2.2,2.6,0.4c0.3-5.1,0.8-6.5,2.9-10l2.4-3.8l0.7,3.2c0.9,4.2,2.6,6.2,7.4,8.4c6,2.7,6.2,2.6,5.7-4.2
			c-0.5-7.4,0.9-9.6,3.2-5.1c0.9,1.7,2.9,3.8,4.5,4.6c4.1,2.1,5.3,2,4.1-0.4c-1.3-2.5-1.3-7.2,0-10.7l1-2.7l1.7,3.3
			c0.9,1.8,2.8,3.8,4.2,4.5s4,2,5.8,2.9c3.2,1.7,3.3,1.7,4.3-0.9c1.7-4.4,1.1-9.3-1.6-14.6c-1.4-2.8-2.4-5.3-2.1-5.5
			c0.7-0.7,4.3,5.8,5.7,10.2c2.2,6.9,11.3,14.3,17.5,14.4c8.6,0.1,15,5.2,16,12.6C160.9,106.3,161.9,109.6,162.8,111z M81,388.9
			c0.1,1.2,52.8-8.4,65.4-12c3.8-1.1,3.9-1.1,3.2-5.1c-1.5-9.5-3.6-38.4-3.6-50.4v-13.1l-3.6,0.4c-2.5,0.3-3.4,0.1-2.9-0.7
			c0.4-0.6,2.3-1.1,4.1-1.1c2.7,0,3.4-0.4,3.4-1.9c0-4.8,0-4.8-16.3-2.9c-8.4,1-21.8,2.9-29.7,4.2c-8,1.3-16.9,2.7-19.8,3.1
			c-5.2,0.7-5.3,0.7-5,3.8c0.3,3,0.5,3.1,4.1,2.9c2.5-0.2,3.6,0.1,3.2,0.8c-0.3,0.6-2,1-3.7,1h-3.1l0.7,7.8
			c0.4,4.3,1.3,20.1,2.1,35.3C80.3,376.1,80.9,388.7,81,388.9z M72,386.9c7.1,2.5,8.3,2.5,7.6,0.3c-0.3-1-1-12.7-1.5-26
			c-1.4-35.2-2.9-50-5.1-51.2c-1-0.5-5.5-1.9-10.1-2.9c-9-2.1-38.9-11.7-45.1-14.4L14,291v2.4c0,2,0.9,2.8,4.5,4.2
			c2.5,0.9,4.8,2.1,5,2.6c0.3,0.5-1.6-0.1-4.2-1.2l-4.7-2l0.6,2.8c0.3,1.5,1.1,10,1.7,18.8c1,14.4,4,44.8,4.4,45.1
			c0.1,0.1,5.8,3,12.7,6.5C46.6,376.6,61.8,383.3,72,386.9z M115,146.1l-3.5,1.9l11.5-0.4c16.5-0.6,28.6-5.1,40.1-14.8
			c5.4-4.5,9.4-11,7.8-12.6c-0.7-0.7-0.3-1,1.5-1c3.7,0,5.4-1.8,6.1-6.8c0.9-5.7-1.3-9.4-5.4-9.4c-4,0-6.6,3.3-6.5,8.1
			c0.2,7.5-5.9,2.7-7.1-5.7c-0.4-2.5-1.1-5.6-1.7-6.8c-1.1-2.4-6.1-5.6-8.9-5.6c-6.1,0-12.2-2.4-16.9-6.7c-3.9-3.5-5-4.1-5-2.7
			c0,1-0.7,3.1-1.5,4.7c-1.4,2.7-1.3,3,0.8,4.8c2,1.8,2,1.9,0.2,1.3c-1.1-0.4-3.5-1.2-5.3-1.8c-3.8-1.3-4.3-2.6-1-2.7
			c1.6-0.1,0.9-0.7-2.8-2.5c-2.8-1.3-5.8-3.3-6.8-4.5c-1.7-2.1-1.8-2.1-1.8,2c0,2.3,0.5,5.1,1.1,6.2s0.9,2.2,0.7,2.4
			c-1.1,1.1-7.1-1.1-9.8-3.6l-3-2.8l-0.6,2.5c-0.3,1.4-0.1,3.6,0.5,5c1.6,3.6,1.5,3.7-3.4,3c-5.4-0.7-9.1-3-11.6-7l-1.8-3l-0.7,2.7
			c-0.4,1.5-0.4,4.4,0,6.4c0.9,4.9,5.3,17.4,6.5,18.6c0.5,0.5,2.9,1.2,5.2,1.5c3.4,0.4,4.7,1.2,6.3,3.8c1.4,2.2,2.6,3,3.8,2.7
			c1-0.3,2.8-0.2,4,0.3c2,0.7,1.9,0.8-1.3,1.3c-2.7,0.4-3.5,1-3.5,2.5c0,1.7,0.6,2,3.7,1.9c2.1-0.1,3.5,0.3,3.2,0.8
			c-0.8,1.3-12.1,0.3-13.9-1.2c-1.9-1.6-1.9-1,0.6,5.2c2.3,5.9,5,9.3,9.3,11.5c3.2,1.7,4.5,1.3,2.2-0.6c-0.8-0.7-1.5-1.9-1.5-2.8
			c0-0.8-0.7-2-1.6-2.7c-2.2-1.6-0.8-4.5,2.4-5.1c1.4-0.3,4.3-1,6.3-1.5s5.4-0.9,7.7-0.9c2.2,0,4.4-0.5,4.7-1.1
			c0.4-0.7,1.1-0.7,2.1,0.2c1.2,1,1.1,1.4-0.8,2.3c-1.2,0.6-2.5,2.4-3,4C121.9,140.9,119.5,143.7,115,146.1z M191.4,96.9
			c4.4,1.3,10,1.3,13.2-0.1l2.8-1.1l-3.2-0.9c-5.1-1.4-4.7-2.6,1.2-3.1c4.2-0.3,6.4-1.2,9.2-3.5c5.8-4.7,10.8-14.6,6.5-12.8
			c-1,0.4-3.3,0.9-5.3,1.2c-2.9,0.4-3.9,0-6-2.2c-2.4-2.6-2.5-3.1-3.1-22.8c-0.3-11.1-1.1-21.5-1.6-23.2
			c-3.7-11.1-12.7-21.6-20.6-24C172.2,0.8,156,10.8,156,22.2c0,4.1,0.8,5.2,4,5.6c3.9,0.5,8.7,4.2,11.1,8.6c2,3.5,2.3,3.7,3,2
			c0.5-1.4,0.8-0.9,0.8,2.1c0.1,4.3,2.7,14.4,6.1,24c1.5,4.1,2.3,9.4,2.7,16.5C184.3,92.6,185.6,95.2,191.4,96.9z M147.4,309.3
			l-0.7,9l4-4.1c2.2-2.3,4.5-4.1,5.1-4.1c2.6,0,4.5-5.2,4.4-12.1c0-3.8,0.3-7.1,0.8-7.4c1.4-0.8,1.1-3.6-1.2-10.8
			c-1.8-5.8-2.5-6.8-5.7-8.4l-3.7-1.7l-1.2-12.2c-0.7-6.7-1.7-14-2.3-16.1c-1.3-5-4.8-12.9-6-13.6c-0.7-0.4-9.5,2.8-10.9,4
			c-0.2,0.1-0.7,4.1-1.2,8.9c-0.7,6.7-1.6,10-4.1,14.7c-2.2,4.1-3.6,8.6-4.3,13.8c-1.1,7.4-1.2,7.7-4.1,8.2c-1.7,0.3-3,1.1-2.9,1.8
			c0.1,0.7,0.2,3.9,0.3,7.2c0.1,4.9,0.5,6,1.9,6.1c1.7,0.1,1.7,0.1,0,0.6c-1.4,0.4-1.8,1.5-1.8,5.5c0,4.7,0.1,5,2.2,4.5
			c1.2-0.3,7.5-1.1,14-1.8c11.1-1.1,14.1-2.1,10-3.2c-1.2-0.3-0.9-0.5,0.8-0.6c1.4-0.1,3.6,0.6,4.8,1.5
			C148,300.1,148.1,300.6,147.4,309.3z M109.3,274.8c0.5,0.7,2.6,1.2,4.6,1.1l3.6-0.1l-8-1.6l9.3,0.3l0.5-5.8
			c0.3-3.9,1.8-8.4,4.2-13.4c3.2-6.5,3.8-8.8,4.2-16.9c0.5-8.2,0.4-9.4-1.1-9.4c-0.9,0-2.3,1.4-3.2,3c-1.8,3.6-2.7,3.7-6.6,0.8
			c-4.3-3.1-5.9-7.2-5.9-14.2c0-7.8,1.4-12.7,4.4-15.5c2-1.9,3.3-2.2,7.6-1.9l5.1,0.4l-0.6-4.5c-1.4-10-1.3-9.9-6.8-11.5
			c-5.9-1.8-14.4-1.9-20.7-0.2c-4.3,1.1-4.5,1.3-5.2,5.7c-0.4,2.5-0.7,7.7-0.8,11.7c-0.1,6.6,0.1,7.2,2.2,7.9
			c1.2,0.4,3.4,1.8,4.9,3.2c2.3,2.1,2.7,3.4,2.9,8.6c0.6,16,0.3,17-4.5,16.1c-3.5-0.7-3.5-0.6-3.5,2.7c0,5.7,2,11.1,6,16.2
			c2.6,3.3,4.2,6.6,5.1,10.5C107.8,270.9,108.8,274.1,109.3,274.8z M119,232.5c1,1.2,1.6,1,3.7-1.5c2.2-2.6,2.9-2.9,6.8-2.4
			c5.1,0.7,8-0.6,10.1-4.6c1-1.9,4.1-4.3,9.6-7.2c12.5-6.6,23-15.6,28.9-24.6c2.8-4.2,5-8.5,5-9.4c0-3.2-12.5-9.8-18.6-9.8
			c-2.5,0-6,5.1-5.1,7.4c0.3,0.7-1.3,2.7-3.4,4.5c-5,4.1-9,7.8-16.6,15.3l-6.1,6l-4.2-2.1c-6.1-3.1-11.9-2.5-14.2,1.5
			c-2.1,3.7-3.7,9.8-1.9,7.5c0.9-1.2,1-1,0.5,1c-1.4,5.5-1.7,10.8-0.6,11.4c0.7,0.4,1.1-0.1,1.1-1.3c0-2.4,1.9-7.6,2.5-6.9
			c0.3,0.3,0,3.1-0.7,6.2c-0.9,4.3-0.9,6,0,6.9s1.2,0.2,1.2-2.9c0-2.2,0.7-4.9,1.6-5.9c1.5-1.9,1.6-1.9,0.9,0.6
			C118,227.4,117.8,231.1,119,232.5z M191.8,183.3c4.5,1.9,5.4,1.9,8.7,0.7c3.1-1.2,6.6-6.5,6.6-10.1c0-2.9-10.6-20.8-15.4-25.8
			c-3.7-3.9-11.5-8.2-15-8.2c-3,0-7.5,3.5-8.9,6.9c-0.6,1.4-2.1,6.9-3.4,12.2c-1.3,5.3-2.6,10.3-3,11.3c-0.5,1.4,0,1.7,3.7,1.7
			c5.2,0,15.9,4.7,18.2,8.1c1.8,2.6,2.7,2.1,4.6-3.1c1.7-4.5,4.8-9,6.2-9c0.6,0,0.3,0.9-0.7,2c-1.4,1.5-1.5,2-0.4,2
			c0.9,0,0.7,0.6-0.7,1.8c-2.2,1.8-4.4,5.3-4.4,7.1C188,181.4,189.7,182.5,191.8,183.3z M176,319.2c3.1,2.1,3.2,2.1,7.5,0.3
			c4.4-1.9,10.1-10.5,5.8-8.9c-1.1,0.4-1.4,0.3-0.9-0.5c0.4-0.6,1.3-1.2,2-1.2s1.8-1.1,2.4-2.5c1.5-3.3,1.5-3.8-0.3-3.1
			c-0.8,0.3-1.5,0.2-1.5-0.3s0.7-1.1,1.5-1.4s1.5-1.4,1.5-2.4s0.6-2.4,1.3-3.2c1-1.1,1-1.3-0.3-0.8c-6.1,2.1-12.9,2.9-17,2
			c-4.4-1-4.4-1,3.2-1.1c4.2-0.1,8.9-0.6,10.3-1.1c2.6-1,2.6-1.1,2.3-10.2l-0.3-9.3l-11.2,0.3c-7,0.2-13.1-0.1-16.2-0.9
			c-2.7-0.7-5.3-1-5.6-0.7c-0.8,0.8,3.6,17,5,18.5c0.6,0.6,2.7,1.6,4.6,2.2c3.3,0.9,3.4,1,0.7,1.1c-3.6,0.1-9-2.6-8.1-4.1
			c0.4-0.7,0.2-0.8-0.5-0.4c-1.6,1-0.5,4.6,2.1,6.8c1.1,1,1.8,2.1,1.4,2.4c-0.4,0.4-1.2,0.1-1.8-0.5c-1.7-1.7-2.8-1.4-2.8,0.7
			c0,2.8,3,5,7.9,5.7c3.3,0.5,4.5,1.3,5.2,3.1c0.6,1.4,1.7,2.4,3,2.4c1.1,0,1.8,0.5,1.5,1s-1.5,1-2.5,1
			C173.1,314,173.1,317.3,176,319.2z M202.3,299.3c3.1,0.6,17.5-0.3,22-1.5c4.8-1.2,7.7-4.1,7.8-7.6c0-1.5,1.5-8.6,3.4-15.8
			s3.3-13.1,3.2-13.2s-4,1.8-8.6,4.1c-9,4.6-19.8,8-29.2,9c-2.7,0.3-4.3,0.4-5,1.2c-1.1,1.1-0.6,3.7,0.5,10.2
			c0.1,0.5,0.2,1.1,0.3,1.6C198.2,297.1,199,298.6,202.3,299.3z M139.5,185.8c0.8,2.5,11.4,0.8,15.4-2.5c4.7-3.8,8.5-30.2,4.4-30.2
			c-1.5,0-1.5-0.1,0-1.8c0.9-1,1.6-2.9,1.6-4.2c0-2.3,0-2.3-1.6-0.4c-1.6,1.9-1.6,1.9-0.9-0.1c1.4-3.9,1.7-6.5,0.7-6.5
			c-0.5,0-1.5,1.1-2.1,2.4c-0.8,1.7-3.9,3.8-9.6,6.5c-8.7,4.1-13,5-13.9,2.8c-0.3-0.8-0.5-0.7-0.6,0.4c0,0.9,0.6,2.2,1.5,2.9
			c1.1,0.9,1.2,1.5,0.4,2c-1.8,1.1-0.1,4.9,2.6,5.6c1.3,0.3,2.4,1,2.4,1.4s-0.9,0.6-2,0.3c-1.6-0.4-2,0-2,2
			C136,168.6,138.6,182.9,139.5,185.8z M68.2,307.1c6.1,1.8,8.3,1.8,19.4,0.3l4.5-0.6l-0.2-11.4c-0.1-10.2-0.3-11.4-1.8-10.7
			c-5.8,2.6-20.2,5.5-25.5,5.1l-5.9-0.4l0.7,7.1c0.4,3.9,1.1,7.5,1.5,7.9C61.5,304.9,64.7,306.1,68.2,307.1z M211.6,324.3
			c-0.7,1.5-0.3,1.8,2.7,1.8c2.9,0,3.9-0.6,6.2-4c1.5-2.2,3.8-4.7,5.1-5.5c2.9-1.9,3.2-3.9,0.4-3.2c-1.1,0.3-2,0.1-2-0.4
			s0.7-0.9,1.6-0.9c2,0,6.4-4.5,6.4-6.5c0-1.4-0.3-1.4-3,0c-1.6,0.9-3,1.2-3,0.7s1.6-1.6,3.6-2.5c2.4-1.1,4.1-2.9,5.1-5.3
			c1.4-3.3,1.4-3.8-0.1-5.2c-1.5-1.5-1.6-1.5-1.3,0.3c1,5.6-23.1,9.9-33.7,6.1c-2.2-0.8-4.1-1.5-4.3-1.5c-0.1,0-0.3,1.2-0.3,2.7
			s1.2,3.9,2.8,5.6c1.9,2,2.2,2.8,1,2.3c-2.2-0.8-2.4,1.5-0.3,3.6c0.8,0.8,1.3,1.6,1.1,1.8c-0.2,0.2,0.6,0.4,1.8,0.5
			c11.3,0.5,14.7,0.9,14.7,1.6c0,0.5-0.8,0.8-1.9,0.8c-1.4,0-1.8,0.7-1.8,2.8C212.4,321.3,212,323.3,211.6,324.3z M41.5,299.6
			c5.5,1.8,10.3,3.2,10.8,3.3c0.4,0,0.8-4.9,0.8-10.9s-0.1-11-0.3-11c-0.1,0-2.7,0.7-5.8,1.5c-3.2,0.9-10,1.5-16.3,1.5
			c-0.3,0-0.6,0-0.9,0c-6.3,0-8.8,0-9.6,1.2c-0.5,0.8-0.3,2,0.2,4.1c0,0.1,0,0.3,0.1,0.4C21.3,293,22.6,293.6,41.5,299.6z
			 M130.4,203.2c2,1.4,3.1,0.7,12.1-7.9c8.5-8.1,8.8-8.5,5.5-7.8c-1.9,0.4-4.8,0.8-6.4,0.8c-3.4,0.1-4-1.3-5.6-14.4
			c-1.5-11.8-2.9-16.3-4.6-14.9c-2.2,1.8-4.4,10.8-4.4,18.2C127,186.5,129.1,202.3,130.4,203.2z M93.6,304.5
			c0.4,1.1,1.4,1.5,2.8,1.2c1.2-0.3,4.4-0.8,7.1-1.2c4.1-0.5,6.2-0.6,7.3-1.8c1.2-1.2,1.2-3.6,1.2-9c0-0.7,0-1.5,0-2.3
			c0-6.3-0.3-11.4-0.8-11.4c-0.4,0-3.4,0.7-6.8,1.5c-3.3,0.8-7.2,1.5-8.8,1.5h-2.8v9.9C93,298.4,93.3,303.6,93.6,304.5z
			 M173.3,372.1c3.5,1.7,5.8,1.9,15.2,1.6c12.6-0.4,16.4-1.9,23-8.7c2.2-2.3,5.6-5,7.5-6s5.5-3.6,7.9-5.7c4.3-3.8,4.4-4.2,5.2-11.3
			c0.4-4.1,0.4-7.8,0-8.2c-0.4-0.4-1.6,1.5-2.7,4.3c-3,7.6-11.9,17.6-20.6,23c-16,9.9-31.1,11.1-40.1,3.1c-1.6-1.4-1.8-1.4-1.8,0.2
			C167,367.6,169.1,370.1,173.3,372.1z M89.6,236.8c3.1,3.1,5.4,4.2,5.4,2.4c0-0.4-0.6-1.4-1.3-2.1c-1-1-0.2-1.1,4-0.6
			c4.3,0.6,5.3,0.4,5.3-0.8c0-2.3-3.6-5-7.8-5.8c-3.5-0.7-3.5-0.7-0.8-0.8c1.7-0.1,4.3,0.6,5.9,1.4c3.5,1.8,3.6,1.8,3.6,0.2
			c0-2.3-4.8-5.9-8.7-6.7c-3.5-0.7-3.5-0.7-0.8-0.8c1.7-0.1,4.3,0.6,5.8,1.4c2.7,1.4,2.8,1.4,2.5-0.8c-0.2-1.6-2-3.1-5.8-5
			s-4.6-2.6-2.5-2.1c1.7,0.3,4.1,1.3,5.3,2.1c3,1.9,3.8,1,2.3-2.3c-1.1-2.4-6.4-5.4-9.6-5.4c-2.7,0-7.5,5-8.2,8.5
			C83.4,224.9,85.8,233,89.6,236.8z M122.3,319.6c-10.3,2.5-27.2,4.2-28.5,2.9c-0.4-0.4-0.8-2.3-0.8-4.1c0-1.8,0.3-3.3,0.8-3.3
			s8.8-1.4,18.8-3c23.1-3.9,23.3-3.9,22.7,0C134.6,316.1,133.3,316.9,122.3,319.6z M174.4,366.4c3.5,1.7,14.1,2.1,18,0.7l2.5-0.9
			l-1.6-5.6l-1.6-5.6h-7c-9,0-10.8-0.5-12.7-3.7l-1.6-2.6l-1.8,2.7C164.9,356.9,167.2,362.9,174.4,366.4z M200,363.5
			c0,1.3,2.3,0.2,9.5-4.6c9.1-6.2,13.7-11.2,17.6-19.3c2.8-5.8,4-14.5,2-14.5c-1.1,0-4.1,7.3-4.1,10s-4.8,7.9-13.6,14.6
			C205,354.5,200,360.6,200,363.5z M60.8,288.3c6.1,1.6,30.3-3.5,30.3-6.4c0-1.7-7.5-3.2-14-2.7C66.2,280,54.3,286.6,60.8,288.3z
			 M161,344.6v2.6l3.3-2.1c1.8-1.2,5.5-3.3,8.2-4.7c2.8-1.4,6.5-4.2,8.3-6.2c2.5-2.7,3.3-3.1,3.3-1.7c0,1.5,0.3,1.6,1.5,0.6
			c1.5-1.3,2.1-3.5,0.8-2.7c-0.4,0.3-3.2,0.1-6.1-0.4c-6.2-1-11.8,1-13.7,4.9c-0.6,1.3-2.1,3.4-3.3,4.8
			C162,340.9,161,343.2,161,344.6z M206.5,337.3c1.1,0.3,2.2,0.5,2.4,0.6c0.9,0.3,4.1-3.3,4.1-4.5c0-0.7-3-2.2-6.7-3.4
			c-3.7-1.2-8.8-3.3-11.5-4.6c-5.9-3-6.3-3-7.6,0c-0.9,2-0.8,2.7,0.6,3.9C189.5,330.7,202.7,336.4,206.5,337.3z M157.8,325.8
			c8.4,4.5,11.2,5.1,13.7,2.6c2.1-2.1,2-3.5-0.5-4.1c-2.4-0.6-14.7-6.7-17.2-8.5c-1.4-1-2-1-3.4,0.4
			C147.7,318.9,149.6,321.4,157.8,325.8z M162.1,319c1.9,1,3.8,1.9,4.3,2c1.8,0.1,6.6-6,6.6-8.3c0-3.3-1.9-4.6-7.7-5.3l-4.9-0.6
			l-1.7,4.3C156.9,315.8,157,316.1,162.1,319z M202,353.1c0,1.8,0.9,1.4,6.8-3.2c9.3-7.3,14-11.8,14.6-14.2c0.4-1.5,0.2-1.7-0.6-0.9
			c-0.6,0.6-3.1,1.1-5.4,1.1c-2.4,0-4.3,0.3-4.3,0.8c0,0.4-1.3,1.5-2.8,2.4C207.2,340.8,202,349.6,202,353.1z M130.8,112.8
			c-0.3,3.3-0.6,3.7-3.4,4c-3.8,0.4-5.5-1.2-7.3-6.5c-1.2-3.6-1.1-4.3,0.8-7.9c1.5-2.9,2.1-3.4,2.2-1.9l0.1,2l0.9-2
			c0.7-1.7,0.9-1.8,0.9-0.3c0.1,1.8,1.5,2.4,2.3,1c0.2-0.4,0.3-0.2,0.1,0.5c-0.5,2,1.4,2.4,2.5,0.5c0.9-1.6,1-1.6,1.1-0.1
			c0,0.9-0.4,2-1,2.3c-0.7,0.4-0.6,1.3,0.1,2.6C130.6,108.2,131,110.8,130.8,112.8z M198.1,325.4c5.1,2.3,5.3,2.3,8.8,0.5
			c4.2-2.1,5.7-5.1,3.7-7.1c-0.8-0.8-4.2-1.7-7.6-2.1c-6.7-0.8-8.1-0.1-9.4,4.2C192.9,322.8,193.5,323.3,198.1,325.4z M188.2,345.5
			c6,1.9,15.2,1.5,15.6-0.7c0.3-1.3-1.6-2.3-8.5-4.3c-4.8-1.5-9.8-3.3-11.1-4.1c-2.8-1.8-4.2-1.1-4.2,2
			C180,341.4,182.8,343.8,188.2,345.5z M118.3,183.8c2.9,0.5,5.6,1,6,1.1s0.8-2,0.8-4.6s0.6-7.6,1.3-11c1.1-5.3,1.1-6.1-0.1-5.1
			c-2,1.7-13.3,16.8-13.3,17.8C113,182.5,115.4,183.3,118.3,183.8z M176.6,353c3.8,1.1,5.2,1.2,10.8,0.4c3.9-0.5,4.6-1,4.6-2.9
			c0-1.8-1.1-2.6-5.9-4.4c-5.4-2-6.1-2-8.9-0.6C171.3,348.5,171.1,351.3,176.6,353z M170,45.5c2.5,2.5,4.6,4.2,4.8,3.7
			s-1-3.8-2.6-7.3C168.7,34,163.4,29,158.7,29h-3.2l3.6,1.9c2,1,4.1,2.5,4.8,3.4c0.7,0.8-1,0.3-3.8-1.2c-3.5-1.8-5.3-2.3-6.1-1.6
			c-0.7,0.7,0.9,2.3,5.2,5.2C162.7,39,167.5,42.9,170,45.5z M54,281.2c0,2.3,4.5,2.4,8.9,0.2c1.8-0.9,6.5-2.2,10.4-2.8
			c6-1,6.8-1.4,4.7-2c-3.1-1-18.4-1.1-22.8-0.1c-2.4,0.5-3.1,1-2.3,1.8C53.5,278.9,54,280.2,54,281.2z M21.1,282.1
			c1.9,1.2,15.3,1.1,22.5-0.2c12.6-2.3,8-4.4-8.3-3.7C24.4,278.6,18.3,280.3,21.1,282.1z M153,355.1c0.6,1.1,1.4,1.9,2,1.9
			c1.4,0,5-8.9,5-12.5c0-2.8-0.4-3.3-3.4-4.3c-1.9-0.6-3.7-0.8-4-0.5C151.6,340.8,152,353.1,153,355.1z M195.1,362.8
			c1.4,4,2.8,4.1,3.6,0.2c0.3-1.7,1-3.3,1.5-3.6c0.5-0.3,0.9-2.7,0.9-5.4c0-4.6-0.1-4.9-3.1-5.4c-1.7-0.3-3.6-0.3-4.1,0
			C192.6,349.4,193.4,358,195.1,362.8z M89.3,280.1c4.3,2.2,7.6,2.2,15.4,0.2c5.9-1.5,6.4-1.8,4.8-3c-2.6-1.9-23.5-1.4-23.4,0.6
			C86,278.2,87.5,279.2,89.3,280.1z M158,355.1c0,1.2,0.5,1.2,4.4-0.5c1.9-0.8,3.9-2.3,4.5-3.4s2.7-2.8,4.7-3.7
			c3.1-1.5,5.4-4.6,5.4-7.5c0-0.5-2.8,0.6-6.3,2.5C165.1,345.5,158,352.6,158,355.1z M154,338.2c6.1,2.2,7.3,2.2,8.9-0.3
			c0.7-1.1,1.2-2.2,1-2.3c-0.2-0.1-4-1.6-8.6-3.3l-8.3-3.1v2.8C147,335.3,147.6,335.8,154,338.2z M94,318.6c0,2.7,0.3,2.8,11,1
			c7.2-1.1,7.5-1.3,7.8-4c0.3-2.4,0-2.8-1.5-2.3c-1,0.3-5.3,1.1-9.6,1.7C94.6,316.2,94,316.5,94,318.6z M150,361.6
			c0,2.6,0.1,2.6,4.9,2c8.4-1.1,10.9-2.3,10.3-5.2c-0.2-1.1-0.3-1.8-0.8-2.1c-0.7-0.5-2.1-0.1-5.8,1l0,0c-4,1.2-4.9,1.5-5.9,1.6
			c-0.3,0-0.6,0-1,0c-0.1,0-0.1,0-0.2,0C150.6,359,150,360,150,361.6z M176.5,328.1c5.4,1.8,9.2,0.1,7.4-3.3c-0.6-1-1.5-1.9-2.1-1.9
			s-3-1-5.4-2.1c-4.3-2.1-8-1.9-7.2,0.4c0.2,0.7,1.5,1.5,2.8,1.8c1.5,0.4,2.4,1.3,2.4,2.5C174.5,326.6,175.4,327.8,176.5,328.1z
			 M135.5,150c0.9,1,2.5,1.6,3.9,1.3c4-0.8,16.1-7.8,16.5-9.6c0.3-1.4-0.8-1.1-6.1,1.3c-3.6,1.6-8.6,3.4-11.1,4.1
			C134.3,148.2,134,148.4,135.5,150z M114.5,316c0.4,1.2,1.2,1.9,1.9,1.7c0.6-0.3,3.7-1,6.8-1.6c5.4-1.1,8.9-3.4,7.4-4.8
			c-0.7-0.7-15.3,1.1-16.3,2C114.1,313.6,114.1,314.8,114.5,316z M214,332.4c0.8,2,1.3,2.2,4.7,1.7c4.2-0.7,5.7-3.3,2.6-4.9
			c-2.8-1.5-14-2.5-14.7-1.4c-0.3,0.5,1,1.3,2.9,1.6C212,329.9,213.4,330.8,214,332.4z M56.9,304.3c0.9,0.2,1.8,0.3,1.9,0.1
			c0.2-0.1-0.2-4.8-0.9-10.3c-0.9-7.2-1.6-10.1-2.6-10.1c-1.5,0-1.6,1.5-0.7,12.3C55.1,302.1,55.7,304,56.9,304.3z M224,330.2
			c0,0.7,0.9-0.4,1.9-2.5c2.2-4.4,3.6-10.7,2.3-10.7c-1.6,0-5.6,3.7-7.4,6.8c-1.7,2.9-1.7,3,0.8,4.1
			C222.9,328.5,224,329.5,224,330.2z M151,329.2c4.3,2.1,5.4,2.2,6.9,0.4c1-1.2,0.4-1.9-3.2-4c-2.4-1.4-4.9-2.6-5.6-2.6
			c-0.7,0-0.9-0.5-0.5-1.1c0.4-0.7,0.3-0.9-0.3-0.5c-0.6,0.3-1,1.9-0.9,3.4C147.5,326.8,148.3,327.9,151,329.2z M162.3,153.2
			c-0.3,4.6-0.3,8.1,0,7.8s1.3-3.6,2.2-7.5c0.9-3.8,2.3-8,3.1-9.3c1.4-2.1,1.3-2.3-0.4-2.3C163.9,142,162.8,144.6,162.3,153.2z
			 M148.6,350.9c0.5,4.4,1.1,6.1,2.1,6.1s1.2-0.6,0.6-2.3c-0.5-1.2-0.8-5.5-0.7-9.5c0.1-5.6-0.2-7.3-1.3-7.3
			C147.8,338,147.6,341.2,148.6,350.9z M190.7,337.5c2.7,0.9,4.2,1,5.1,0.3c2-1.7,1.5-2.5-2.9-4.2c-3.7-1.5-4.3-1.5-5.7-0.1
			C185.3,335.3,185.8,335.8,190.7,337.5z M127.9,109.7c2.2,2.8,2.7,2.1,1.1-1.7c-2.4-5.8-8-6.1-8-0.4c0,2.2,0.2,2.3,2.6,1.2
			C125.9,107.7,126.5,107.8,127.9,109.7z M104.4,136.5c-1.8,1.4-1.7,1.5,2.3,1.5c3.9,0,12.9-2.3,14.5-3.8c1.1-1.1-8.6,0-9.9,1
			c-0.7,0.5-2,0.7-3.1,0.4C107.2,135.3,105.5,135.6,104.4,136.5z M198.8,340.3c2.8,0.8,7.6,0.3,7.9-0.9c0.5-1.6-8-3.6-8.9-2.1
			C196.6,339.1,196.9,339.8,198.8,340.3z M160.1,332.9c3.4,1.4,4.5,1.3,5.8-0.3c0.9-1.1,0.5-1.6-1.9-2.6c-2.6-1.1-3.3-1.1-4.7,0.3
			C157.8,331.8,157.8,332,160.1,332.9z M184.2,322.8c0.6,0.6,1.6,0.9,2.1,0.6c1.6-1,6.7-9.6,6.7-11.3c0-0.8-1,0.2-2.1,2.2
			c-1.1,2.1-3.3,4.6-4.9,5.6C183.8,321.2,183.3,321.9,184.2,322.8z M108.8,144.9c0.9,0.5,1.4,0.9,1.9,0.9c0.6,0.1,1.3-0.2,2.9-0.9
			c0.2-0.1,0.5-0.2,0.7-0.3c1.8-0.7,3.9-2.2,4.7-3.2c1.4-1.8,1.4-1.8-1.2-0.1c-1.8,1.2-4.1,1.7-6.8,1.4
			C106.8,142.4,105.9,143.2,108.8,144.9z M97.5,123c0.4,0.6,0.9,0.9,1.2,0.7c0.3-0.3-0.3-1.7-1.2-3.1c-2-3-4.8-3-5.2,0.1
			c-0.3,1.8,0.1,2,2.1,1.7C95.7,122,97.1,122.3,97.5,123z M133.5,295.5c2.9,0.8,3.9,1.4,2.5,1.4c-2.8,0-15.6-2.4-17.4-3.3
			C116.5,292.5,128.5,294.1,133.5,295.5z M194.3,313.6c-0.5,1.2-0.2,1.6,0.8,1.2c0.8-0.3,1.4-1,1.3-1.6c0-0.7-0.2-2.6-0.3-4.3
			c-0.1-2.6-0.4-2.9-1.6-1.9 M89,108.2c-2,5.2-3.3,5.8-2.6,1.4c0.6-4,2.1-6.5,3.3-5.3C90,104.6,89.7,106.4,89,108.2z M174.6,110.4
			c0.3,0.9,0.3,1.6,0,1.6c-0.4,0-0.9-0.7-1.2-1.4c-0.3-0.8-1.3-1.2-2.2-0.9c-1.3,0.4-1.3,0.2,0.3-1.1c2.5-2,4-2,5.7,0.1
			c1.2,1.5,1.1,1.6-0.9,0.9C174.5,109,174.1,109.2,174.6,110.4z M109.5,141c-1,1.6,5,1.1,7.1-0.6c1.9-1.6,1.9-1.6-0.1-0.9
			c-1.1,0.4-3,0.7-4.2,0.6C111.1,140.1,109.8,140.5,109.5,141z M191,320.1c0,1.1,0.4,1.7,1,1.4s1-1.5,1-2.6s-0.4-1.7-1-1.4
			S191,319,191,320.1z M154,314.5c0,0.5,0.7,0.2,1.7-0.7c0.9-0.9,1.4-2,0.9-2.4C155.9,310.5,154,312.7,154,314.5z M17,291
			c1.9,1.2,2,1.2,2,0c0-0.5-0.8-1-1.8-1C15.8,290,15.7,290.2,17,291z"/>
	</g>
</g>
</svg>
