<?xml version="1.0" encoding="utf-8"?>
<!-- Generator: Adobe Illustrator 24.0.1, SVG Export Plug-In . SVG Version: 6.00 Build 0)  -->
<!DOCTYPE svg PUBLIC "-//W3C//DTD SVG 1.1//EN" "http://www.w3.org/Graphics/SVG/1.1/DTD/svg11.dtd" [
	<!ENTITY ns_extend "http://ns.adobe.com/Extensibility/1.0/">
	<!ENTITY ns_ai "http://ns.adobe.com/AdobeIllustrator/10.0/">
	<!ENTITY ns_graphs "http://ns.adobe.com/Graphs/1.0/">
	<!ENTITY ns_vars "http://ns.adobe.com/Variables/1.0/">
	<!ENTITY ns_imrep "http://ns.adobe.com/ImageReplacement/1.0/">
	<!ENTITY ns_sfw "http://ns.adobe.com/SaveForWeb/1.0/">
	<!ENTITY ns_custom "http://ns.adobe.com/GenericCustomNamespace/1.0/">
	<!ENTITY ns_adobe_xpath "http://ns.adobe.com/XPath/1.0/">
]>
<svg version="1.1" id="Camada_1" xmlns:x="&ns_extend;" xmlns:i="&ns_ai;" xmlns:graph="&ns_graphs;"
	 xmlns="http://www.w3.org/2000/svg" xmlns:xlink="http://www.w3.org/1999/xlink" x="0px" y="0px" viewBox="0 0 1080 1080"
	 style="enable-background:new 0 0 1080 1080;" xml:space="preserve">
<style type="text/css">
	.st0{fill:#282425;}
	.st1{fill:#FFFFFF;}
</style>
<metadata>
	<sfw  xmlns="&ns_sfw;">
		<slices></slices>
		<sliceSourceBounds  bottomLeftOrigin="true" height="766.67" width="718.15" x="148.58" y="-905.93"></sliceSourceBounds>
	</sfw>
</metadata>
<g id="stroke">
	<path class="st0" d="M335.69,685.03c-15.37,5.05-30.66,10.34-46.12,15.1c-28.27,8.69-56.9,15.94-86.53,18.03
		c-11.47,0.81-22.94,0.31-34.01-3.55c-12.77-4.46-19.79-14.43-20.37-27.94c-0.77-18.02,5.75-33.72,14.68-48.68
		c14.92-24.97,35-45.4,57.09-63.98c36.51-30.7,77.17-54.8,120.08-75.25c43.52-20.74,88.86-36.37,135.57-48.17
		c3.02-0.76,6.07-1.28,9.08-2.05c2.98-0.76,6-1.39,9.06-2.77c-4.6-1.6-9.2-3.18-13.79-4.79c-60.64-21.26-120.51-44.46-178.3-72.71
		c-30.26-14.79-59.86-30.8-86.77-51.26c-11.64-8.85-22.74-18.4-31.17-30.57c-5.94-8.57-10.33-17.79-9.36-28.55
		c1.24-13.89,9.19-24.07,19.61-32.34c14.23-11.29,31-13.56,48.5-12.17c20.72,1.65,40.21,8.09,59.37,15.72
		c0.92,0.37,1.84,0.74,2.8,1.12c0.89-1.27-0.26-2.14-0.64-3.04c-6.54-15.34-12.02-30.94-11.92-47.92
		c0.13-21.6,12.03-35.2,33.22-39.04c16.14-2.92,30.61,0.93,44.38,9.01c18.76,11.01,35.02,25.18,50.54,40.26
		c33.32,32.36,62.72,68.16,91.02,104.88c32.16,41.72,62.62,84.66,91.46,128.75c1.75,2.68,3.25,3.73,6.78,3.02
		c26.78-5.34,51.22,0.19,73.02,16.75c1.98,1.51,3.22,1.19,5.12,0.03c20.48-12.57,44.56-11.39,63.37,2.99
		c26.61,20.34,28.45,61.34,3.74,83.92c-2.2,2.01-4.48,4.02-6.99,5.61c-2.11,1.34-1.96,2.12-0.4,3.83
		c14.22,15.6,28.34,31.29,42.49,46.95c24.71,27.33,49.42,54.67,74.16,81.97c1.93,2.13,3.3,4.4,1.27,6.9
		c-2.1,2.59-4.48,1.02-6.66-0.32c-53.42-32.79-106.87-65.55-160.23-98.45c-2.83-1.75-4.17-1.23-6.35,0.91
		c-25.1,24.53-54.78,32.29-88.74,23.8c-1.82-0.45-2.9-0.28-4.17,1.21c-6.69,7.86-14.41,14.53-23.58,19.37
		c-1.51,0.8-1.83,1.65-1.5,3.25c6.19,30.05,11.88,60.21,18.63,90.13c5.5,24.39,17.92,45.32,35.41,63.16
		c9.62,9.81,19.49,19.37,29.17,29.12c6.3,6.34,6.76,14.18,1.39,20.45c-4.67,5.45-13.89,7.07-18.85,2.17
		c-19.26-18.98-40.13-36.52-54.66-59.86c-12.43-19.97-19.82-41.72-24.13-64.75c-4.5-24.03-9.59-47.94-14.36-71.91
		c-0.46-2.29-1.15-3.31-3.83-2.99c-2.93,0.35-5.99,0.08-8.95-0.28c-2.59-0.32-3.89,0.38-5.05,2.92
		c-14.66,32.04-17.3,64.94-7.94,98.94c4.4,15.97,9.32,31.85,11.4,48.38c4.21,33.45-0.99,65.42-15.5,95.82
		c-3.2,6.71-11.57,9.5-18.24,6.58c-7.01-3.07-10.66-10.87-7.84-18.01c3.84-9.73,8.02-19.32,10.46-29.55
		c6.06-25.4,4.56-50.47-2.47-75.49c-4.04-14.39-8.35-28.73-10.37-43.63c-4.16-30.66-0.19-60.23,11.67-88.73
		c1.35-3.24,0.88-4.05-2.48-3.93c-10.22,0.35-19.9,2.07-28.74,7.88c-33.53,22.07-67.24,43.86-100.83,65.84
		c-23.29,15.24-37.36,36.77-41.76,64.18c-1.93,12.05-2.21,24.37-3.19,36.57c-3.32,41.38-22.56,73.25-57.2,95.88
		c-5.11,3.34-10.51,6.23-15.63,9.54c-2.11,1.37-4.66,1.28-6.7,2.62c-1.25,0-2.5,0-3.75,0c-0.45-1.14-1.66-0.96-2.5-1.32
		c-5.57-2.41-8.78-6.6-9.13-12.6c-0.33-5.68,2.19-10.12,7.05-13.15c7.08-4.41,14.45-8.36,21.15-13.37
		c23.1-17.29,35.58-40.42,38.13-69.12c1.39-15.65,1.34-31.48,4.77-46.89c5.32-23.84,16.7-44.41,34.29-61.45
		c0.79-0.77,1.49-1.64,2.23-2.46c0.22-0.18,0.45-0.36,0.67-0.54C336.45,684.58,336.07,684.79,335.69,685.03z M838.56,652.64
		c0.13,0.31,0.34,0.65,0.67,0.35c0.12-0.11-0.07-0.57-0.11-0.87c-0.22-0.3-0.41-0.63-0.66-0.91c-41.92-46.4-83.85-92.8-125.78-139.2
		c-3.51-3.89-7.06-7.75-11.13-12.21c1.73,23.28-7.33,40.47-25.34,53.4c1.15,0.72,2.09,1.32,3.05,1.9
		c42.45,26.07,84.9,52.15,127.37,78.19C817.24,639.81,827.91,646.2,838.56,652.64z M338.79,508.24c-0.24,0.06-0.5,0.08-0.72,0.19
		c-36.99,17.99-72.11,39-104.36,64.66c-1.79,1.42-2.79,3.06-3.17,5.24c-2.59,14.7-2.45,29.35,1.1,43.87
		c7.57,30.93,26.76,52.92,53.37,69.17c1.71,1.04,3.17,0.8,4.94,0.26c23.97-7.22,47.51-15.7,70.85-24.72
		c6.29-2.43,12.58-4.87,19.12-7.4c-11.74-14.24-22.01-28.79-29.95-44.86c-16.75-33.93-22.76-68.96-10.5-105.79
		c0.05-0.3,0.09-0.61,0.14-0.91C339.33,508.04,339.06,508.14,338.79,508.24z M471.3,459.95c-40.19,10.04-79.09,23.8-116.89,40.72
		c-2.46,1.1-3.98,2.64-5.09,5.05c-9.52,20.6-10.95,42.11-6.8,64.07c6.14,32.54,22.57,59.9,43.67,84.79
		c1.17,1.38,2.06,1.72,3.76,0.96c3.4-1.53,6.92-2.79,10.39-4.17c28.63-11.36,56.2-25.29,85.4-35.76
		c-5.62-8.74-10.78-18.22-14.99-28.22c-12.44-29.55-16.14-60.05-10.23-91.63c2.28-12.18,6.42-23.78,11.24-35.15
		c0.16-0.16,0.49-0.4,0.46-0.48C472.04,459.66,471.66,459.81,471.3,459.95z M577.43,433.07c0.19-0.29,0.39-0.58,0.58-0.87
		c-0.81-0.58-1.68-1.09-2.42-1.75C516.55,378,455.27,328.41,389.03,285.26c-31.24-20.35-63.45-39-98.46-52.34
		c-18.4-7.01-37.2-12.36-57.06-12.16c-15.62,0.16-29.72,4.63-40.58,16.74c-12.81,14.28-13.81,27.14-3.24,43.09
		c4.23,6.39,9.33,12.03,14.9,17.25c17.33,16.24,37.25,28.83,57.77,40.49c39.59,22.49,81.08,41.01,123.15,58.27
		c39.85,16.35,80.28,31.14,121.07,44.98c3.05,1.03,5.98,1.18,9.16,0.56c7.95-1.55,15.93-2.99,23.95-4.14
		C552.25,436.21,564.85,434.7,577.43,433.07z M339.25,147c-9.54,0.54-18.31,1.24-25.96,6.07c-11.5,7.27-13.86,18.68-12.87,31.1
		c1.42,17.83,8.1,34.07,16,49.87c0.66,1.32,1.64,2.11,2.93,2.71c22.97,10.68,44.91,23.25,66.27,36.81
		c60.29,38.27,116.21,82.34,170.11,129.06c10.57,9.16,20.92,18.56,31.37,27.86c2.27,2.02,7.51,1.86,9.73-0.85
		c1.45-1.77-0.94-3.22-1.83-4.55c-31.94-48.01-65.23-95.07-100.95-140.36c-23.83-30.21-48.36-59.83-75.81-86.88
		c-15.22-15-30.92-29.46-49.35-40.55C359.52,151.66,349.68,147.29,339.25,147z M575.1,441.47c-1.77,0.1-2.38,0.11-3,0.18
		c-28.17,2.84-56.01,7.66-83.61,14.01c-3.87,0.89-6.63,2.23-8.46,6.07c-8.49,17.79-13.43,36.47-14.27,56.14
		c-1.52,35.29,9.04,67.07,28.42,96.23c0.96,1.44,2.02,1.54,3.41,1.53c7.04-0.05,13.83,1.32,20.5,3.54c5.09,1.7,10.39,2.7,15.72,3.21
		c23.11,2.2,42.21-5.89,57.87-22.8c1.65-1.78,1.39-2.5-0.66-3.22c-0.58-0.2-1.13-0.51-1.69-0.78
		c-50.04-23.87-66.79-87.5-34.99-132.91C559.86,454.77,566.56,447.98,575.1,441.47z M707.29,494.35c0.65-1.31,0.12-2.19-0.14-3.11
		c-9.51-33.15-39.78-57.51-74.47-59.12c-55.75-2.59-97.86,48.4-84.15,102.36c10.55,41.56,50.08,67.5,92.7,61.05
		c17.2-2.6,31.88-10.25,44.4-22.21c3.19-3.05,3.16-3.09-0.46-5.3c-4.99-3.06-10.03-6.06-14.96-9.23c-1.76-1.13-3.27-1.21-5.18-0.45
		c-5.99,2.38-12.35,3.28-18.71,3.19c-34.08-0.49-59.17-30.15-54.17-63.81c3.35-22.57,21.19-41.35,43.3-45.57
		c23.82-4.55,46.84,5.55,58.56,25.98C697.55,484.3,702.78,488.88,707.29,494.35z M221.8,583.19c-6.05,4.84-10.93,9.6-15.8,14.36
		c-16.78,16.4-31.63,34.29-41.91,55.55c-4.97,10.29-8.24,21.09-7.76,32.77c0.43,10.66,5.4,17.8,15.52,21.44
		c7.9,2.84,16.04,3.32,24.3,3.21c17.56-0.24,34.66-3.61,51.7-7.43c9.5-2.13,18.96-4.44,28.86-7.59
		C236.83,668.57,217.95,631.84,221.8,583.19z M646.56,553.59c25.94,0.05,47.43-21.13,47.53-46.84
		c0.11-26.33-21.15-47.81-47.34-47.85c-26-0.04-47.2,20.9-47.47,46.88C599.02,532.06,620.26,553.55,646.56,553.59z M425.45,650.52
		c-2.1-0.62-3.12,0.32-4.23,0.77c-9.44,3.86-18.92,7.65-28.27,11.72c-12.28,5.34-25.16,9.13-36.47,16.86
		c-25.6,17.49-42.13,40.98-49.12,71.15c-3.15,13.57-3.37,27.5-4.19,41.31c-1.61,27.15-11.07,50.65-30.41,70.04
		c-9.38,9.41-20.8,15.8-32.01,22.55c-4.25,2.56-5.5,5.92-3.57,9.26c1.98,3.42,6.01,4.22,10.06,1.86c4.2-2.44,8.35-4.97,12.5-7.5
		c27.13-16.59,44.93-40.18,52.79-71.05c4.12-16.2,3.94-32.94,5.39-49.46c2.57-29.15,15.05-52.96,37.73-71.3
		c11.17-9.03,23.75-16.03,35.68-23.98C402.52,665.34,413.84,658.09,425.45,650.52z M504.74,875.93c2.54-0.06,4.65-1.49,5.94-4.26
		c13.06-28.04,18.05-57.4,14.54-88.18c-1.81-15.81-6.3-31.03-10.64-46.23c-9.64-33.78-8.86-66.98,4.16-99.76
		c1.17-2.95,4.39-6.52,3.12-8.61c-1.24-2.05-5.81-2-8.85-3.07c-2.17-0.76-3.24-0.3-4.22,1.93c-12.42,28.38-16.53,57.87-12.07,88.53
		c2.18,14.97,6.69,29.39,10.68,43.92c7.87,28.65,8.04,57.15-0.62,85.63c-2.14,7.04-5.05,13.78-7.98,20.53
		C496.81,870.97,499.73,875.86,504.74,875.93z M654.99,818.21c-0.1-2.4-1.33-4.17-3.01-5.81c-8.12-7.95-16.13-16.01-24.3-23.92
		c-6.83-6.62-13.28-13.55-18.88-21.25c-14.53-19.96-22.63-42.46-27.08-66.59c-4.43-24.03-9.54-47.94-14.3-71.91
		c-0.42-2.11-1.01-3.13-3.38-1.98c-1.66,0.81-3.54,1.5-5.35,1.58c-3.86,0.17-4.44,1.73-3.69,5.35c5.07,24.42,10.05,48.86,14.8,73.34
		c4.2,21.65,11.61,41.94,23.54,60.58c13.72,21.43,33.41,37.31,50.76,55.37c0.57,0.6,1.46,0.96,2.26,1.26
		C650.54,825.75,654.97,822.64,654.99,818.21z M764.95,490.8c-0.94-37.51-36.66-59.28-69.25-43.51c-4.62,2.24-4.6,2.22-1.26,5.86
		c12.94,14.12,20.66,30.67,22.99,49.7c0.27,2.2,1.03,3.97,2.56,5.63c6.27,6.78,12.49,13.61,18.57,20.55
		c1.45,1.66,2.4,1.86,4.25,0.64C757.18,520.11,764.34,506.63,764.95,490.8z"/>
	<path class="st0" d="M624.32,506.31c-0.03-12.51,9.75-22.47,22.15-22.56c12.54-0.09,22.6,9.91,22.65,22.52
		c0.04,12.17-10.2,22.44-22.42,22.47C634.4,528.77,624.35,518.7,624.32,506.31z M659.41,501.07c0.1-3.32-2.7-6.25-6.07-6.34
		c-3.39-0.09-6.3,2.65-6.38,6c-0.08,3.39,2.64,6.24,6.04,6.33C656.37,507.16,659.31,504.4,659.41,501.07z"/>
	<path class="st0" d="M733.38,460.37c10.2,0.02,18.16,8.14,18.02,18.39c-0.13,9.89-8.35,17.84-18.35,17.74
		c-9.88-0.09-17.91-8.29-17.88-18.26C715.2,468.35,723.35,460.35,733.38,460.37z M738.72,469.25c-2.77-0.08-5.07,2.07-5.12,4.79
		c-0.06,2.8,2.03,5,4.83,5.08c2.78,0.07,5.04-2.03,5.15-4.78C743.68,471.64,741.47,469.33,738.72,469.25z"/>
</g>
<g id="fill">
	<path class="st1" d="M577.43,433.07c-12.58,1.63-25.17,3.14-37.73,4.93c-8.02,1.14-16,2.58-23.95,4.14
		c-3.18,0.62-6.11,0.48-9.16-0.56c-40.79-13.83-81.22-28.63-121.07-44.98c-42.07-17.26-83.55-35.78-123.15-58.27
		c-20.52-11.66-40.44-24.24-57.77-40.49c-5.57-5.22-10.67-10.86-14.9-17.25c-10.57-15.95-9.57-28.82,3.24-43.09
		c10.86-12.11,24.96-16.58,40.58-16.74c19.86-0.2,38.65,5.14,57.06,12.16c35,13.34,67.22,31.99,98.46,52.34
		c66.24,43.15,127.52,92.74,186.56,145.18c0.74,0.66,1.61,1.17,2.42,1.75C577.82,432.49,577.62,432.78,577.43,433.07z"/>
	<path class="st1" d="M339.25,147c10.43,0.29,20.27,4.65,29.65,10.29c18.43,11.09,34.13,25.56,49.35,40.55
		c27.45,27.04,51.98,56.67,75.81,86.88c35.72,45.29,69,92.34,100.95,140.36c0.88,1.33,3.28,2.78,1.83,4.55
		c-2.22,2.71-7.46,2.87-9.73,0.85c-10.45-9.29-20.8-18.7-31.37-27.86c-53.9-46.72-109.82-90.79-170.11-129.06
		c-21.36-13.56-43.3-26.13-66.27-36.81c-1.29-0.6-2.27-1.38-2.93-2.71c-7.9-15.81-14.58-32.04-16-49.87
		c-0.99-12.41,1.37-23.82,12.87-31.1C320.94,148.24,329.71,147.54,339.25,147z"/>
	<path class="st1" d="M471.77,460.62c-4.82,11.37-8.96,22.97-11.24,35.15c-5.91,31.58-2.22,62.08,10.23,91.63
		c4.21,10,9.37,19.48,14.99,28.22c-29.2,10.47-56.77,24.4-85.4,35.76c-3.47,1.38-6.99,2.64-10.39,4.17
		c-1.7,0.76-2.59,0.42-3.76-0.96c-21.1-24.89-37.53-52.25-43.67-84.79c-4.14-21.95-2.71-43.47,6.8-64.07
		c1.11-2.41,2.64-3.95,5.09-5.05c37.81-16.92,76.7-30.68,116.89-40.72C471.46,460.18,471.61,460.4,471.77,460.62z"/>
	<path class="st1" d="M339.47,508.86c-12.26,36.83-6.25,71.86,10.5,105.79c7.93,16.07,18.21,30.62,29.95,44.86
		c-6.53,2.53-12.82,4.96-19.12,7.4c-23.34,9.03-46.88,17.5-70.85,24.72c-1.76,0.53-3.23,0.78-4.94-0.26
		c-26.61-16.25-45.8-38.23-53.37-69.17c-3.55-14.52-3.69-29.17-1.1-43.87c0.38-2.18,1.39-3.82,3.17-5.24
		c32.25-25.66,67.37-46.67,104.36-64.66c0.22-0.11,0.48-0.13,0.72-0.19C339.02,508.44,339.24,508.65,339.47,508.86z"/>
	<path class="st1" d="M575.1,441.47c-8.55,6.51-15.24,13.3-20.77,21.2c-31.8,45.41-15.05,109.04,34.99,132.91
		c0.56,0.27,1.11,0.58,1.69,0.78c2.06,0.71,2.31,1.43,0.66,3.22c-15.66,16.91-34.76,25-57.87,22.8c-5.32-0.51-10.62-1.51-15.72-3.21
		c-6.67-2.22-13.46-3.59-20.5-3.54c-1.39,0.01-2.45-0.09-3.41-1.53c-19.37-29.16-29.93-60.94-28.42-96.23
		c0.84-19.67,5.78-38.35,14.27-56.14c1.83-3.84,4.59-5.17,8.46-6.07c27.59-6.36,55.43-11.17,83.61-14.01
		C572.72,441.58,573.34,441.57,575.1,441.47z"/>
	<path class="st1" d="M707.29,494.35c-4.5-5.48-9.73-10.05-13.27-16.22c-11.72-20.44-34.75-30.53-58.56-25.98
		c-22.11,4.22-39.94,22.99-43.3,45.57c-5,33.66,20.09,63.32,54.17,63.81c6.35,0.09,12.71-0.81,18.71-3.19
		c1.9-0.76,3.42-0.68,5.18,0.45c4.92,3.17,9.96,6.17,14.96,9.23c3.62,2.22,3.65,2.25,0.46,5.3c-12.52,11.96-27.2,19.61-44.4,22.21
		c-42.62,6.44-82.14-19.49-92.7-61.05c-13.7-53.96,28.41-104.95,84.15-102.36c34.69,1.61,64.96,25.97,74.47,59.12
		C707.41,492.17,707.94,493.04,707.29,494.35z"/>
	<path class="st1" d="M221.8,583.19c-3.85,48.64,15.03,85.38,54.91,112.31c-9.9,3.15-19.36,5.46-28.86,7.59
		c-17.04,3.82-34.15,7.18-51.7,7.43c-8.26,0.11-16.41-0.36-24.3-3.21c-10.11-3.64-15.08-10.77-15.52-21.44
		c-0.47-11.68,2.79-22.48,7.76-32.77c10.28-21.27,25.14-39.16,41.91-55.55C210.87,592.79,215.75,588.03,221.8,583.19z"/>
	<path class="st1" d="M646.56,553.59c-26.3-0.05-47.55-21.53-47.27-47.81c0.27-25.98,21.47-46.92,47.47-46.88
		c26.19,0.04,47.45,21.52,47.34,47.85C693.99,532.47,672.51,553.64,646.56,553.59z M624.32,506.31
		c0.03,12.39,10.08,22.46,22.38,22.43c12.22-0.03,22.46-10.3,22.42-22.47c-0.05-12.61-10.11-22.61-22.65-22.52
		C634.07,483.84,624.29,493.8,624.32,506.31z"/>
	<path class="st1" d="M838.56,652.65c-10.64-6.44-21.32-12.84-31.92-19.34c-42.47-26.05-84.92-52.13-127.37-78.19
		c-0.95-0.59-1.9-1.18-3.05-1.9c18-12.93,27.07-30.12,25.34-53.4c4.07,4.46,7.61,8.32,11.13,12.21
		c41.93,46.4,83.86,92.79,125.78,139.2c0.25,0.28,0.44,0.6,0.66,0.91C838.93,652.3,838.74,652.47,838.56,652.65z"/>
	<path class="st1" d="M425.45,650.52c-11.61,7.57-22.93,14.81-34.11,22.26c-11.93,7.94-24.51,14.95-35.68,23.98
		c-22.68,18.33-35.17,42.14-37.73,71.3c-1.45,16.52-1.27,33.26-5.39,49.46c-7.86,30.88-25.66,54.46-52.79,71.05
		c-4.15,2.53-8.3,5.06-12.5,7.5c-4.05,2.35-8.08,1.56-10.06-1.86c-1.94-3.34-0.69-6.7,3.57-9.26c11.21-6.76,22.63-13.14,32.01-22.55
		c19.33-19.39,28.79-42.89,30.41-70.04c0.82-13.81,1.04-27.74,4.19-41.31c6.99-30.17,23.52-53.67,49.12-71.15
		c11.31-7.73,24.19-11.52,36.47-16.86c9.36-4.07,18.83-7.86,28.27-11.72C422.32,650.85,423.34,649.9,425.45,650.52z"/>
	<path class="st1" d="M504.74,875.93c-5.02-0.07-7.93-4.96-5.92-9.58c2.93-6.74,5.83-13.48,7.98-20.53
		c8.66-28.48,8.48-56.98,0.62-85.63c-3.99-14.53-8.5-28.95-10.68-43.92c-4.47-30.66-0.36-60.15,12.07-88.53
		c0.98-2.23,2.05-2.69,4.22-1.93c3.04,1.07,7.61,1.02,8.85,3.07c1.26,2.09-1.95,5.66-3.12,8.61c-13.02,32.78-13.8,65.98-4.16,99.76
		c4.34,15.2,8.83,30.42,10.64,46.23c3.51,30.77-1.48,60.14-14.54,88.18C509.39,874.43,507.28,875.86,504.74,875.93z"/>
	<path class="st1" d="M654.99,818.2c-0.02,4.44-4.45,7.55-8.62,6.02c-0.8-0.29-1.69-0.66-2.26-1.26
		c-17.35-18.06-37.05-33.93-50.76-55.37c-11.93-18.64-19.34-38.93-23.54-60.58c-4.75-24.48-9.73-48.92-14.8-73.34
		c-0.75-3.62-0.16-5.18,3.69-5.35c1.81-0.08,3.69-0.78,5.35-1.58c2.37-1.16,2.96-0.13,3.38,1.98c4.76,23.97,9.87,47.88,14.3,71.91
		c4.45,24.13,12.55,46.64,27.08,66.59c5.61,7.7,12.06,14.63,18.88,21.25c8.16,7.91,16.17,15.97,24.3,23.92
		C653.65,814.03,654.88,815.8,654.99,818.2z"/>
	<path class="st1" d="M764.95,490.8c-0.61,15.83-7.78,29.31-22.16,38.86c-1.84,1.22-2.8,1.02-4.25-0.64
		c-6.08-6.95-12.3-13.77-18.57-20.55c-1.53-1.65-2.29-3.43-2.56-5.63c-2.33-19.03-10.05-35.58-22.99-49.7
		c-3.34-3.64-3.36-3.62,1.26-5.86C728.29,431.53,764.01,453.3,764.95,490.8z M733.38,460.37c-10.02-0.02-18.18,7.98-18.21,17.87
		c-0.03,9.97,8,18.17,17.88,18.26c10,0.09,18.22-7.85,18.35-17.74C751.54,468.51,743.58,460.39,733.38,460.37z"/>
	<path class="st1" d="M471.3,459.95c0.35-0.15,0.74-0.29,0.92,0.18c0.03,0.09-0.3,0.32-0.46,0.48
		C471.61,460.4,471.46,460.18,471.3,459.95z"/>
	<path class="st1" d="M659.41,501.07c-0.1,3.33-3.05,6.09-6.41,6c-3.4-0.09-6.12-2.94-6.04-6.33c0.08-3.36,2.99-6.1,6.38-6
		C656.71,494.83,659.51,497.75,659.41,501.07z"/>
	<path class="st1" d="M738.72,469.25c2.75,0.08,4.96,2.39,4.85,5.09c-0.11,2.75-2.37,4.85-5.15,4.78c-2.8-0.07-4.89-2.27-4.83-5.08
		C733.66,471.32,735.96,469.17,738.72,469.25z"/>
</g>
</svg>
